<svg width="320" height="126" viewBox="0 0 320 126" fill="none" xmlns="http://www.w3.org/2000/svg">
<g filter="url(#filter0_d_3702_205)">
<g filter="url(#filter1_d_3702_205)">
<path d="M288 61.6952C288 67.1183 283.677 71.553 278.256 71.6919L42.2561 77.7373C36.6348 77.8813 32 73.3637 32 67.7406V26.2594C32 20.6363 36.6348 16.1187 42.2561 16.2627L278.256 22.3081C283.677 22.447 288 26.8817 288 32.3048V61.6952Z" fill="#00B027"/>
</g>
<path d="M57.728 39.8H60V51H57.808V43.736L54.656 48.936H54.4L51.248 43.752V51H49.04V39.8H51.312L54.528 45.096L57.728 39.8ZM68.8069 50.008C67.9962 50.8187 66.9935 51.224 65.7989 51.224C64.6042 51.224 63.6015 50.8187 62.7909 50.008C61.9802 49.1973 61.5749 48.1947 61.5749 47C61.5749 45.816 61.9802 44.8187 62.7909 44.008C63.6122 43.1867 64.6149 42.776 65.7989 42.776C66.9829 42.776 67.9855 43.1867 68.8069 44.008C69.6282 44.8293 70.0389 45.8267 70.0389 47C70.0389 48.184 69.6282 49.1867 68.8069 50.008ZM64.2469 48.584C64.6629 49 65.1802 49.208 65.7989 49.208C66.4175 49.208 66.9349 49 67.3509 48.584C67.7669 48.168 67.9749 47.64 67.9749 47C67.9749 46.36 67.7669 45.832 67.3509 45.416C66.9349 45 66.4175 44.792 65.7989 44.792C65.1802 44.792 64.6629 45 64.2469 45.416C63.8415 45.8427 63.6389 46.3707 63.6389 47C63.6389 47.6293 63.8415 48.1573 64.2469 48.584ZM77.4749 41.976H72.8349V40.184H77.4749V41.976ZM73.5069 47.544L77.2669 43H78.8029V51H76.7869V46.456L73.0269 51H71.4909V43H73.5069V47.544ZM84.758 46.952L88.07 51H85.67L82.758 47.368V51H80.694V43H82.758V46.52L85.51 43H87.974L84.758 46.952ZM94.6021 43.944V43H96.6661V51H94.6021V50.056C93.9835 50.8347 93.1141 51.224 91.9941 51.224C90.9275 51.224 90.0101 50.8187 89.2421 50.008C88.4848 49.1867 88.1061 48.184 88.1061 47C88.1061 45.8267 88.4848 44.8293 89.2421 44.008C90.0101 43.1867 90.9275 42.776 91.9941 42.776C93.1141 42.776 93.9835 43.1653 94.6021 43.944ZM90.7941 48.632C91.2101 49.048 91.7381 49.256 92.3781 49.256C93.0181 49.256 93.5461 49.048 93.9621 48.632C94.3888 48.2053 94.6021 47.6613 94.6021 47C94.6021 46.3387 94.3888 45.8 93.9621 45.384C93.5461 44.9573 93.0181 44.744 92.3781 44.744C91.7381 44.744 91.2101 44.9573 90.7941 45.384C90.3781 45.8 90.1701 46.3387 90.1701 47C90.1701 47.6613 90.3781 48.2053 90.7941 48.632ZM108.298 46.904C109.044 47.2667 109.418 47.8747 109.418 48.728C109.418 49.4107 109.183 49.96 108.714 50.376C108.244 50.792 107.588 51 106.746 51H102.538V43H106.426C107.258 43 107.908 43.208 108.378 43.624C108.847 44.0293 109.082 44.5733 109.082 45.256C109.082 45.96 108.82 46.5093 108.298 46.904ZM106.234 44.696H104.474V46.136H106.234C106.82 46.136 107.114 45.896 107.114 45.416C107.114 44.936 106.82 44.696 106.234 44.696ZM104.474 49.256H106.506C107.103 49.256 107.402 49 107.402 48.488C107.402 48.264 107.322 48.088 107.162 47.96C107.002 47.832 106.783 47.768 106.506 47.768H104.474V49.256ZM112.774 45.56H114.326C115.232 45.56 115.963 45.8107 116.518 46.312C117.072 46.8027 117.35 47.4587 117.35 48.28C117.35 49.1013 117.072 49.7627 116.518 50.264C115.963 50.7547 115.232 51 114.326 51H110.71V43H112.774V45.56ZM118.23 51V43H120.294V51H118.23ZM112.774 49.176H114.342C114.63 49.176 114.864 49.096 115.046 48.936C115.238 48.7653 115.334 48.5467 115.334 48.28C115.334 48.0133 115.238 47.7947 115.046 47.624C114.864 47.4533 114.63 47.368 114.342 47.368H112.774V49.176ZM125.986 51.224C124.781 51.224 123.773 50.8187 122.962 50.008C122.162 49.1973 121.762 48.1947 121.762 47C121.762 45.8053 122.162 44.8027 122.962 43.992C123.773 43.1813 124.781 42.776 125.986 42.776C126.765 42.776 127.474 42.9627 128.114 43.336C128.754 43.7093 129.24 44.2107 129.57 44.84L127.794 45.88C127.634 45.5493 127.389 45.288 127.058 45.096C126.738 44.904 126.376 44.808 125.97 44.808C125.352 44.808 124.84 45.016 124.434 45.432C124.029 45.8373 123.826 46.36 123.826 47C123.826 47.6187 124.029 48.1413 124.434 48.568C124.84 48.9733 125.352 49.176 125.97 49.176C126.386 49.176 126.754 49.0853 127.074 48.904C127.405 48.712 127.65 48.4507 127.81 48.12L129.602 49.144C129.25 49.784 128.749 50.2907 128.098 50.664C127.458 51.0373 126.754 51.224 125.986 51.224ZM137.385 50.008C136.574 50.8187 135.572 51.224 134.377 51.224C133.182 51.224 132.18 50.8187 131.369 50.008C130.558 49.1973 130.153 48.1947 130.153 47C130.153 45.816 130.558 44.8187 131.369 44.008C132.19 43.1867 133.193 42.776 134.377 42.776C135.561 42.776 136.564 43.1867 137.385 44.008C138.206 44.8293 138.617 45.8267 138.617 47C138.617 48.184 138.206 49.1867 137.385 50.008ZM132.825 48.584C133.241 49 133.758 49.208 134.377 49.208C134.996 49.208 135.513 49 135.929 48.584C136.345 48.168 136.553 47.64 136.553 47C136.553 46.36 136.345 45.832 135.929 45.416C135.513 45 134.996 44.792 134.377 44.792C133.758 44.792 133.241 45 132.825 45.416C132.42 45.8427 132.217 46.3707 132.217 47C132.217 47.6293 132.42 48.1573 132.825 48.584ZM144.133 46.952L147.445 51H145.045L142.133 47.368V51H140.069V43H142.133V46.52L144.885 43H147.349L144.133 46.952ZM154.713 50.008C153.902 50.8187 152.9 51.224 151.705 51.224C150.51 51.224 149.508 50.8187 148.697 50.008C147.886 49.1973 147.481 48.1947 147.481 47C147.481 45.816 147.886 44.8187 148.697 44.008C149.518 43.1867 150.521 42.776 151.705 42.776C152.889 42.776 153.892 43.1867 154.713 44.008C155.534 44.8293 155.945 45.8267 155.945 47C155.945 48.184 155.534 49.1867 154.713 50.008ZM150.153 48.584C150.569 49 151.086 49.208 151.705 49.208C152.324 49.208 152.841 49 153.257 48.584C153.673 48.168 153.881 47.64 153.881 47C153.881 46.36 153.673 45.832 153.257 45.416C152.841 45 152.324 44.792 151.705 44.792C151.086 44.792 150.569 45 150.153 45.416C149.748 45.8427 149.545 46.3707 149.545 47C149.545 47.6293 149.748 48.1573 150.153 48.584ZM157.397 43H162.869V44.984H159.461V51H157.397V43ZM170.479 50.008C169.668 50.8187 168.665 51.224 167.471 51.224C166.276 51.224 165.273 50.8187 164.463 50.008C163.652 49.1973 163.247 48.1947 163.247 47C163.247 45.816 163.652 44.8187 164.463 44.008C165.284 43.1867 166.287 42.776 167.471 42.776C168.655 42.776 169.657 43.1867 170.479 44.008C171.3 44.8293 171.711 45.8267 171.711 47C171.711 48.184 171.3 49.1867 170.479 50.008ZM165.919 48.584C166.335 49 166.852 49.208 167.471 49.208C168.089 49.208 168.607 49 169.023 48.584C169.439 48.168 169.647 47.64 169.647 47C169.647 46.36 169.439 45.832 169.023 45.416C168.607 45 168.089 44.792 167.471 44.792C166.852 44.792 166.335 45 165.919 45.416C165.513 45.8427 165.311 46.3707 165.311 47C165.311 47.6293 165.513 48.1573 165.919 48.584ZM184.363 43V49.064H185.419V53.144H183.403V51H178.443V53.144H176.427V49.064H177.403C177.861 48.3813 178.091 47.4373 178.091 46.232V43H184.363ZM179.611 49.064H182.347V44.856H180.107V46.232C180.107 47.384 179.941 48.328 179.611 49.064ZM192.493 43.944V43H194.557V51H192.493V50.056C191.874 50.8347 191.005 51.224 189.885 51.224C188.818 51.224 187.901 50.8187 187.133 50.008C186.375 49.1867 185.997 48.184 185.997 47C185.997 45.8267 186.375 44.8293 187.133 44.008C187.901 43.1867 188.818 42.776 189.885 42.776C191.005 42.776 191.874 43.1653 192.493 43.944ZM188.685 48.632C189.101 49.048 189.629 49.256 190.269 49.256C190.909 49.256 191.437 49.048 191.853 48.632C192.279 48.2053 192.493 47.6613 192.493 47C192.493 46.3387 192.279 45.8 191.853 45.384C191.437 44.9573 190.909 44.744 190.269 44.744C189.629 44.744 189.101 44.9573 188.685 45.384C188.269 45.8 188.061 46.3387 188.061 47C188.061 47.6613 188.269 48.2053 188.685 48.632ZM202.188 46.904C202.935 47.2667 203.308 47.8747 203.308 48.728C203.308 49.4107 203.074 49.96 202.604 50.376C202.135 50.792 201.479 51 200.636 51H196.428V43H200.316C201.148 43 201.799 43.208 202.268 43.624C202.738 44.0293 202.972 44.5733 202.972 45.256C202.972 45.96 202.711 46.5093 202.188 46.904ZM200.124 44.696H198.364V46.136H200.124C200.711 46.136 201.004 45.896 201.004 45.416C201.004 44.936 200.711 44.696 200.124 44.696ZM198.364 49.256H200.396C200.994 49.256 201.292 49 201.292 48.488C201.292 48.264 201.212 48.088 201.052 47.96C200.892 47.832 200.674 47.768 200.396 47.768H198.364V49.256ZM205.05 43H211.386V51H209.322V44.984H207.114V47.656C207.114 50.12 205.989 51.2347 203.738 51V49.064C204.165 49.1707 204.49 49.096 204.714 48.84C204.938 48.584 205.05 48.152 205.05 47.544V43ZM221.033 47.848H215.001C215.267 48.8507 216.019 49.352 217.257 49.352C218.046 49.352 218.643 49.0853 219.049 48.552L220.713 49.512C219.923 50.6533 218.761 51.224 217.225 51.224C215.902 51.224 214.841 50.824 214.041 50.024C213.241 49.224 212.84 48.216 212.84 47C212.84 45.8053 213.235 44.8027 214.025 43.992C214.803 43.1813 215.817 42.776 217.065 42.776C218.249 42.776 219.214 43.1813 219.961 43.992C220.729 44.8027 221.113 45.8053 221.113 47C221.113 47.224 221.086 47.5067 221.033 47.848ZM214.969 46.248H219.049C218.931 45.7253 218.691 45.3253 218.329 45.048C217.977 44.7707 217.555 44.632 217.065 44.632C216.51 44.632 216.051 44.776 215.689 45.064C215.326 45.3413 215.086 45.736 214.969 46.248ZM227.801 46.024V43H229.865V51H227.801V47.96H224.617V51H222.553V43H224.617V46.024H227.801ZM233.773 47.544L237.533 43H239.069V51H237.053V46.456L233.293 51H231.757V43H233.773V47.544ZM243.632 43H247.376V51H245.36V48.504H244.64L242.8 51H240.416L242.416 48.264C241.904 48.0507 241.493 47.7147 241.184 47.256C240.885 46.7973 240.736 46.296 240.736 45.752C240.736 45.016 241.002 44.3707 241.536 43.816C242.058 43.272 242.757 43 243.632 43ZM245.36 44.84H243.792C243.493 44.84 243.242 44.9307 243.04 45.112C242.848 45.2933 242.752 45.528 242.752 45.816C242.752 46.104 242.848 46.3333 243.04 46.504C243.242 46.6747 243.493 46.76 243.792 46.76H245.36V44.84Z" fill="white"/>
</g>
<defs>
<filter id="filter0_d_3702_205" x="28" y="16.2593" width="264" height="69.4814" filterUnits="userSpaceOnUse" color-interpolation-filters="sRGB">
<feFlood flood-opacity="0" result="BackgroundImageFix"/>
<feColorMatrix in="SourceAlpha" type="matrix" values="0 0 0 0 0 0 0 0 0 0 0 0 0 0 0 0 0 0 127 0" result="hardAlpha"/>
<feOffset dy="4"/>
<feGaussianBlur stdDeviation="2"/>
<feComposite in2="hardAlpha" operator="out"/>
<feColorMatrix type="matrix" values="0 0 0 0 0 0 0 0 0 0 0 0 0 0 0 0 0 0 0.25 0"/>
<feBlend mode="normal" in2="BackgroundImageFix" result="effect1_dropShadow_3702_205"/>
<feBlend mode="normal" in="SourceGraphic" in2="effect1_dropShadow_3702_205" result="shape"/>
</filter>
<filter id="filter1_d_3702_205" x="0" y="0.259277" width="320" height="125.481" filterUnits="userSpaceOnUse" color-interpolation-filters="sRGB">
<feFlood flood-opacity="0" result="BackgroundImageFix"/>
<feColorMatrix in="SourceAlpha" type="matrix" values="0 0 0 0 0 0 0 0 0 0 0 0 0 0 0 0 0 0 127 0" result="hardAlpha"/>
<feOffset dy="16"/>
<feGaussianBlur stdDeviation="16"/>
<feColorMatrix type="matrix" values="0 0 0 0 0 0 0 0 0 0.691667 0 0 0 0 0.152167 0 0 0 0.3 0"/>
<feBlend mode="normal" in2="BackgroundImageFix" result="effect1_dropShadow_3702_205"/>
<feBlend mode="normal" in="SourceGraphic" in2="effect1_dropShadow_3702_205" result="shape"/>
</filter>
</defs>
</svg>
