<svg width="320" height="126" viewBox="0 0 320 126" fill="none" xmlns="http://www.w3.org/2000/svg">
<g filter="url(#filter0_d_3702_207)">
<path d="M288 61.6952C288 67.1183 283.677 71.553 278.256 71.6919L42.2561 77.7373C36.6348 77.8813 32 73.3637 32 67.7406V26.2594C32 20.6363 36.6348 16.1187 42.2561 16.2627L278.256 22.3081C283.677 22.447 288 26.8817 288 32.3048V61.6952Z" fill="#00B027"/>
</g>
<path d="M48.04 39.8H56.408V51H54.2V41.912H50.248V51H48.04V39.8ZM58.9251 43H65.2611V51H63.1971V44.984H60.9891V47.656C60.9891 50.12 59.8638 51.2347 57.6131 51V49.064C58.0398 49.1707 58.3651 49.096 58.5891 48.84C58.8131 48.584 58.9251 48.152 58.9251 47.544V43ZM69.1955 45.56H70.7475C71.6542 45.56 72.3848 45.8107 72.9395 46.312C73.4942 46.8027 73.7715 47.4587 73.7715 48.28C73.7715 49.1013 73.4942 49.7627 72.9395 50.264C72.3848 50.7547 71.6542 51 70.7475 51H67.1315V43H69.1955V45.56ZM74.6515 51V43H76.7155V51H74.6515ZM69.1955 49.176H70.7635C71.0515 49.176 71.2862 49.096 71.4675 48.936C71.6595 48.7653 71.7555 48.5467 71.7555 48.28C71.7555 48.0133 71.6595 47.7947 71.4675 47.624C71.2862 47.4533 71.0515 47.368 70.7635 47.368H69.1955V49.176ZM82.4083 51.224C81.2029 51.224 80.1949 50.8187 79.3843 50.008C78.5843 49.1973 78.1842 48.1947 78.1842 47C78.1842 45.8053 78.5843 44.8027 79.3843 43.992C80.1949 43.1813 81.2029 42.776 82.4083 42.776C83.1869 42.776 83.8963 42.9627 84.5363 43.336C85.1763 43.7093 85.6616 44.2107 85.9923 44.84L84.2163 45.88C84.0563 45.5493 83.8109 45.288 83.4803 45.096C83.1603 44.904 82.7976 44.808 82.3923 44.808C81.7736 44.808 81.2616 45.016 80.8563 45.432C80.4509 45.8373 80.2483 46.36 80.2483 47C80.2483 47.6187 80.4509 48.1413 80.8563 48.568C81.2616 48.9733 81.7736 49.176 82.3923 49.176C82.8083 49.176 83.1763 49.0853 83.4963 48.904C83.8269 48.712 84.0723 48.4507 84.2323 48.12L86.0243 49.144C85.6723 49.784 85.1709 50.2907 84.5203 50.664C83.8803 51.0373 83.1763 51.224 82.4083 51.224ZM93.8069 50.008C92.9962 50.8187 91.9935 51.224 90.7989 51.224C89.6042 51.224 88.6015 50.8187 87.7909 50.008C86.9802 49.1973 86.5749 48.1947 86.5749 47C86.5749 45.816 86.9802 44.8187 87.7909 44.008C88.6122 43.1867 89.6149 42.776 90.7989 42.776C91.9829 42.776 92.9855 43.1867 93.8069 44.008C94.6282 44.8293 95.0389 45.8267 95.0389 47C95.0389 48.184 94.6282 49.1867 93.8069 50.008ZM89.2469 48.584C89.6629 49 90.1802 49.208 90.7989 49.208C91.4175 49.208 91.9349 49 92.3509 48.584C92.7669 48.168 92.9749 47.64 92.9749 47C92.9749 46.36 92.7669 45.832 92.3509 45.416C91.9349 45 91.4175 44.792 90.7989 44.792C90.1802 44.792 89.6629 45 89.2469 45.416C88.8415 45.8427 88.6389 46.3707 88.6389 47C88.6389 47.6293 88.8415 48.1573 89.2469 48.584ZM100.299 51.224C99.0935 51.224 98.0855 50.8187 97.2749 50.008C96.4749 49.1973 96.0749 48.1947 96.0749 47C96.0749 45.8053 96.4749 44.8027 97.2749 43.992C98.0855 43.1813 99.0935 42.776 100.299 42.776C101.078 42.776 101.787 42.9627 102.427 43.336C103.067 43.7093 103.552 44.2107 103.883 44.84L102.107 45.88C101.947 45.5493 101.702 45.288 101.371 45.096C101.051 44.904 100.688 44.808 100.283 44.808C99.6642 44.808 99.1522 45.016 98.7469 45.432C98.3415 45.8373 98.1389 46.36 98.1389 47C98.1389 47.6187 98.3415 48.1413 98.7469 48.568C99.1522 48.9733 99.6642 49.176 100.283 49.176C100.699 49.176 101.067 49.0853 101.387 48.904C101.718 48.712 101.963 48.4507 102.123 48.12L103.915 49.144C103.563 49.784 103.062 50.2907 102.411 50.664C101.771 51.0373 101.067 51.224 100.299 51.224ZM116.269 43V49.064H117.325V53.144H115.309V51H110.349V53.144H108.333V49.064H109.309C109.768 48.3813 109.997 47.4373 109.997 46.232V43H116.269ZM111.517 49.064H114.253V44.856H112.013V46.232C112.013 47.384 111.848 48.328 111.517 49.064ZM119.16 43H125.496V51H123.432V44.984H121.224V47.656C121.224 50.12 120.098 51.2347 117.848 51V49.064C118.274 49.1707 118.6 49.096 118.824 48.84C119.048 48.584 119.16 48.152 119.16 47.544V43ZM130.038 43H133.782V51H131.766V48.504H131.046L129.206 51H126.822L128.822 48.264C128.31 48.0507 127.899 47.7147 127.59 47.256C127.291 46.7973 127.142 46.296 127.142 45.752C127.142 45.016 127.409 44.3707 127.942 43.816C128.465 43.272 129.163 43 130.038 43ZM131.766 44.84H130.198C129.899 44.84 129.649 44.9307 129.446 45.112C129.254 45.2933 129.158 45.528 129.158 45.816C129.158 46.104 129.254 46.3333 129.446 46.504C129.649 46.6747 129.899 46.76 130.198 46.76H131.766V44.84ZM143.471 51.224C142.265 51.224 141.257 50.8187 140.447 50.008C139.647 49.1973 139.247 48.1947 139.247 47C139.247 45.8053 139.647 44.8027 140.447 43.992C141.257 43.1813 142.265 42.776 143.471 42.776C144.249 42.776 144.959 42.9627 145.599 43.336C146.239 43.7093 146.724 44.2107 147.055 44.84L145.279 45.88C145.119 45.5493 144.873 45.288 144.543 45.096C144.223 44.904 143.86 44.808 143.455 44.808C142.836 44.808 142.324 45.016 141.919 45.432C141.513 45.8373 141.311 46.36 141.311 47C141.311 47.6187 141.513 48.1413 141.919 48.568C142.324 48.9733 142.836 49.176 143.455 49.176C143.871 49.176 144.239 49.0853 144.559 48.904C144.889 48.712 145.135 48.4507 145.295 48.12L147.087 49.144C146.735 49.784 146.233 50.2907 145.583 50.664C144.943 51.0373 144.239 51.224 143.471 51.224ZM147.348 43H154.436V44.984H151.94V51H149.876V44.984H147.348V43ZM157.554 47.544L161.314 43H162.85V51H160.834V46.456L157.074 51H155.538V43H157.554V47.544ZM169.397 42.776C170.474 42.776 171.392 43.1867 172.149 44.008C172.917 44.8293 173.301 45.8267 173.301 47C173.301 48.1947 172.917 49.1973 172.149 50.008C171.402 50.8187 170.485 51.224 169.397 51.224C168.277 51.224 167.413 50.8347 166.805 50.056V54.2H164.741V43H166.805V43.944C167.413 43.1653 168.277 42.776 169.397 42.776ZM167.429 48.632C167.845 49.048 168.373 49.256 169.013 49.256C169.653 49.256 170.181 49.048 170.597 48.632C171.024 48.2053 171.237 47.6613 171.237 47C171.237 46.3387 171.024 45.8 170.597 45.384C170.181 44.9573 169.653 44.744 169.013 44.744C168.373 44.744 167.845 44.9573 167.429 45.384C167.013 45.8 166.805 46.3387 166.805 47C166.805 47.6613 167.013 48.2053 167.429 48.632ZM178.821 46.952L182.133 51H179.733L176.821 47.368V51H174.757V43H176.821V46.52L179.573 43H182.036L178.821 46.952ZM185.179 47.544L188.939 43H190.475V51H188.459V46.456L184.699 51H183.163V43H185.179V47.544ZM200.43 46.952L203.742 51H201.342L198.43 47.368V51H196.366V43H198.43V46.52L201.182 43H203.646L200.43 46.952ZM211.01 50.008C210.199 50.8187 209.197 51.224 208.002 51.224C206.807 51.224 205.805 50.8187 204.994 50.008C204.183 49.1973 203.778 48.1947 203.778 47C203.778 45.816 204.183 44.8187 204.994 44.008C205.815 43.1867 206.818 42.776 208.002 42.776C209.186 42.776 210.189 43.1867 211.01 44.008C211.831 44.8293 212.242 45.8267 212.242 47C212.242 48.184 211.831 49.1867 211.01 50.008ZM206.45 48.584C206.866 49 207.383 49.208 208.002 49.208C208.621 49.208 209.138 49 209.554 48.584C209.97 48.168 210.178 47.64 210.178 47C210.178 46.36 209.97 45.832 209.554 45.416C209.138 45 208.621 44.792 208.002 44.792C207.383 44.792 206.866 45 206.45 45.416C206.045 45.8427 205.842 46.3707 205.842 47C205.842 47.6293 206.045 48.1573 206.45 48.584ZM219.454 46.904C220.201 47.2667 220.574 47.8747 220.574 48.728C220.574 49.4107 220.339 49.96 219.87 50.376C219.401 50.792 218.745 51 217.902 51H213.694V43H217.582C218.414 43 219.065 43.208 219.534 43.624C220.003 44.0293 220.238 44.5733 220.238 45.256C220.238 45.96 219.977 46.5093 219.454 46.904ZM217.39 44.696H215.63V46.136H217.39C217.977 46.136 218.27 45.896 218.27 45.416C218.27 44.936 217.977 44.696 217.39 44.696ZM215.63 49.256H217.662C218.259 49.256 218.558 49 218.558 48.488C218.558 48.264 218.478 48.088 218.318 47.96C218.158 47.832 217.939 47.768 217.662 47.768H215.63V49.256ZM226.522 42.776C227.599 42.776 228.517 43.1867 229.274 44.008C230.042 44.8293 230.426 45.8267 230.426 47C230.426 48.1947 230.042 49.1973 229.274 50.008C228.527 50.8187 227.61 51.224 226.522 51.224C225.402 51.224 224.538 50.8347 223.93 50.056V54.2H221.866V43H223.93V43.944C224.538 43.1653 225.402 42.776 226.522 42.776ZM224.554 48.632C224.97 49.048 225.498 49.256 226.138 49.256C226.778 49.256 227.306 49.048 227.722 48.632C228.149 48.2053 228.362 47.6613 228.362 47C228.362 46.3387 228.149 45.8 227.722 45.384C227.306 44.9573 226.778 44.744 226.138 44.744C225.498 44.744 224.97 44.9573 224.554 45.384C224.138 45.8 223.93 46.3387 223.93 47C223.93 47.6613 224.138 48.2053 224.554 48.632ZM238.698 50.008C237.887 50.8187 236.884 51.224 235.69 51.224C234.495 51.224 233.492 50.8187 232.682 50.008C231.871 49.1973 231.465 48.1947 231.465 47C231.465 45.816 231.871 44.8187 232.682 44.008C233.503 43.1867 234.506 42.776 235.69 42.776C236.874 42.776 237.876 43.1867 238.698 44.008C239.519 44.8293 239.93 45.8267 239.93 47C239.93 48.184 239.519 49.1867 238.698 50.008ZM234.138 48.584C234.554 49 235.071 49.208 235.69 49.208C236.308 49.208 236.826 49 237.242 48.584C237.658 48.168 237.866 47.64 237.866 47C237.866 46.36 237.658 45.832 237.242 45.416C236.826 45 236.308 44.792 235.69 44.792C235.071 44.792 234.554 45 234.138 45.416C233.732 45.8427 233.53 46.3707 233.53 47C233.53 47.6293 233.732 48.1573 234.138 48.584ZM247.142 46.904C247.888 47.2667 248.262 47.8747 248.262 48.728C248.262 49.4107 248.027 49.96 247.558 50.376C247.088 50.792 246.432 51 245.59 51H241.382V43H245.27C246.102 43 246.752 43.208 247.222 43.624C247.691 44.0293 247.926 44.5733 247.926 45.256C247.926 45.96 247.664 46.5093 247.142 46.904ZM245.078 44.696H243.318V46.136H245.078C245.664 46.136 245.958 45.896 245.958 45.416C245.958 44.936 245.664 44.696 245.078 44.696ZM243.318 49.256H245.35C245.947 49.256 246.246 49 246.246 48.488C246.246 48.264 246.166 48.088 246.006 47.96C245.846 47.832 245.627 47.768 245.35 47.768H243.318V49.256Z" fill="white"/>
<defs>
<filter id="filter0_d_3702_207" x="0" y="0.259277" width="320" height="125.481" filterUnits="userSpaceOnUse" color-interpolation-filters="sRGB">
<feFlood flood-opacity="0" result="BackgroundImageFix"/>
<feColorMatrix in="SourceAlpha" type="matrix" values="0 0 0 0 0 0 0 0 0 0 0 0 0 0 0 0 0 0 127 0" result="hardAlpha"/>
<feOffset dy="16"/>
<feGaussianBlur stdDeviation="16"/>
<feColorMatrix type="matrix" values="0 0 0 0 0 0 0 0 0 0.691667 0 0 0 0 0.152167 0 0 0 0.3 0"/>
<feBlend mode="normal" in2="BackgroundImageFix" result="effect1_dropShadow_3702_207"/>
<feBlend mode="normal" in="SourceGraphic" in2="effect1_dropShadow_3702_207" result="shape"/>
</filter>
</defs>
</svg>
