<svg width="320" height="126" viewBox="0 0 320 126" fill="none" xmlns="http://www.w3.org/2000/svg">
<g filter="url(#filter0_d_3702_206)">
<path d="M288 61.6952C288 67.1183 283.677 71.553 278.256 71.6919L42.2561 77.7373C36.6348 77.8813 32 73.3637 32 67.7406V26.2594C32 20.6363 36.6348 16.1187 42.2561 16.2627L278.256 22.3081C283.677 22.447 288 26.8817 288 32.3048V61.6952Z" fill="#00B027"/>
</g>
<path d="M48.04 39.8H52.216C53.2827 39.8 54.1893 40.1627 54.936 40.888C55.672 41.6133 56.04 42.504 56.04 43.56C56.04 44.616 55.672 45.5067 54.936 46.232C54.1893 46.9573 53.2827 47.32 52.216 47.32H50.248V51H48.04V39.8ZM50.248 45.256H52.216C52.6853 45.256 53.0747 45.096 53.384 44.776C53.6933 44.4453 53.848 44.04 53.848 43.56C53.848 43.0693 53.6933 42.664 53.384 42.344C53.0747 42.024 52.6853 41.864 52.216 41.864H50.248V45.256ZM63.6663 50.008C62.8556 50.8187 61.8529 51.224 60.6583 51.224C59.4636 51.224 58.4609 50.8187 57.6503 50.008C56.8396 49.1973 56.4342 48.1947 56.4342 47C56.4342 45.816 56.8396 44.8187 57.6503 44.008C58.4716 43.1867 59.4743 42.776 60.6583 42.776C61.8423 42.776 62.8449 43.1867 63.6663 44.008C64.4876 44.8293 64.8983 45.8267 64.8983 47C64.8983 48.184 64.4876 49.1867 63.6663 50.008ZM59.1063 48.584C59.5223 49 60.0396 49.208 60.6583 49.208C61.2769 49.208 61.7943 49 62.2103 48.584C62.6263 48.168 62.8343 47.64 62.8343 47C62.8343 46.36 62.6263 45.832 62.2103 45.416C61.7943 45 61.2769 44.792 60.6583 44.792C60.0396 44.792 59.5223 45 59.1063 45.416C58.7009 45.8427 58.4983 46.3707 58.4983 47C58.4983 47.6293 58.7009 48.1573 59.1063 48.584ZM65.2538 43H72.3418V44.984H69.8458V51H67.7818V44.984H65.2538V43ZM79.9475 50.008C79.1368 50.8187 78.1342 51.224 76.9395 51.224C75.7448 51.224 74.7422 50.8187 73.9315 50.008C73.1208 49.1973 72.7155 48.1947 72.7155 47C72.7155 45.816 73.1208 44.8187 73.9315 44.008C74.7528 43.1867 75.7555 42.776 76.9395 42.776C78.1235 42.776 79.1262 43.1867 79.9475 44.008C80.7688 44.8293 81.1795 45.8267 81.1795 47C81.1795 48.184 80.7688 49.1867 79.9475 50.008ZM75.3875 48.584C75.8035 49 76.3208 49.208 76.9395 49.208C77.5582 49.208 78.0755 49 78.4915 48.584C78.9075 48.168 79.1155 47.64 79.1155 47C79.1155 46.36 78.9075 45.832 78.4915 45.416C78.0755 45 77.5582 44.792 76.9395 44.792C76.3208 44.792 75.8035 45 75.3875 45.416C74.9822 45.8427 74.7795 46.3707 74.7795 47C74.7795 47.6293 74.9822 48.1573 75.3875 48.584ZM87.2875 42.776C88.3648 42.776 89.2822 43.1867 90.0395 44.008C90.8075 44.8293 91.1915 45.8267 91.1915 47C91.1915 48.1947 90.8075 49.1973 90.0395 50.008C89.2928 50.8187 88.3755 51.224 87.2875 51.224C86.1675 51.224 85.3035 50.8347 84.6955 50.056V54.2H82.6315V43H84.6955V43.944C85.3035 43.1653 86.1675 42.776 87.2875 42.776ZM85.3195 48.632C85.7355 49.048 86.2635 49.256 86.9035 49.256C87.5435 49.256 88.0715 49.048 88.4875 48.632C88.9142 48.2053 89.1275 47.6613 89.1275 47C89.1275 46.3387 88.9142 45.8 88.4875 45.384C88.0715 44.9573 87.5435 44.744 86.9035 44.744C86.2635 44.744 85.7355 44.9573 85.3195 45.384C84.9035 45.8 84.6955 46.3387 84.6955 47C84.6955 47.6613 84.9035 48.2053 85.3195 48.632ZM97.8951 46.024V43H99.9591V51H97.8951V47.96H94.7111V51H92.6471V43H94.7111V46.024H97.8951ZM107.93 43.944V43H109.994V51H107.93V50.056C107.312 50.8347 106.442 51.224 105.322 51.224C104.256 51.224 103.338 50.8187 102.57 50.008C101.813 49.1867 101.434 48.184 101.434 47C101.434 45.8267 101.813 44.8293 102.57 44.008C103.338 43.1867 104.256 42.776 105.322 42.776C106.442 42.776 107.312 43.1653 107.93 43.944ZM104.122 48.632C104.538 49.048 105.066 49.256 105.706 49.256C106.346 49.256 106.874 49.048 107.29 48.632C107.717 48.2053 107.93 47.6613 107.93 47C107.93 46.3387 107.717 45.8 107.29 45.384C106.874 44.9573 106.346 44.744 105.706 44.744C105.066 44.744 104.538 44.9573 104.122 45.384C103.706 45.8 103.498 46.3387 103.498 47C103.498 47.6613 103.706 48.2053 104.122 48.632ZM114.538 43H118.282V51H116.266V48.504H115.546L113.706 51H111.322L113.322 48.264C112.81 48.0507 112.399 47.7147 112.09 47.256C111.791 46.7973 111.642 46.296 111.642 45.752C111.642 45.016 111.909 44.3707 112.442 43.816C112.965 43.272 113.663 43 114.538 43ZM116.266 44.84H114.698C114.399 44.84 114.149 44.9307 113.946 45.112C113.754 45.2933 113.658 45.528 113.658 45.816C113.658 46.104 113.754 46.3333 113.946 46.504C114.149 46.6747 114.399 46.76 114.698 46.76H116.266V44.84ZM130.451 43H132.483V51H130.483V46.328L128.451 49.528H128.195L126.147 46.296V51H124.163V43H126.195L128.323 46.36L130.451 43ZM140.446 43.944V43H142.51V51H140.446V50.056C139.827 50.8347 138.958 51.224 137.838 51.224C136.771 51.224 135.854 50.8187 135.086 50.008C134.329 49.1867 133.95 48.184 133.95 47C133.95 45.8267 134.329 44.8293 135.086 44.008C135.854 43.1867 136.771 42.776 137.838 42.776C138.958 42.776 139.827 43.1653 140.446 43.944ZM136.638 48.632C137.054 49.048 137.582 49.256 138.222 49.256C138.862 49.256 139.39 49.048 139.806 48.632C140.233 48.2053 140.446 47.6613 140.446 47C140.446 46.3387 140.233 45.8 139.806 45.384C139.39 44.9573 138.862 44.744 138.222 44.744C137.582 44.744 137.054 44.9573 136.638 45.384C136.222 45.8 136.014 46.3387 136.014 47C136.014 47.6613 136.222 48.2053 136.638 48.632ZM153.758 49.064V43H155.822V51H144.382V43H146.446V49.064H149.07V43H151.134V49.064H153.758ZM159.726 47.544L163.486 43H165.022V51H163.006V46.456L159.246 51H157.71V43H159.726V47.544ZM172.161 46.024V43H174.225V51H172.161V47.96H168.977V51H166.913V43H168.977V46.024H172.161ZM182.196 43.944V43H184.26V51H182.196V50.056C181.577 50.8347 180.708 51.224 179.588 51.224C178.521 51.224 177.604 50.8187 176.836 50.008C176.079 49.1867 175.7 48.184 175.7 47C175.7 45.8267 176.079 44.8293 176.836 44.008C177.604 43.1867 178.521 42.776 179.588 42.776C180.708 42.776 181.577 43.1653 182.196 43.944ZM178.388 48.632C178.804 49.048 179.332 49.256 179.972 49.256C180.612 49.256 181.14 49.048 181.556 48.632C181.983 48.2053 182.196 47.6613 182.196 47C182.196 46.3387 181.983 45.8 181.556 45.384C181.14 44.9573 180.612 44.744 179.972 44.744C179.332 44.744 178.804 44.9573 178.388 45.384C177.972 45.8 177.764 46.3387 177.764 47C177.764 47.6613 177.972 48.2053 178.388 48.632Z" fill="white"/>
<defs>
<filter id="filter0_d_3702_206" x="0" y="0.259277" width="320" height="125.481" filterUnits="userSpaceOnUse" color-interpolation-filters="sRGB">
<feFlood flood-opacity="0" result="BackgroundImageFix"/>
<feColorMatrix in="SourceAlpha" type="matrix" values="0 0 0 0 0 0 0 0 0 0 0 0 0 0 0 0 0 0 127 0" result="hardAlpha"/>
<feOffset dy="16"/>
<feGaussianBlur stdDeviation="16"/>
<feColorMatrix type="matrix" values="0 0 0 0 0 0 0 0 0 0.691667 0 0 0 0 0.152167 0 0 0 0.3 0"/>
<feBlend mode="normal" in2="BackgroundImageFix" result="effect1_dropShadow_3702_206"/>
<feBlend mode="normal" in="SourceGraphic" in2="effect1_dropShadow_3702_206" result="shape"/>
</filter>
</defs>
</svg>
