<svg width="52" height="52" viewBox="0 0 52 52" fill="none" xmlns="http://www.w3.org/2000/svg">
<path d="M16.6431 23.9672C15.3623 23.5985 14.0816 23.4114 12.8358 23.4114C10.9119 23.4114 9.30667 23.851 8.06194 24.3894C9.26194 19.9962 12.1447 12.4159 17.8872 11.5623C18.4191 11.4832 18.8549 11.0987 19 10.581L20.2551 6.09186C20.3609 5.71222 20.2982 5.30585 20.0816 4.97639C19.8651 4.64693 19.5171 4.42711 19.1271 4.37365C18.7032 4.31583 18.2712 4.28638 17.8431 4.28638C10.9501 4.28638 4.12374 11.481 1.24319 21.7826C-0.447729 27.8263 -0.943549 36.9127 3.22156 42.6318C5.55229 45.832 8.95267 47.541 13.3283 47.7117C13.3463 47.7123 13.3638 47.7128 13.3818 47.7128C18.7807 47.7128 23.5682 44.0768 25.0245 38.8714C25.8945 35.7595 25.5013 32.496 23.9162 29.6798C22.348 26.8952 19.7652 24.8656 16.6431 23.9672Z" fill="#DCDCDC"/>
<path d="M50.4389 29.6804C48.8707 26.8952 46.288 24.8656 43.1658 23.9672C41.885 23.5985 40.6043 23.4114 39.359 23.4114C37.4352 23.4114 35.8294 23.851 34.5846 24.3894C35.7846 19.9962 38.6674 12.4159 44.4105 11.5623C44.9423 11.4832 45.3776 11.0987 45.5232 10.581L46.7783 6.09186C46.8841 5.71222 46.8214 5.30585 46.6049 4.97639C46.3889 4.64693 46.0409 4.42711 45.6503 4.37365C45.227 4.31583 44.795 4.28638 44.3663 4.28638C37.4734 4.28638 30.647 11.481 27.7659 21.7826C26.0755 27.8263 25.5797 36.9126 29.7453 42.6329C32.0755 45.8326 35.4765 47.5421 39.8516 47.7123C39.8696 47.7128 39.887 47.7133 39.9056 47.7133C45.304 47.7133 50.092 44.0773 51.5483 38.8719C52.4172 35.7601 52.0234 32.496 50.4389 29.6804Z" fill="#DCDCDC"/>
</svg>
