<svg width="90" height="57" viewBox="0 0 90 57" fill="none" xmlns="http://www.w3.org/2000/svg">
<path d="M7.31323 15.2045L8.0417 14.6592C10.2571 19.3334 11.1699 28.0358 11.1699 28.0358L9.7185 28.2525C9.7185 28.2525 9.34191 20.1113 7.31323 15.2045Z" fill="white"/>
<path d="M8.01462 12.6108C8.14377 12.8323 8.24207 13.0901 8.28573 13.3779C8.36192 13.8798 8.26423 14.3483 8.0551 14.6887C10.2606 19.3698 11.1699 28.0357 11.1699 28.0357L10.4915 28.1369C10.3268 26.55 9.53737 19.6524 7.88596 15.3136C7.82492 15.1533 7.68786 15.0854 7.5708 15.1378C7.5004 15.1694 7.42605 15.1917 7.34808 15.2034C6.70661 15.2992 6.08012 14.6698 5.92334 13.7909C6.61265 13.3766 7.30664 12.975 8.01462 12.6108Z" fill="white"/>
<path d="M6.99353 13.5602C6.86433 11.3095 7.23385 8.69845 7.39246 7.71321C7.42009 7.5416 7.28587 7.38347 7.16908 7.45102C6.71117 7.71586 5.84809 8.3987 5.57642 9.88021C5.45399 10.5479 5.51825 11.7181 6.99353 13.5602Z" fill="white"/>
<path d="M6.99365 13.5604C9.36629 12.7185 11.5826 13.3265 12.3887 13.6097C12.5006 13.6491 12.5694 13.478 12.4929 13.3541C12.0749 12.677 11.0794 11.3172 9.74934 11.1622C8.81359 11.0532 7.41319 11.4354 6.99365 13.5604Z" fill="white"/>
<path d="M6.99325 13.5581C5.27698 14.8156 4.37662 16.8765 4.03095 17.8386C3.96778 18.0144 3.76907 17.9571 3.73487 17.7544C3.58921 16.8906 3.37946 15.1283 4.05272 14.0819C5.52888 11.7878 6.99325 13.5581 6.99325 13.5581Z" fill="white"/>
<path d="M2.4242 11.187C2.90577 10.6846 3.86429 9.90306 4.92995 10.2401C5.82126 10.522 6.32639 11.2173 6.61438 11.8992C6.54577 10.989 6.6865 9.84313 7.49645 8.82707C8.38871 7.70784 9.56951 7.69249 10.311 7.83858C10.485 7.87287 10.5476 8.18831 10.4034 8.30866C9.6139 8.96731 7.8066 11.3609 6.99354 13.5603C5.68436 12.6086 3.35216 11.6354 2.53376 11.5784C2.38423 11.5679 2.31119 11.305 2.4242 11.187Z" fill="white"/>
<path fill-rule="evenodd" clip-rule="evenodd" d="M63.455 0L46.4115 5.19259L37.801 14.0363L37.8205 14.0427L41.7225 18.0476L46.2775 17.9982L63.455 0Z" fill="white"/>
<path fill-rule="evenodd" clip-rule="evenodd" d="M72.8677 5.56152L72.6126 5.66011L70.8661 6.3376V7.27876L72.7597 9.24692L72.8677 9.35838V5.56152Z" fill="white"/>
<path fill-rule="evenodd" clip-rule="evenodd" d="M75.5549 6.3376L72.8677 5.56152V9.35838L75.5549 12.1498V6.3376Z" fill="white"/>
<path fill-rule="evenodd" clip-rule="evenodd" d="M63.8744 0.861816L62.5021 2.31111L75.3778 15.6056V18.412H80.7778L63.8744 0.861816Z" fill="white"/>
<path fill-rule="evenodd" clip-rule="evenodd" d="M16.624 14.3257L16.8229 14.4051L18.1805 14.9303V15.6614L16.7083 17.1921L16.624 17.2779V14.3257Z" fill="white"/>
<path fill-rule="evenodd" clip-rule="evenodd" d="M14.5359 14.9301L16.6242 14.3276V17.2777L14.5359 19.4474V14.9301Z" fill="white"/>
<path fill-rule="evenodd" clip-rule="evenodd" d="M23.5699 10.7476L24.6422 11.8645L14.6719 22.134L15.113 27.8582L1.89783 30.0858L14.4385 27.1315L13.4678 23.8577H10.8866L23.5699 10.7476Z" fill="white"/>
<path d="M24.6399 19.0918H22.9818V20.7362H24.6399V19.0918Z" fill="white"/>
<path d="M26.8645 19.0918H25.2064V20.7362H26.8645V19.0918Z" fill="white"/>
<path d="M24.6399 21.2808H22.9818V22.923H24.6399V21.2808Z" fill="white"/>
<path d="M26.8645 21.2808H25.2064V22.923H26.8645V21.2808Z" fill="white"/>
<path fill-rule="evenodd" clip-rule="evenodd" d="M71.5616 16.6992V17.4968L75.0296 20.9357V20.301L71.5616 16.6992Z" fill="white"/>
<path fill-rule="evenodd" clip-rule="evenodd" d="M66.4602 11.3926L65.4137 12.4624L74.8977 22.2344L74.4588 27.858L86.6751 30.4306L75.0876 27.2019L75.9675 24.3097H78.8925L66.4602 11.3926Z" fill="white"/>
<path fill-rule="evenodd" clip-rule="evenodd" d="M23.9398 10.0059L37.1873 14.0429L45.573 22.655L53.4787 14.5338L66.0843 10.6941L54.1813 22.8951V24.0036H36.2729V22.8951L23.9398 10.0059Z" fill="white"/>
<path fill-rule="evenodd" clip-rule="evenodd" d="M38.5427 14.03L46.697 5.65367L61.6935 1.08496L46.0485 17.4774L41.9432 17.5225L38.5427 14.03Z" fill="white"/>
<path fill-rule="evenodd" clip-rule="evenodd" d="M36.8023 23.4804V22.685L25.708 11.0928L36.9018 14.5038L45.5728 23.4075L53.7638 14.9969L64.2765 11.7917L53.6536 22.6828V23.4804H36.8023Z" fill="white"/>
<path d="M66.7882 19.3403H65.2126V20.9033H66.7882V19.3403Z" fill="white"/>
<path d="M64.659 19.3403H63.0835V20.9032H64.659V19.3403Z" fill="white"/>
<path d="M66.7882 21.4307H65.2126V22.9936H66.7882V21.4307Z" fill="white"/>
<path d="M64.659 21.4307H63.0835V22.9936H64.659V21.4307Z" fill="white"/>
<path d="M1.90436 31.636C1.9022 31.636 1.89788 31.636 1.89355 31.6382C9.54417 30.1975 17.2402 29.0869 24.9968 28.3858C31.4346 27.8027 37.8854 27.6183 44.3449 27.4683C55.4328 27.2088 66.6718 27.897 77.576 29.9531C80.633 30.5298 83.6682 31.2201 86.6796 31.9898C77.1828 29.8115 67.6103 29.1041 57.8757 28.6946C53.3661 28.5059 48.8609 28.4909 44.3492 28.4887C37.9049 28.6024 31.4692 28.8361 25.0378 29.2734C17.2813 29.8437 9.5831 30.3968 1.90436 31.636Z" fill="white"/>
<path d="M5.62925 46.2172C4.13968 46.2172 2.97343 45.7878 2.1305 44.9289C1.29912 44.07 0.883423 42.8676 0.883423 41.3217C0.883423 39.8215 1.21251 38.4645 1.87069 37.2506C2.54042 36.0253 3.44109 35.0634 4.5727 34.3649C5.70432 33.6663 6.9514 33.317 8.31393 33.317C9.14532 33.317 9.79771 33.4487 10.2712 33.7121C10.7446 33.9755 10.9813 34.3419 10.9813 34.8115C10.9813 35.2008 10.8254 35.5329 10.5136 35.8078C10.2019 36.0712 9.81503 36.2028 9.35317 36.2028C8.26776 36.2028 7.48255 35.7276 6.99757 34.7771C6.247 35.0977 5.57729 35.5844 4.98839 36.2372C4.39949 36.8899 3.93761 37.6687 3.60275 38.5733C3.26788 39.4665 3.10045 40.4285 3.10045 41.4591C3.10045 42.5699 3.31984 43.4402 3.75863 44.0701C4.19742 44.6999 4.80364 45.0148 5.57729 45.0148C6.46643 45.0148 7.19389 44.6999 7.75968 44.0701C8.33705 43.4402 8.66034 42.6386 8.72963 41.6652C9.67646 41.6652 10.1499 42.0603 10.1499 42.8505C10.1499 43.4574 9.94206 44.0185 9.52637 44.5338C9.12221 45.0492 8.57374 45.4614 7.88092 45.7706C7.1881 46.0684 6.43752 46.2172 5.62925 46.2172ZM14.0373 46.2172C13.3214 46.2172 12.9634 45.7649 12.9634 44.8602C12.9634 44.2991 13.1481 42.8275 13.5177 40.4456C13.8987 38.0637 14.2625 35.9394 14.6089 34.0728L13.8468 33.214C14.1124 32.9849 14.4299 32.8075 14.7994 32.6815C15.1804 32.5441 15.5269 32.4754 15.8386 32.4754C16.1619 32.4754 16.3929 32.5498 16.5314 32.6987C16.67 32.8361 16.7393 33.0766 16.7393 33.4201C16.7393 33.6148 16.67 34.0442 16.5314 34.7084C16.3929 35.3611 16.3063 35.7848 16.2716 35.9795C15.8906 37.8232 15.5788 39.4608 15.3363 40.8922C15.1054 42.3122 14.9899 43.5777 14.9899 44.6884C14.9899 44.906 15.0188 45.1121 15.0765 45.3068C15.1458 45.49 15.2324 45.6332 15.3363 45.7363C14.9784 46.0569 14.5454 46.2172 14.0373 46.2172ZM28.2574 37.9377C28.2574 39.1172 27.6454 40.0448 26.4215 40.7205C25.209 41.3846 23.477 41.7454 21.2253 41.8026V42.129C21.2253 43.0452 21.3985 43.7666 21.7449 44.2934C22.0913 44.8087 22.5648 45.0663 23.1652 45.0663C23.9158 45.0663 24.5277 44.8316 25.0012 44.3621C25.4746 43.8925 25.7344 43.2685 25.7806 42.4897C26.7159 42.4897 27.1836 42.8333 27.1836 43.5204C27.1836 43.9784 26.9988 44.4193 26.6293 44.843C26.2598 45.2553 25.7518 45.5874 25.1051 45.8393C24.47 46.0912 23.7656 46.2172 22.992 46.2172C21.768 46.2172 20.8096 45.8451 20.1168 45.1007C19.424 44.3563 19.0776 43.3314 19.0776 42.0259C19.0776 40.7892 19.3489 39.6727 19.8916 38.6764C20.4344 37.6801 21.1849 36.9014 22.1433 36.3403C23.1017 35.7677 24.1698 35.4814 25.3476 35.4814C26.2598 35.4814 26.9699 35.6989 27.478 36.1341C27.9976 36.5693 28.2574 37.1705 28.2574 37.9377ZM25.0531 36.5636C24.4642 36.5636 23.91 36.7525 23.3904 37.1304C22.8823 37.4969 22.4435 38.0065 22.074 38.6592C21.7161 39.3005 21.4678 40.0276 21.3292 40.8407C22.9227 40.8064 24.1583 40.5315 25.0358 40.0162C25.925 39.5009 26.3695 38.7909 26.3695 37.8862C26.3695 37.4854 26.2483 37.1648 26.0058 36.9243C25.7633 36.6838 25.4457 36.5636 25.0531 36.5636ZM39.1935 44.843C39.1935 45.2439 39.2974 45.5416 39.5053 45.7363C39.1473 46.0569 38.7605 46.2172 38.3448 46.2172C37.9522 46.2172 37.652 46.097 37.4441 45.8565C37.2363 45.616 37.1324 45.2667 37.1324 44.8087C37.1324 44.5568 37.1727 44.2132 37.2536 43.778L37.0804 43.6921C36.6647 44.4937 36.1393 45.1179 35.5042 45.5645C34.8807 45.9997 34.1994 46.2172 33.4604 46.2172C32.8369 46.2172 32.2826 46.0512 31.7976 45.7191C31.3242 45.387 30.9547 44.9175 30.6891 44.3105C30.435 43.6921 30.3081 42.9821 30.3081 42.1805C30.3081 40.9438 30.6025 39.8158 31.1914 38.7966C31.7803 37.766 32.5828 36.9586 33.599 36.3746C34.6151 35.7791 35.7351 35.4814 36.9591 35.4814C37.4903 35.4814 38.033 35.5272 38.5873 35.6188C38.6681 35.7562 38.7316 35.9394 38.7778 36.1685C39.0203 35.9967 39.2974 35.9108 39.6092 35.9108C39.8978 35.9108 40.123 35.9795 40.2847 36.1169C40.4579 36.2544 40.5445 36.4433 40.5445 36.6838C40.5445 36.9472 40.5041 37.2621 40.4233 37.6286C40.354 37.995 40.2327 38.5332 40.0595 39.2432C39.7824 40.3998 39.5688 41.4018 39.4187 42.2493C39.2685 43.0967 39.1935 43.9612 39.1935 44.843ZM34.2918 44.6025C35.3657 44.6025 36.249 43.9269 36.9418 42.5756C37.6346 41.2129 38.1543 39.1631 38.5007 36.4261C37.2536 36.4605 36.1681 36.7353 35.2444 37.2506C34.3322 37.7545 33.6336 38.4301 33.1486 39.2776C32.6752 40.125 32.4385 41.0755 32.4385 42.129C32.4385 42.9077 32.6001 43.5146 32.9235 43.9498C33.2468 44.385 33.7029 44.6025 34.2918 44.6025ZM44.9274 46.2172C44.5232 46.2172 44.223 46.1199 44.0267 45.9252C43.842 45.7305 43.7496 45.4213 43.7496 44.9976C43.7496 44.4937 43.8997 43.4574 44.1999 41.8885C44.5117 40.3082 44.8639 38.7451 45.2565 37.1991L44.477 36.3403C44.7542 36.0998 45.0775 35.9051 45.447 35.7562C45.828 35.6074 46.1687 35.5329 46.4689 35.5329C46.8153 35.5329 47.0578 35.6016 47.1964 35.739C47.3349 35.8765 47.4042 36.1227 47.4042 36.4777C47.4042 36.7754 47.3522 37.1132 47.2483 37.4911C47.1559 37.869 47.0289 38.2183 46.8673 38.5389L47.0405 38.6248C48.2067 36.5292 49.7194 35.4814 51.5785 35.4814C52.329 35.4814 52.8833 35.6703 53.2412 36.0482C53.6108 36.4147 53.7955 36.9872 53.7955 37.766C53.7955 38.224 53.7435 38.6993 53.6396 39.1917C53.5472 39.6841 53.4086 40.3025 53.2239 41.0468C53.0045 41.9171 52.8429 42.6329 52.7389 43.194C52.635 43.7437 52.583 44.2934 52.583 44.843C52.583 45.2553 52.6581 45.553 52.8082 45.7363C52.4618 46.0569 52.0923 46.2172 51.6997 46.2172C51.3071 46.2172 51.0127 46.1199 50.8164 45.9252C50.6316 45.7305 50.5392 45.4213 50.5392 44.9976C50.5392 44.5624 50.5854 44.0758 50.6778 43.5375C50.7817 42.9879 50.9261 42.2779 51.1108 41.4076C51.284 40.6861 51.411 40.0849 51.4919 39.6039C51.5843 39.1115 51.6304 38.6878 51.6304 38.3328C51.6304 37.4052 51.2782 36.9415 50.5739 36.9415C49.754 36.9415 48.9746 37.3308 48.2356 38.1095C47.5081 38.8767 46.9192 39.873 46.4689 41.0984C46.0301 42.3237 45.8107 43.5719 45.8107 44.843C45.8107 45.2667 45.88 45.5645 46.0186 45.7363C45.6722 46.0569 45.3084 46.2172 44.9274 46.2172ZM63.7341 44.0529C63.8382 44.3621 63.89 44.614 63.89 44.8087C63.89 45.2896 63.694 45.6446 63.3013 45.8737C62.9087 46.1027 62.2966 46.2172 61.4651 46.2172C60.7495 46.2172 60.0394 46.1256 59.3349 45.9424C58.9189 46.1371 58.5324 46.2344 58.1742 46.2344C57.7471 46.2344 57.4352 46.1256 57.2392 45.908C57.0426 45.6905 56.9445 45.3354 56.9445 44.843C56.9445 44.1674 57.037 43.1482 57.2219 41.7855C57.4062 40.4113 57.7588 38.1782 58.2784 35.0863L57.7415 34.0385C58.5151 33.5575 59.2018 33.317 59.8027 33.317C60.3106 33.317 60.5646 33.6205 60.5646 34.2274C60.5646 34.3878 60.3969 35.4642 60.0622 37.4568C59.7275 39.5524 59.4791 41.1098 59.3176 42.129C59.1672 43.1482 59.0921 43.8639 59.0921 44.2762C59.0921 44.3792 59.0982 44.4537 59.1099 44.4995H61.8461C62.5389 44.4193 63.1682 44.2704 63.7341 44.0529ZM68.982 34.0213C68.6122 34.0213 68.3176 33.9354 68.0987 33.7637C67.8793 33.5804 67.7696 33.34 67.7696 33.0422C67.7696 32.6987 67.9138 32.4009 68.2023 32.149C68.4908 31.8856 68.8606 31.7539 69.3112 31.7539C69.6921 31.7539 69.9862 31.8455 70.1945 32.0287C70.4139 32.2005 70.5236 32.4296 70.5236 32.7158C70.5236 33.0823 70.3788 33.3915 70.0903 33.6434C69.8018 33.8953 69.432 34.0213 68.982 34.0213ZM67.4405 46.2172C67.0478 46.2172 66.7532 46.1199 66.5572 45.9252C66.3606 45.7305 66.2625 45.4213 66.2625 44.9976C66.2625 44.5281 66.3723 43.6921 66.5917 42.4897C66.8223 41.2873 67.2093 39.478 67.7523 37.0617L66.9899 36.2028C67.2672 35.9853 67.5847 35.8135 67.9428 35.6875C68.312 35.5501 68.6468 35.4814 68.9469 35.4814C69.2934 35.4814 69.5362 35.5558 69.6749 35.7047C69.8247 35.8421 69.8999 36.0826 69.8999 36.4261C69.8999 36.5178 69.7901 37.0102 69.5707 37.9034C69.2126 39.3577 68.9124 40.6747 68.6702 41.8542C68.439 43.0337 68.3237 44.03 68.3237 44.843C68.3237 45.2782 68.4273 45.5817 68.6356 45.7534C68.2541 46.0626 67.8559 46.2172 67.4405 46.2172ZM77.3076 34.8115C76.7651 34.8115 76.309 34.6511 75.9392 34.3305L75.766 34.4507L76.4939 37.7316C77.1405 37.6171 77.7002 37.4854 78.1736 37.3365C78.2544 37.5197 78.295 37.7087 78.295 37.9034C78.295 38.2584 78.1335 38.5389 77.8099 38.7451C77.4981 38.9398 77.0943 39.0485 76.5975 39.0714C76.1475 40.7434 75.7777 42.4268 75.4892 44.1216C75.2002 45.805 75.0559 47.0475 75.0559 47.8491C75.0559 48.2842 75.1829 48.5877 75.4369 48.7595C74.9406 49.0687 74.5073 49.2232 74.1381 49.2232C73.78 49.2232 73.4971 49.103 73.2893 48.8625C73.0933 48.6335 72.9947 48.3071 72.9947 47.8834C72.9947 47.3452 73.1106 46.4405 73.3411 45.1694C73.584 43.8983 73.9822 41.9286 74.5363 39.2604C73.9476 39.352 73.428 39.4723 72.9775 39.6211C72.8967 39.4379 72.8566 39.249 72.8566 39.0543C72.8566 38.6649 73.0298 38.3786 73.3762 38.1954C73.7338 38.0007 74.1899 37.8976 74.744 37.8862C74.6521 36.9014 74.6059 36.094 74.6059 35.4642C74.6059 34.3534 74.8309 33.5461 75.2815 33.0422C75.7315 32.5269 76.3263 32.2692 77.0653 32.2692C77.527 32.2692 77.908 32.3952 78.2081 32.6471C78.5089 32.8876 78.6587 33.1968 78.6587 33.5747C78.6587 33.9412 78.5317 34.2389 78.2778 34.4679C78.0238 34.697 77.7002 34.8115 77.3076 34.8115ZM89.2175 37.9377C89.2175 39.1172 88.6055 40.0448 87.3819 40.7205C86.1695 41.3846 84.4374 41.7454 82.1857 41.8026V42.129C82.1857 43.0452 82.3589 43.7666 82.7054 44.2934C83.0518 44.8087 83.5252 45.0663 84.1255 45.0663C84.8757 45.0663 85.4878 44.8316 85.9612 44.3621C86.4346 43.8925 86.6946 43.2685 86.7409 42.4897C87.676 42.4897 88.1438 42.8333 88.1438 43.5204C88.1438 43.9784 87.9589 44.4193 87.5896 44.843C87.2198 45.2553 86.7119 45.5874 86.0653 45.8393C85.4304 46.0912 84.7259 46.2172 83.9523 46.2172C82.7282 46.2172 81.7697 45.8451 81.0769 45.1007C80.3841 44.3563 80.0377 43.3314 80.0377 42.0259C80.0377 40.7892 80.3089 39.6727 80.8519 38.6764C81.3943 37.6801 82.1451 36.9014 83.1036 36.3403C84.062 35.7677 85.1302 35.4814 86.3076 35.4814C87.2198 35.4814 87.9299 35.6989 88.4384 36.1341C88.958 36.5693 89.2175 37.1705 89.2175 37.9377ZM86.0135 36.5636C85.4243 36.5636 84.8701 36.7525 84.3505 37.1304C83.8426 37.4969 83.4037 38.0065 83.034 38.6592C82.6764 39.3005 82.428 40.0276 82.2893 40.8407C83.8827 40.8064 85.1185 40.5315 85.9963 40.0162C86.8851 39.5009 87.3296 38.7909 87.3296 37.8862C87.3296 37.4854 87.2087 37.1648 86.9659 36.9243C86.7236 36.6838 86.4062 36.5636 86.0135 36.5636Z" fill="white"/>
<path d="M3.22822 54.6252V53.3745C3.13481 53.4154 3.02216 53.4522 2.89027 53.4849C2.76114 53.5176 2.61689 53.5339 2.45754 53.5339C2.13333 53.5339 1.8943 53.4645 1.74044 53.3255C1.58657 53.1838 1.50964 52.9603 1.50964 52.6552V51.7233H1.78989V52.6225C1.78989 52.8487 1.84484 53.0135 1.95474 53.117C2.06739 53.2206 2.24873 53.2724 2.49875 53.2724C2.63888 53.2724 2.77488 53.2574 2.90676 53.2274C3.03864 53.1974 3.14579 53.1606 3.22822 53.117V51.7233H3.50847V54.6252H3.22822ZM5.54255 54.6252V52.4999H5.82279V54.2492L7.12924 52.4958H7.38064V54.6252H7.10039V52.9045L5.81455 54.6252H5.54255ZM10.2851 54.6661C10.0763 54.6661 9.89084 54.6157 9.72877 54.5149C9.56665 54.4113 9.43889 54.2764 9.34549 54.1102C9.25204 53.9413 9.20537 53.756 9.20537 53.5544C9.20537 53.3527 9.2507 53.1702 9.34137 53.0067C9.43204 52.8405 9.55841 52.7083 9.72053 52.6102C9.8826 52.5094 10.0694 52.459 10.281 52.459C10.4816 52.459 10.6574 52.5053 10.8085 52.598C10.9624 52.6879 11.0778 52.8105 11.1547 52.9658L10.8827 53.0516C10.8222 52.9427 10.7371 52.8582 10.6272 52.7982C10.5201 52.7356 10.4005 52.7042 10.2687 52.7042C10.123 52.7042 9.99114 52.741 9.87302 52.8146C9.75762 52.8882 9.66417 52.9903 9.59277 53.1211C9.52404 53.2492 9.48974 53.3936 9.48974 53.5544C9.48974 53.7152 9.52544 53.8609 9.59689 53.9917C9.66829 54.1225 9.76308 54.2274 9.88126 54.3064C9.99938 54.3827 10.1299 54.4209 10.2728 54.4209C10.3662 54.4209 10.4568 54.4045 10.5448 54.3718C10.6327 54.3391 10.7082 54.2955 10.7715 54.241C10.8346 54.1838 10.8772 54.1225 10.8992 54.0571L11.1753 54.1388C11.1369 54.2396 11.0736 54.3309 10.9858 54.4127C10.8978 54.4917 10.7934 54.5544 10.6725 54.6007C10.5516 54.6443 10.4225 54.6661 10.2851 54.6661ZM13.5114 54.6252V52.7451H12.7448V52.4958H14.5582V52.7451H13.7916V54.6252H13.5114ZM17.2146 54.6661C17.0085 54.6661 16.8245 54.6157 16.6623 54.5149C16.503 54.4141 16.378 54.2805 16.2873 54.1143C16.1966 53.9454 16.1513 53.7628 16.1513 53.5666C16.1513 53.3677 16.1966 53.1851 16.2873 53.019C16.3808 52.85 16.5071 52.7151 16.6665 52.6143C16.8286 52.5108 17.0113 52.459 17.2146 52.459C17.4207 52.459 17.6034 52.5108 17.7627 52.6143C17.9248 52.7151 18.0512 52.85 18.1419 53.019C18.2353 53.1851 18.282 53.3677 18.282 53.5666C18.282 53.7628 18.2367 53.9454 18.146 54.1143C18.0553 54.2805 17.929 54.4141 17.7668 54.5149C17.6075 54.6157 17.4234 54.6661 17.2146 54.6661ZM16.4357 53.5707C16.4357 53.7287 16.47 53.8732 16.5387 54.004C16.6102 54.1321 16.7049 54.2342 16.8231 54.3105C16.9412 54.3841 17.0717 54.4209 17.2146 54.4209C17.3575 54.4209 17.488 54.3827 17.6061 54.3064C17.7243 54.2301 17.8191 54.1266 17.8905 53.9958C17.9619 53.865 17.9976 53.7206 17.9976 53.5625C17.9976 53.4045 17.9619 53.2601 17.8905 53.1293C17.8191 52.9985 17.7243 52.895 17.6061 52.8187C17.488 52.7424 17.3575 52.7042 17.2146 52.7042C17.0745 52.7042 16.9454 52.7437 16.8272 52.8228C16.7091 52.899 16.6143 53.0026 16.5428 53.1334C16.4714 53.2642 16.4357 53.4099 16.4357 53.5707ZM20.6465 54.6252V52.7451H19.8799V52.4958H21.6933V52.7451H20.9268V54.6252H20.6465ZM23.2497 54.0121C23.2497 53.8814 23.2881 53.7683 23.3651 53.6729C23.442 53.5748 23.5478 53.4985 23.6824 53.444C23.8198 53.3895 23.9777 53.3623 24.1563 53.3623C24.2608 53.3623 24.3693 53.3718 24.4819 53.3909C24.5946 53.4072 24.6948 53.4304 24.7828 53.4604V53.2805C24.7828 53.1007 24.7292 52.9576 24.622 52.8514C24.5149 52.7451 24.3665 52.692 24.1769 52.692C24.0643 52.692 23.9517 52.7138 23.839 52.7574C23.7263 52.7982 23.6096 52.8596 23.4887 52.9413L23.3815 52.7451C23.5217 52.6497 23.6591 52.5789 23.7937 52.5326C23.9283 52.4835 24.0657 52.459 24.2058 52.459C24.4696 52.459 24.6784 52.534 24.8322 52.6838C24.9861 52.8336 25.063 53.0408 25.063 53.3051V54.2901C25.063 54.3636 25.0974 54.4018 25.1661 54.4045V54.6252C25.1056 54.6334 25.063 54.6361 25.0383 54.6334C24.9696 54.6307 24.9174 54.6089 24.8817 54.568C24.846 54.5271 24.8267 54.4835 24.824 54.4372L24.8199 54.2819C24.7237 54.4045 24.5987 54.4999 24.4448 54.568C24.291 54.6334 24.1343 54.6661 23.975 54.6661C23.8349 54.6661 23.7099 54.6375 23.6 54.5803C23.4901 54.5203 23.4035 54.4413 23.3403 54.3432C23.2799 54.2424 23.2497 54.1321 23.2497 54.0121ZM24.688 54.1756C24.7512 54.1021 24.7828 54.034 24.7828 53.9713V53.6606C24.5932 53.5871 24.3954 53.5503 24.1893 53.5503C23.9888 53.5503 23.8266 53.5898 23.703 53.6688C23.5794 53.7479 23.5175 53.8554 23.5175 53.9917C23.5175 54.1089 23.5629 54.2151 23.6535 54.3105C23.7469 54.4059 23.8761 54.4536 24.0409 54.4536C24.1756 54.4536 24.3006 54.4277 24.416 54.3759C24.5341 54.3241 24.6248 54.2574 24.688 54.1756ZM29.3978 53.6402V53.3827H30.6013V53.6402H29.3978ZM35.5705 54.6497C35.3727 54.6497 35.2023 54.613 35.0595 54.5394C34.9194 54.4631 34.8135 54.3568 34.7421 54.2206L34.9729 54.1184C35.0251 54.2138 35.1007 54.2887 35.1996 54.3432C35.2985 54.395 35.418 54.4209 35.5582 54.4209C35.7257 54.4209 35.859 54.3827 35.9579 54.3064C36.0596 54.2301 36.1104 54.128 36.1104 53.9999C36.1104 53.8854 36.0705 53.7914 35.9909 53.7179C35.9112 53.6443 35.8013 53.6075 35.6612 53.6075H35.4428V53.4154H35.6777C35.7683 53.4154 35.8439 53.3813 35.9044 53.3132C35.9675 53.2424 35.9991 53.1552 35.9991 53.0516C35.9991 52.9454 35.9607 52.8596 35.8837 52.7942C35.8096 52.7288 35.6996 52.6961 35.554 52.6961C35.3177 52.6961 35.1515 52.7901 35.0554 52.9781L34.8411 52.8636C34.9042 52.7383 34.9977 52.6402 35.1213 52.5694C35.2449 52.4985 35.3919 52.4631 35.5623 52.4631C35.7656 52.4631 35.9318 52.5135 36.061 52.6143C36.1901 52.7124 36.2547 52.8487 36.2547 53.023C36.2547 53.1238 36.2299 53.2178 36.1805 53.3051C36.131 53.3923 36.0623 53.4563 35.9744 53.4972C36.1008 53.538 36.1983 53.6061 36.267 53.7015C36.3384 53.7941 36.3742 53.9045 36.3742 54.0326C36.3742 54.2261 36.2986 54.3773 36.1475 54.4863C35.9964 54.5952 35.804 54.6497 35.5705 54.6497ZM38.0308 54.0121C38.0308 53.8814 38.0692 53.7683 38.1462 53.6729C38.2231 53.5748 38.3288 53.4985 38.4635 53.444C38.6008 53.3895 38.7588 53.3623 38.9375 53.3623C39.0418 53.3623 39.1504 53.3718 39.263 53.3909C39.3756 53.4072 39.4759 53.4304 39.5639 53.4604V53.2805C39.5639 53.1007 39.5103 52.9576 39.4032 52.8514C39.296 52.7451 39.1476 52.692 38.9581 52.692C38.8454 52.692 38.7327 52.7138 38.6201 52.7574C38.5074 52.7982 38.3907 52.8596 38.2698 52.9413L38.1626 52.7451C38.3028 52.6497 38.4401 52.5789 38.5748 52.5326C38.7094 52.4835 38.8468 52.459 38.9869 52.459C39.2507 52.459 39.4595 52.534 39.6133 52.6838C39.7672 52.8336 39.8441 53.0408 39.8441 53.3051V54.2901C39.8441 54.3636 39.8784 54.4018 39.9472 54.4045V54.6252C39.8867 54.6334 39.8441 54.6361 39.8194 54.6334C39.7507 54.6307 39.6985 54.6089 39.6628 54.568C39.627 54.5271 39.6078 54.4835 39.6051 54.4372L39.601 54.2819C39.5048 54.4045 39.3798 54.4999 39.2259 54.568C39.0721 54.6334 38.9155 54.6661 38.7561 54.6661C38.616 54.6661 38.491 54.6375 38.3811 54.5803C38.2711 54.5203 38.1846 54.4413 38.1214 54.3432C38.061 54.2424 38.0308 54.1321 38.0308 54.0121ZM39.4691 54.1756C39.5323 54.1021 39.5639 54.034 39.5639 53.9713V53.6606C39.3743 53.5871 39.1765 53.5503 38.9704 53.5503C38.7698 53.5503 38.6077 53.5898 38.4841 53.6688C38.3605 53.7479 38.2986 53.8554 38.2986 53.9917C38.2986 54.1089 38.344 54.2151 38.4347 54.3105C38.528 54.4059 38.6572 54.4536 38.8221 54.4536C38.9567 54.4536 39.0817 54.4277 39.1971 54.3759C39.3152 54.3241 39.4059 54.2574 39.4691 54.1756ZM41.6036 54.6375V54.3841C41.675 54.3841 41.7396 54.365 41.7973 54.3269C41.8577 54.2887 41.91 54.222 41.9539 54.1266C42.0006 54.0312 42.0377 53.8991 42.0652 53.7301C42.0926 53.5612 42.1105 53.3473 42.1188 53.0884L42.1435 52.4958H43.5365V54.6252H43.2562V52.7451H42.3908L42.3825 53.113C42.3688 53.508 42.3317 53.816 42.2712 54.0367C42.2108 54.2574 42.1243 54.4127 42.0116 54.5026C41.9017 54.5898 41.7657 54.6348 41.6036 54.6375ZM46.431 54.6661C46.2249 54.6661 46.0409 54.6157 45.8788 54.5149C45.7194 54.4141 45.5944 54.2805 45.5037 54.1143C45.4131 53.9454 45.3677 53.7628 45.3677 53.5666C45.3677 53.3677 45.4131 53.1851 45.5037 53.019C45.5971 52.85 45.7235 52.7151 45.8829 52.6143C46.045 52.5108 46.2277 52.459 46.431 52.459C46.6371 52.459 46.8198 52.5108 46.9791 52.6143C47.1413 52.7151 47.2676 52.85 47.3583 53.019C47.4517 53.1851 47.4984 53.3677 47.4984 53.5666C47.4984 53.7628 47.4531 53.9454 47.3624 54.1143C47.2718 54.2805 47.1454 54.4141 46.9833 54.5149C46.8239 54.6157 46.6398 54.6661 46.431 54.6661ZM45.6521 53.5707C45.6521 53.7287 45.6864 53.8732 45.7551 54.004C45.8266 54.1321 45.9214 54.2342 46.0395 54.3105C46.1576 54.3841 46.2882 54.4209 46.431 54.4209C46.5739 54.4209 46.7044 54.3827 46.8225 54.3064C46.9407 54.2301 47.0354 54.1266 47.1069 53.9958C47.1784 53.865 47.2141 53.7206 47.2141 53.5625C47.2141 53.4045 47.1784 53.2601 47.1069 53.1293C47.0354 52.9985 46.9407 52.895 46.8225 52.8187C46.7044 52.7424 46.5739 52.7042 46.431 52.7042C46.2909 52.7042 46.1617 52.7437 46.0436 52.8228C45.9255 52.899 45.8307 53.0026 45.7592 53.1334C45.6878 53.2642 45.6521 53.4099 45.6521 53.5707ZM49.323 54.6252V52.4958H50.6048V52.7451H49.6033V54.6252H49.323ZM55.7527 54.6661C55.4067 54.6661 55.1443 54.5612 54.9657 54.3514C54.7899 54.1388 54.7019 53.8459 54.7019 53.4726C54.7019 53.2083 54.7239 52.9849 54.7679 52.8023C54.8118 52.6198 54.8764 52.4686 54.9616 52.3487C55.0467 52.2287 55.1512 52.132 55.2748 52.0585C55.4012 51.9822 55.5454 51.9195 55.7076 51.8705L56.6104 51.5762L56.6349 51.8173L55.7655 52.0993C55.6004 52.1566 55.4616 52.226 55.349 52.3078C55.2391 52.3895 55.1525 52.4972 55.0893 52.6307C55.0289 52.7615 54.9904 52.929 54.9739 53.1334C55.0426 52.9754 55.1511 52.8541 55.2995 52.7696C55.4506 52.6824 55.6237 52.6388 55.819 52.6388C56.0278 52.6388 56.2049 52.6811 56.3503 52.7655C56.499 52.85 56.6115 52.9672 56.6883 53.117C56.7652 53.2669 56.8036 53.4399 56.8036 53.6361C56.8036 53.9467 56.7134 54.1961 56.5318 54.3841C56.3531 54.5721 56.0935 54.6661 55.7527 54.6661ZM55.7527 54.4209C55.9972 54.4209 56.1854 54.3514 56.3174 54.2124C56.4522 54.0707 56.5196 53.8827 56.5196 53.6484C56.5196 53.4195 56.4533 53.2329 56.3219 53.0884C56.1899 52.944 56 52.8718 55.7527 52.8718C55.61 52.8718 55.4809 52.9018 55.3655 52.9617C55.2501 53.0217 55.158 53.1089 55.0893 53.2233C55.0234 53.3378 54.9904 53.4794 54.9904 53.6484C54.9904 53.8718 55.055 54.0571 55.1841 54.2042C55.316 54.3487 55.5056 54.4209 55.7527 54.4209ZM58.4293 54.6375V54.3841C58.5006 54.3841 58.5652 54.365 58.6231 54.3269C58.6833 54.2887 58.7356 54.222 58.7796 54.1266C58.8264 54.0312 58.8632 53.8991 58.891 53.7301C58.9183 53.5612 58.9361 53.3473 58.9445 53.0884L58.969 52.4958H60.3619V54.6252H60.0817V52.7451H59.2162L59.2079 53.113C59.1945 53.508 59.1572 53.816 59.0971 54.0367C59.0364 54.2574 58.95 54.4127 58.837 54.5026C58.7273 54.5898 58.5914 54.6348 58.4293 54.6375ZM63.2568 54.6661C63.0507 54.6661 62.8664 54.6157 62.7043 54.5149C62.545 54.4141 62.4203 54.2805 62.3295 54.1143C62.2387 53.9454 62.1936 53.7628 62.1936 53.5666C62.1936 53.3677 62.2387 53.1851 62.3295 53.019C62.4225 52.85 62.5489 52.7151 62.7088 52.6143C62.8708 52.5108 63.0535 52.459 63.2568 52.459C63.4628 52.459 63.6455 52.5108 63.8048 52.6143C63.9669 52.7151 64.0933 52.85 64.1841 53.019C64.2771 53.1851 64.3239 53.3677 64.3239 53.5666C64.3239 53.7628 64.2788 53.9454 64.188 54.1143C64.0972 54.2805 63.9708 54.4141 63.8087 54.5149C63.6494 54.6157 63.4656 54.6661 63.2568 54.6661ZM62.4776 53.5707C62.4776 53.7287 62.5122 53.8732 62.5807 54.004C62.652 54.1321 62.7472 54.2342 62.8653 54.3105C62.9833 54.3841 63.1137 54.4209 63.2568 54.4209C63.3994 54.4209 63.5302 54.3827 63.6483 54.3064C63.7664 54.2301 63.861 54.1266 63.9323 53.9958C64.0042 53.865 64.0398 53.7206 64.0398 53.5625C64.0398 53.4045 64.0042 53.2601 63.9323 53.1293C63.861 52.9985 63.7664 52.895 63.6483 52.8187C63.5302 52.7424 63.3994 52.7042 63.2568 52.7042C63.1164 52.7042 62.9872 52.7437 62.8692 52.8228C62.7511 52.899 62.6564 53.0026 62.5851 53.1334C62.5133 53.2642 62.4776 53.4099 62.4776 53.5707ZM66.1489 54.6252V52.4958H67.4304V52.7451H66.4291V54.6252H66.1489ZM70.4111 54.6252V53.7342C70.2379 53.816 70.043 53.8568 69.8258 53.8568C69.3507 53.8568 69.1129 53.613 69.1129 53.1252V52.4958H69.393V53.0884C69.393 53.2792 69.4315 53.4181 69.5089 53.5053C69.5885 53.5925 69.715 53.6361 69.8876 53.6361C69.9867 53.6361 70.0831 53.6252 70.1761 53.6034C70.2724 53.5816 70.351 53.553 70.4111 53.5176V52.4958H70.6913V54.6252H70.4111ZM73.5956 54.6661C73.3896 54.6661 73.2052 54.6157 73.0432 54.5149C72.8811 54.4141 72.7536 54.2792 72.66 54.1102C72.5664 53.9413 72.5197 53.756 72.5197 53.5544C72.5197 53.3555 72.5653 53.1729 72.6555 53.0067C72.7491 52.8405 72.8772 52.7083 73.0393 52.6102C73.2013 52.5094 73.3851 52.459 73.5912 52.459C73.8028 52.459 73.9883 52.5094 74.1476 52.6102C74.3068 52.711 74.4305 52.8446 74.5185 53.0108C74.6093 53.1743 74.6544 53.3541 74.6544 53.5503C74.6544 53.5939 74.6533 53.6307 74.6505 53.6606H72.8126C72.826 53.8132 72.87 53.9495 72.944 54.0694C73.0187 54.1865 73.1133 54.2805 73.2286 54.3514C73.3439 54.4195 73.4703 54.4536 73.6079 54.4536C73.7477 54.4536 73.8797 54.4182 74.0033 54.3473C74.127 54.2764 74.215 54.1838 74.2673 54.0694L74.5101 54.1348C74.4661 54.2383 74.3976 54.3309 74.3041 54.4127C74.2138 54.4917 74.108 54.5544 73.9872 54.6007C73.8663 54.6443 73.7354 54.6661 73.5956 54.6661ZM72.8042 53.4604H74.3909C74.3798 53.3078 74.3375 53.1729 74.2628 53.0557C74.1888 52.9358 74.0941 52.8432 73.9788 52.7778C73.8635 52.7097 73.7354 52.6756 73.5956 52.6756C73.4553 52.6756 73.3278 52.7097 73.2119 52.7778C73.0966 52.8432 73.002 52.9358 72.9279 53.0557C72.8566 53.1729 72.8154 53.3078 72.8042 53.4604ZM77.3783 54.6661C77.1695 54.6661 76.984 54.6157 76.8219 54.5149C76.6599 54.4113 76.5323 54.2764 76.4388 54.1102C76.3452 53.9413 76.2984 53.756 76.2984 53.5544C76.2984 53.3527 76.3441 53.1702 76.4349 53.0067C76.5251 52.8405 76.6515 52.7083 76.8136 52.6102C76.9757 52.5094 77.1628 52.459 77.3744 52.459C77.5749 52.459 77.7509 52.5053 77.9018 52.598C78.0555 52.6879 78.1708 52.8105 78.2482 52.9658L77.9759 53.0516C77.9158 52.9427 77.8305 52.8582 77.7203 52.7982C77.6133 52.7356 77.4936 52.7042 77.3622 52.7042C77.2162 52.7042 77.0843 52.741 76.9662 52.8146C76.8509 52.8882 76.7573 52.9903 76.6861 53.1211C76.6175 53.2492 76.583 53.3936 76.583 53.5544C76.583 53.7152 76.6187 53.8609 76.6899 53.9917C76.7618 54.1225 76.8565 54.2274 76.9745 54.3064C77.0926 54.3827 77.2229 54.4209 77.3661 54.4209C77.4596 54.4209 77.5499 54.4045 77.6378 54.3718C77.7258 54.3391 77.8016 54.2955 77.8645 54.241C77.928 54.1838 77.9703 54.1225 77.9926 54.0571L78.2689 54.1388C78.2299 54.2396 78.1669 54.3309 78.0789 54.4127C77.9909 54.4917 77.8868 54.5544 77.7659 54.6007C77.6451 54.6443 77.5159 54.6661 77.3783 54.6661ZM80.6046 54.6252V52.7451H79.8383V52.4958H81.6516V52.7451H80.8848V54.6252H80.6046ZM83.3887 54.6252V52.4999H83.6688V54.2492L84.9754 52.4958H85.2271V54.6252H84.9464V52.9045L83.6611 54.6252H83.3887ZM87.0394 54.6252L87.6782 53.7546C87.5295 53.7356 87.4114 53.6729 87.3234 53.5666C87.236 53.4604 87.192 53.3159 87.192 53.1334C87.192 53.0135 87.2204 52.9059 87.2783 52.8105C87.3362 52.7124 87.417 52.6348 87.5217 52.5775C87.6286 52.5203 87.7534 52.4917 87.8965 52.4917H88.7169V54.6252H88.4362V53.7996H87.9583L87.3524 54.6252H87.0394ZM87.8926 53.5871H88.4362V52.7124H87.9416C87.799 52.7124 87.6849 52.7533 87.5997 52.835C87.5145 52.9141 87.4721 53.0149 87.4721 53.1375C87.4721 53.2628 87.5061 53.3691 87.5752 53.4563C87.6464 53.5435 87.7523 53.5871 87.8926 53.5871Z" fill="white"/>
</svg>
