<svg width="1616" height="1032" viewBox="0 0 1616 1032" fill="none" xmlns="http://www.w3.org/2000/svg">
<path d="M131.312 275.283L144.392 265.409C184.172 350.037 200.56 507.597 200.56 507.597L174.5 511.52C174.5 511.52 167.738 364.121 131.312 275.283Z" fill="#AF6E5A"/>
<path d="M143.905 228.326C146.224 232.336 147.99 237.004 148.774 242.214C150.142 251.3 148.387 259.783 144.633 265.945C184.234 350.698 200.56 507.596 200.56 507.596L188.38 509.43C185.422 480.699 171.247 355.816 141.596 277.261C140.5 274.358 138.039 273.128 135.937 274.077C134.672 274.649 133.338 275.054 131.938 275.265C120.42 276.999 109.171 265.604 106.356 249.692C118.732 242.191 131.194 234.92 143.905 228.326Z" fill="#965A50"/>
<path d="M125.573 245.51C123.253 204.759 129.888 157.486 132.736 139.648C133.232 136.541 130.822 133.678 128.725 134.901C120.503 139.696 105.006 152.059 100.128 178.882C97.9296 190.97 99.0835 212.158 125.573 245.51Z" fill="#AFD755"/>
<path d="M125.574 245.51C168.175 230.268 207.972 241.275 222.446 246.404C224.454 247.116 225.689 244.018 224.316 241.775C216.809 229.517 198.935 204.897 175.054 202.091C158.252 200.117 133.106 207.036 125.574 245.51Z" fill="#AFD755"/>
<path d="M125.568 245.475C94.7514 268.243 78.5849 305.556 72.3783 322.974C71.2441 326.157 67.676 325.12 67.062 321.45C64.4466 305.811 60.6805 273.903 72.7691 254.959C99.2744 213.424 125.568 245.475 125.568 245.475Z" fill="#AFD755"/>
<path d="M43.5285 202.542C52.1753 193.445 69.3861 179.295 88.5205 185.398C104.524 190.502 113.594 203.089 118.765 215.435C117.534 198.956 120.061 178.21 134.604 159.814C150.625 139.55 171.827 139.272 185.14 141.917C188.264 142.538 189.39 148.249 186.799 150.428C172.624 162.353 140.172 205.69 125.574 245.511C102.066 228.28 60.1904 210.659 45.4957 209.627C42.8106 209.438 41.4992 204.678 43.5285 202.542Z" fill="#96BE4B"/>
<path fill-rule="evenodd" clip-rule="evenodd" d="M450.811 224.553L299.699 375.665L592.025 366.776L450.811 224.553Z" fill="url(#paint0_linear_111_775)"/>
<path fill-rule="evenodd" clip-rule="evenodd" d="M1111.81 58.6511L942.614 237.168L1279.7 226.648L1111.81 58.6511Z" fill="url(#paint1_linear_111_775)"/>
<path fill-rule="evenodd" clip-rule="evenodd" d="M1165.81 235.421L1016.68 383.544L1306.05 375.664L1165.81 235.421Z" fill="url(#paint2_linear_111_775)"/>
<path fill-rule="evenodd" clip-rule="evenodd" d="M1139.37 0L833.344 94.0133L678.739 254.131L679.088 254.247L749.152 326.756L830.938 325.863L1139.37 0Z" fill="url(#paint3_linear_111_775)"/>
<path fill-rule="evenodd" clip-rule="evenodd" d="M1308.38 100.689L1303.8 102.475L1272.44 114.741V131.781L1306.44 167.415L1308.38 169.433V100.689Z" fill="url(#paint4_linear_111_775)"/>
<path fill-rule="evenodd" clip-rule="evenodd" d="M1356.63 114.741L1308.38 100.689V169.433L1356.63 219.972V114.741Z" fill="url(#paint5_linear_111_775)"/>
<path fill-rule="evenodd" clip-rule="evenodd" d="M1146.91 15.6042L1122.26 41.8442L1353.45 282.544V333.355H1450.41L1146.91 15.6042Z" fill="url(#paint6_linear_111_775)"/>
<path fill-rule="evenodd" clip-rule="evenodd" d="M298.494 259.371L302.065 260.808L326.441 270.317V283.554L300.007 311.269L298.494 312.821V259.371Z" fill="url(#paint7_linear_111_775)"/>
<path fill-rule="evenodd" clip-rule="evenodd" d="M261 270.318L298.497 259.41V312.822L261 352.104V270.318Z" fill="url(#paint8_linear_111_775)"/>
<path fill-rule="evenodd" clip-rule="evenodd" d="M423.21 194.586L442.463 214.809L263.442 400.74L271.361 504.379L34.0762 544.71L259.25 491.221L241.821 431.948H195.475L423.21 194.586Z" fill="url(#paint9_linear_111_775)"/>
<path d="M442.425 345.66H412.653V375.432H442.425V345.66Z" fill="url(#paint10_linear_111_775)"/>
<path d="M482.368 345.66H452.596V375.432H482.368V345.66Z" fill="url(#paint11_linear_111_775)"/>
<path d="M442.425 385.292H412.653V415.025H442.425V385.292Z" fill="url(#paint12_linear_111_775)"/>
<path d="M482.368 385.292H452.596V415.025H482.368V385.292Z" fill="url(#paint13_linear_111_775)"/>
<path fill-rule="evenodd" clip-rule="evenodd" d="M1284.93 302.34V316.78L1347.2 379.042V367.552L1284.93 302.34Z" fill="#6D6E70"/>
<path fill-rule="evenodd" clip-rule="evenodd" d="M1193.33 206.27L1174.54 225.639L1344.83 402.564L1336.95 504.38L1556.3 550.959L1348.25 492.502L1364.04 440.138H1416.56L1193.33 206.27Z" fill="url(#paint14_linear_111_775)"/>
<path fill-rule="evenodd" clip-rule="evenodd" d="M429.852 181.156L667.718 254.247L818.287 410.172L960.238 263.136L1186.58 193.616L972.854 414.52V434.588H651.299V414.52L429.852 181.156Z" fill="url(#paint15_linear_111_775)"/>
<path fill-rule="evenodd" clip-rule="evenodd" d="M692.055 254.015L838.471 102.359L1107.74 19.6414L826.826 316.431L753.113 317.247L692.055 254.015Z" fill="url(#paint16_linear_111_775)"/>
<path fill-rule="evenodd" clip-rule="evenodd" d="M660.808 425.117V410.716L461.602 200.836L662.593 262.593L818.286 423.797L965.361 271.521L1154.12 213.49L963.381 410.677V425.117H660.808Z" fill="url(#paint17_linear_111_775)"/>
<path d="M1199.22 350.162H1170.93V378.46H1199.22V350.162Z" fill="url(#paint18_linear_111_775)"/>
<path d="M1160.99 350.163H1132.7V378.46H1160.99V350.163Z" fill="url(#paint19_linear_111_775)"/>
<path d="M1199.22 388.008H1170.93V416.305H1199.22V388.008Z" fill="url(#paint20_linear_111_775)"/>
<path d="M1160.99 388.008H1132.7V416.305H1160.99V388.008Z" fill="url(#paint21_linear_111_775)"/>
<path d="M34.1946 572.775C34.1558 572.775 34.0781 572.775 34.0005 572.814C171.372 546.729 309.558 526.622 448.831 513.929C564.426 503.371 680.254 500.033 796.238 497.316C995.327 492.619 1197.13 505.079 1392.92 542.304C1447.81 552.746 1502.31 565.244 1556.38 579.179C1385.86 539.742 1213.98 526.933 1039.19 519.519C958.218 516.103 877.325 515.831 796.315 515.792C680.604 517.85 565.047 522.081 449.569 529.999C310.295 540.324 172.07 550.339 34.1946 572.775Z" fill="#00B027"/>
<path d="M101.075 836.775C74.329 836.775 53.3883 829 38.253 813.45C23.325 797.9 15.861 776.13 15.861 748.14C15.861 720.979 21.77 696.41 33.588 674.433C45.6133 652.248 61.7853 634.832 82.104 622.185C102.423 609.538 124.815 603.214 149.28 603.214C164.208 603.214 175.922 605.598 184.423 610.367C192.924 615.136 197.174 621.77 197.174 630.271C197.174 637.32 194.375 643.333 188.777 648.309C183.179 653.078 176.233 655.462 167.94 655.462C148.451 655.462 134.352 646.858 125.644 629.649C112.167 635.454 100.142 644.266 89.568 656.084C78.994 667.902 70.7007 682.001 64.688 698.38C58.6753 714.552 55.669 731.968 55.669 750.628C55.669 770.739 59.6083 786.497 67.487 797.9C75.3657 809.303 86.2507 815.005 100.142 815.005C116.107 815.005 129.169 809.303 139.328 797.9C149.695 786.497 155.5 771.983 156.744 754.36C173.745 754.36 182.246 761.513 182.246 775.819C182.246 786.808 178.514 796.967 171.05 806.297C163.793 815.627 153.945 823.091 141.505 828.689C129.065 834.08 115.588 836.775 101.075 836.775ZM252.046 836.775C239.191 836.775 232.764 828.585 232.764 812.206C232.764 802.047 236.081 775.404 242.716 732.279C249.558 689.154 256.089 650.693 262.309 616.898L248.625 601.348C253.394 597.201 259.095 593.988 265.73 591.707C272.572 589.219 278.792 587.975 284.39 587.975C290.195 587.975 294.342 589.323 296.83 592.018C299.318 594.506 300.562 598.86 300.562 605.08C300.562 608.605 299.318 616.38 296.83 628.405C294.342 640.223 292.787 647.894 292.165 651.419C285.323 684.8 279.725 714.448 275.371 740.365C271.224 766.074 269.151 788.985 269.151 809.096C269.151 813.035 269.669 816.767 270.706 820.292C271.95 823.609 273.505 826.201 275.371 828.067C268.944 833.872 261.169 836.775 252.046 836.775ZM507.377 686.873C507.377 708.228 496.388 725.022 474.411 737.255C452.641 749.28 421.541 755.811 381.111 756.848V762.757C381.111 779.344 384.221 792.406 390.441 801.943C396.661 811.273 405.162 815.938 415.943 815.938C429.42 815.938 440.408 811.688 448.909 803.187C457.41 794.686 462.075 783.387 462.904 769.288C479.698 769.288 488.095 775.508 488.095 787.948C488.095 796.241 484.778 804.224 478.143 811.895C471.508 819.359 462.386 825.372 450.775 829.933C439.372 834.494 426.724 836.775 412.833 836.775C390.856 836.775 373.647 830.037 361.207 816.56C348.767 803.083 342.547 784.527 342.547 760.891C342.547 738.499 347.419 718.284 357.164 700.246C366.909 682.208 380.385 668.109 397.594 657.95C414.803 647.583 433.981 642.4 455.129 642.4C471.508 642.4 484.259 646.339 493.382 654.218C502.712 662.097 507.377 672.982 507.377 686.873ZM449.842 661.993C439.268 661.993 429.316 665.414 419.986 672.256C410.863 678.891 402.985 688.117 396.35 699.935C389.923 711.546 385.465 724.711 382.977 739.432C411.589 738.81 433.774 733.834 449.531 724.504C465.496 715.174 473.478 702.319 473.478 685.94C473.478 678.683 471.301 672.878 466.947 668.524C462.593 664.17 456.891 661.993 449.842 661.993ZM703.74 811.895C703.74 819.152 705.606 824.542 709.338 828.067C702.91 833.872 695.965 836.775 688.501 836.775C681.451 836.775 676.061 834.598 672.329 830.244C668.597 825.89 666.731 819.566 666.731 811.273C666.731 806.712 667.456 800.492 668.908 792.613L665.798 791.058C658.334 805.571 648.9 816.871 637.497 824.957C626.301 832.836 614.068 836.775 600.799 836.775C589.603 836.775 579.651 833.769 570.943 827.756C562.442 821.743 555.807 813.243 551.039 802.254C546.477 791.058 544.197 778.203 544.197 763.69C544.197 741.298 549.484 720.876 560.058 702.423C570.632 683.763 585.041 669.146 603.287 658.572C621.532 647.791 641.643 642.4 663.621 642.4C673.158 642.4 682.903 643.229 692.855 644.888C694.306 647.376 695.446 650.693 696.276 654.84C700.63 651.73 705.606 650.175 711.204 650.175C716.387 650.175 720.43 651.419 723.333 653.907C726.443 656.395 727.998 659.816 727.998 664.17C727.998 668.939 727.272 674.64 725.821 681.275C724.577 687.91 722.4 697.654 719.29 710.509C714.314 731.45 710.478 749.591 707.783 764.934C705.087 780.277 703.74 795.93 703.74 811.895ZM615.727 807.541C635.009 807.541 650.87 795.308 663.31 770.843C675.75 746.17 685.08 709.058 691.3 659.505C668.908 660.127 649.418 665.103 632.832 674.433C616.452 683.556 603.909 695.788 595.201 711.131C586.7 726.474 582.45 743.682 582.45 762.757C582.45 776.856 585.352 787.844 591.158 795.723C596.963 803.602 605.153 807.541 615.727 807.541ZM806.695 836.775C799.438 836.775 794.048 835.013 790.523 831.488C787.206 827.963 785.547 822.365 785.547 814.694C785.547 805.571 788.242 786.808 793.633 758.403C799.231 729.791 805.555 701.49 812.604 673.5L798.609 657.95C803.585 653.596 809.39 650.071 816.025 647.376C822.867 644.681 828.983 643.333 834.374 643.333C840.594 643.333 844.948 644.577 847.436 647.065C849.924 649.553 851.168 654.011 851.168 660.438C851.168 665.829 850.235 671.945 848.369 678.787C846.71 685.629 844.43 691.953 841.527 697.758L844.637 699.313C865.578 661.371 892.738 642.4 926.119 642.4C939.596 642.4 949.548 645.821 955.975 652.663C962.61 659.298 965.927 669.664 965.927 683.763C965.927 692.056 964.994 700.661 963.128 709.576C961.469 718.491 958.981 729.687 955.664 743.164C951.725 758.921 948.822 771.88 946.956 782.039C945.09 791.991 944.157 801.943 944.157 811.895C944.157 819.359 945.505 824.75 948.2 828.067C941.98 833.872 935.345 836.775 928.296 836.775C921.247 836.775 915.96 835.013 912.435 831.488C909.118 827.963 907.459 822.365 907.459 814.694C907.459 806.815 908.288 798.004 909.947 788.259C911.813 778.307 914.405 765.452 917.722 749.695C920.832 736.633 923.113 725.748 924.564 717.04C926.223 708.125 927.052 700.453 927.052 694.026C927.052 677.232 920.728 668.835 908.081 668.835C893.36 668.835 879.365 675.884 866.096 689.983C853.034 703.874 842.46 721.912 834.374 744.097C826.495 766.282 822.556 788.881 822.556 811.895C822.556 819.566 823.8 824.957 826.288 828.067C820.068 833.872 813.537 836.775 806.695 836.775ZM1144.38 797.589C1146.25 803.187 1147.18 807.748 1147.18 811.273C1147.18 819.981 1143.66 826.408 1136.61 830.555C1129.56 834.702 1118.57 836.775 1103.64 836.775C1090.79 836.775 1078.04 835.116 1065.39 831.799C1057.92 835.324 1050.98 837.086 1044.55 837.086C1036.88 837.086 1031.28 835.116 1027.76 831.177C1024.23 827.238 1022.47 820.81 1022.47 811.895C1022.47 799.662 1024.13 781.21 1027.45 756.537C1030.76 731.657 1037.09 691.227 1046.42 635.247L1036.78 616.276C1050.67 607.568 1063 603.214 1073.79 603.214C1082.91 603.214 1087.47 608.708 1087.47 619.697C1087.47 622.6 1084.46 642.089 1078.45 678.165C1072.44 716.107 1067.98 744.304 1065.08 762.757C1062.38 781.21 1061.03 794.168 1061.03 801.632C1061.03 803.498 1061.14 804.846 1061.35 805.675H1110.48C1122.92 804.224 1134.22 801.528 1144.38 797.589ZM1238.61 615.965C1231.97 615.965 1226.68 614.41 1222.75 611.3C1218.81 607.983 1216.84 603.629 1216.84 598.238C1216.84 592.018 1219.43 586.627 1224.61 582.066C1229.79 577.297 1236.43 574.913 1244.52 574.913C1251.36 574.913 1256.64 576.572 1260.38 579.889C1264.32 582.999 1266.29 587.146 1266.29 592.329C1266.29 598.964 1263.69 604.562 1258.51 609.123C1253.33 613.684 1246.69 615.965 1238.61 615.965ZM1210.93 836.775C1203.88 836.775 1198.59 835.013 1195.07 831.488C1191.54 827.963 1189.78 822.365 1189.78 814.694C1189.78 806.193 1191.75 791.058 1195.69 769.288C1199.83 747.518 1206.78 714.759 1216.53 671.012L1202.84 655.462C1207.82 651.523 1213.52 648.413 1219.95 646.132C1226.58 643.644 1232.59 642.4 1237.98 642.4C1244.2 642.4 1248.56 643.748 1251.05 646.443C1253.74 648.931 1255.09 653.285 1255.09 659.505C1255.09 661.164 1253.12 670.079 1249.18 686.251C1242.75 712.582 1237.36 736.426 1233.01 757.781C1228.86 779.136 1226.79 797.174 1226.79 811.895C1226.79 819.774 1228.65 825.268 1232.39 828.378C1225.54 833.976 1218.39 836.775 1210.93 836.775ZM1388.1 630.271C1378.36 630.271 1370.17 627.368 1363.53 621.563L1360.42 623.74L1373.49 683.141C1385.1 681.068 1395.15 678.683 1403.65 675.988C1405.1 679.305 1405.83 682.726 1405.83 686.251C1405.83 692.678 1402.93 697.758 1397.12 701.49C1391.52 705.015 1384.27 706.984 1375.35 707.399C1367.27 737.67 1360.63 768.148 1355.45 798.833C1350.26 829.311 1347.67 851.807 1347.67 866.32C1347.67 874.199 1349.95 879.693 1354.51 882.803C1345.6 888.401 1337.82 891.2 1331.19 891.2C1324.76 891.2 1319.68 889.023 1315.95 884.669C1312.43 880.522 1310.66 874.613 1310.66 866.942C1310.66 857.197 1312.74 840.818 1316.88 817.804C1321.24 794.79 1328.39 759.129 1338.34 710.82C1327.77 712.479 1318.44 714.656 1310.35 717.351C1308.9 714.034 1308.18 710.613 1308.18 707.088C1308.18 700.039 1311.29 694.855 1317.51 691.538C1323.93 688.013 1332.12 686.147 1342.07 685.94C1340.42 668.109 1339.59 653.492 1339.59 642.089C1339.59 621.978 1343.63 607.361 1351.72 598.238C1359.8 588.908 1370.48 584.243 1383.75 584.243C1392.04 584.243 1398.88 586.524 1404.27 591.085C1409.67 595.439 1412.36 601.037 1412.36 607.879C1412.36 614.514 1410.08 619.904 1405.52 624.051C1400.96 628.198 1395.15 630.271 1388.1 630.271ZM1601.95 686.873C1601.95 708.228 1590.96 725.022 1568.99 737.255C1547.22 749.28 1516.12 755.811 1475.69 756.848V762.757C1475.69 779.344 1478.8 792.406 1485.02 801.943C1491.24 811.273 1499.74 815.938 1510.52 815.938C1523.99 815.938 1534.98 811.688 1543.48 803.187C1551.98 794.686 1556.65 783.387 1557.48 769.288C1574.27 769.288 1582.67 775.508 1582.67 787.948C1582.67 796.241 1579.35 804.224 1572.72 811.895C1566.08 819.359 1556.96 825.372 1545.35 829.933C1533.95 834.494 1521.3 836.775 1507.41 836.775C1485.43 836.775 1468.22 830.037 1455.78 816.56C1443.34 803.083 1437.12 784.527 1437.12 760.891C1437.12 738.499 1441.99 718.284 1451.74 700.246C1461.48 682.208 1474.96 668.109 1492.17 657.95C1509.38 647.583 1528.56 642.4 1549.7 642.4C1566.08 642.4 1578.83 646.339 1587.96 654.218C1597.29 662.097 1601.95 672.982 1601.95 686.873ZM1544.42 661.993C1533.84 661.993 1523.89 665.414 1514.56 672.256C1505.44 678.891 1497.56 688.117 1490.92 699.935C1484.5 711.546 1480.04 724.711 1477.55 739.432C1506.16 738.81 1528.35 733.834 1544.11 724.504C1560.07 715.174 1568.05 702.319 1568.05 685.94C1568.05 678.683 1565.88 672.878 1561.52 668.524C1557.17 664.17 1551.47 661.993 1544.42 661.993Z" fill="#00B027"/>
<path d="M48.73 992V975.17C47.4833 975.72 45.98 976.215 44.22 976.655C42.4967 977.095 40.5717 977.315 38.445 977.315C34.1183 977.315 30.9283 976.38 28.875 974.51C26.8217 972.603 25.795 969.597 25.795 965.49V952.95H29.535V965.05C29.535 968.093 30.2683 970.312 31.735 971.705C33.2383 973.098 35.6583 973.795 38.995 973.795C40.865 973.795 42.68 973.593 44.44 973.19C46.2 972.787 47.63 972.292 48.73 971.705V952.95H52.47V992H48.73ZM95.5655 992V963.4H99.3055V986.94L116.741 963.345H120.096V992H116.356V968.845L99.1955 992H95.5655ZM174.807 992.55C172.02 992.55 169.545 991.872 167.382 990.515C165.218 989.122 163.513 987.307 162.267 985.07C161.02 982.797 160.397 980.303 160.397 977.59C160.397 974.877 161.002 972.42 162.212 970.22C163.422 967.983 165.108 966.205 167.272 964.885C169.435 963.528 171.928 962.85 174.752 962.85C177.428 962.85 179.775 963.473 181.792 964.72C183.845 965.93 185.385 967.58 186.412 969.67L182.782 970.825C181.975 969.358 180.838 968.222 179.372 967.415C177.942 966.572 176.347 966.15 174.587 966.15C172.643 966.15 170.883 966.645 169.307 967.635C167.767 968.625 166.52 970 165.567 971.76C164.65 973.483 164.192 975.427 164.192 977.59C164.192 979.753 164.668 981.715 165.622 983.475C166.575 985.235 167.84 986.647 169.417 987.71C170.993 988.737 172.735 989.25 174.642 989.25C175.888 989.25 177.098 989.03 178.272 988.59C179.445 988.15 180.453 987.563 181.297 986.83C182.14 986.06 182.708 985.235 183.002 984.355L186.687 985.455C186.173 986.812 185.33 988.04 184.157 989.14C182.983 990.203 181.59 991.047 179.977 991.67C178.363 992.257 176.64 992.55 174.807 992.55ZM233.812 992V966.7H223.582V963.345H247.782V966.7H237.552V992H233.812ZM299.183 992.55C296.433 992.55 293.977 991.872 291.813 990.515C289.687 989.158 288.018 987.362 286.808 985.125C285.598 982.852 284.993 980.395 284.993 977.755C284.993 975.078 285.598 972.622 286.808 970.385C288.055 968.112 289.742 966.297 291.868 964.94C294.032 963.547 296.47 962.85 299.183 962.85C301.933 962.85 304.372 963.547 306.498 964.94C308.662 966.297 310.348 968.112 311.558 970.385C312.805 972.622 313.428 975.078 313.428 977.755C313.428 980.395 312.823 982.852 311.613 985.125C310.403 987.362 308.717 989.158 306.553 990.515C304.427 991.872 301.97 992.55 299.183 992.55ZM288.788 977.81C288.788 979.937 289.247 981.88 290.163 983.64C291.117 985.363 292.382 986.738 293.958 987.765C295.535 988.755 297.277 989.25 299.183 989.25C301.09 989.25 302.832 988.737 304.408 987.71C305.985 986.683 307.25 985.29 308.203 983.53C309.157 981.77 309.633 979.827 309.633 977.7C309.633 975.573 309.157 973.63 308.203 971.87C307.25 970.11 305.985 968.717 304.408 967.69C302.832 966.663 301.09 966.15 299.183 966.15C297.313 966.15 295.59 966.682 294.013 967.745C292.437 968.772 291.172 970.165 290.218 971.925C289.265 973.685 288.788 975.647 288.788 977.81ZM360.933 992V966.7H350.703V963.345H374.903V966.7H364.673V992H360.933ZM411.623 983.75C411.623 981.99 412.136 980.468 413.163 979.185C414.19 977.865 415.601 976.838 417.398 976.105C419.231 975.372 421.34 975.005 423.723 975.005C425.116 975.005 426.565 975.133 428.068 975.39C429.571 975.61 430.91 975.922 432.083 976.325V973.905C432.083 971.485 431.368 969.56 429.938 968.13C428.508 966.7 426.528 965.985 423.998 965.985C422.495 965.985 420.991 966.278 419.488 966.865C417.985 967.415 416.426 968.24 414.813 969.34L413.383 966.7C415.253 965.417 417.086 964.463 418.883 963.84C420.68 963.18 422.513 962.85 424.383 962.85C427.903 962.85 430.69 963.858 432.743 965.875C434.796 967.892 435.823 970.678 435.823 974.235V987.49C435.823 988.48 436.281 988.993 437.198 989.03V992C436.391 992.11 435.823 992.147 435.493 992.11C434.576 992.073 433.88 991.78 433.403 991.23C432.926 990.68 432.67 990.093 432.633 989.47L432.578 987.38C431.295 989.03 429.626 990.313 427.573 991.23C425.52 992.11 423.43 992.55 421.303 992.55C419.433 992.55 417.765 992.165 416.298 991.395C414.831 990.588 413.676 989.525 412.833 988.205C412.026 986.848 411.623 985.363 411.623 983.75ZM430.818 985.95C431.661 984.96 432.083 984.043 432.083 983.2V979.02C429.553 978.03 426.913 977.535 424.163 977.535C421.486 977.535 419.323 978.067 417.673 979.13C416.023 980.193 415.198 981.642 415.198 983.475C415.198 985.052 415.803 986.482 417.013 987.765C418.26 989.048 419.983 989.69 422.183 989.69C423.98 989.69 425.648 989.342 427.188 988.645C428.765 987.948 429.975 987.05 430.818 985.95ZM525.572 978.745V975.28H541.632V978.745H525.572ZM639.849 992.33C637.209 992.33 634.936 991.835 633.029 990.845C631.159 989.818 629.747 988.388 628.794 986.555L631.874 985.18C632.571 986.463 633.579 987.472 634.899 988.205C636.219 988.902 637.814 989.25 639.684 989.25C641.921 989.25 643.699 988.737 645.019 987.71C646.376 986.683 647.054 985.308 647.054 983.585C647.054 982.045 646.522 980.78 645.459 979.79C644.396 978.8 642.929 978.305 641.059 978.305H638.144V975.72H641.279C642.489 975.72 643.497 975.262 644.304 974.345C645.147 973.392 645.569 972.218 645.569 970.825C645.569 969.395 645.056 968.24 644.029 967.36C643.039 966.48 641.572 966.04 639.629 966.04C636.476 966.04 634.257 967.305 632.974 969.835L630.114 968.295C630.957 966.608 632.204 965.288 633.854 964.335C635.504 963.382 637.466 962.905 639.739 962.905C642.452 962.905 644.671 963.583 646.394 964.94C648.117 966.26 648.979 968.093 648.979 970.44C648.979 971.797 648.649 973.062 647.989 974.235C647.329 975.408 646.412 976.27 645.239 976.82C646.926 977.37 648.227 978.287 649.144 979.57C650.097 980.817 650.574 982.302 650.574 984.025C650.574 986.628 649.566 988.663 647.549 990.13C645.532 991.597 642.966 992.33 639.849 992.33ZM688.632 983.75C688.632 981.99 689.145 980.468 690.172 979.185C691.198 977.865 692.61 976.838 694.407 976.105C696.24 975.372 698.348 975.005 700.732 975.005C702.125 975.005 703.573 975.133 705.077 975.39C706.58 975.61 707.918 975.922 709.092 976.325V973.905C709.092 971.485 708.377 969.56 706.947 968.13C705.517 966.7 703.537 965.985 701.007 965.985C699.503 965.985 698 966.278 696.497 966.865C694.993 967.415 693.435 968.24 691.822 969.34L690.392 966.7C692.262 965.417 694.095 964.463 695.892 963.84C697.688 963.18 699.522 962.85 701.392 962.85C704.912 962.85 707.698 963.858 709.752 965.875C711.805 967.892 712.832 970.678 712.832 974.235V987.49C712.832 988.48 713.29 988.993 714.207 989.03V992C713.4 992.11 712.832 992.147 712.502 992.11C711.585 992.073 710.888 991.78 710.412 991.23C709.935 990.68 709.678 990.093 709.642 989.47L709.587 987.38C708.303 989.03 706.635 990.313 704.582 991.23C702.528 992.11 700.438 992.55 698.312 992.55C696.442 992.55 694.773 992.165 693.307 991.395C691.84 990.588 690.685 989.525 689.842 988.205C689.035 986.848 688.632 985.363 688.632 983.75ZM707.827 985.95C708.67 984.96 709.092 984.043 709.092 983.2V979.02C706.562 978.03 703.922 977.535 701.172 977.535C698.495 977.535 696.332 978.067 694.682 979.13C693.032 980.193 692.207 981.642 692.207 983.475C692.207 985.052 692.812 986.482 694.022 987.765C695.268 989.048 696.992 989.69 699.192 989.69C700.988 989.69 702.657 989.342 704.197 988.645C705.773 987.948 706.983 987.05 707.827 985.95ZM752.262 992.165V988.755C753.216 988.755 754.077 988.498 754.847 987.985C755.654 987.472 756.351 986.573 756.937 985.29C757.561 984.007 758.056 982.228 758.422 979.955C758.789 977.682 759.027 974.803 759.137 971.32L759.467 963.345H778.057V992H774.317V966.7H762.767L762.657 971.65C762.474 976.967 761.979 981.11 761.172 984.08C760.366 987.05 759.211 989.14 757.707 990.35C756.241 991.523 754.426 992.128 752.262 992.165ZM832.636 992.55C829.886 992.55 827.429 991.872 825.266 990.515C823.139 989.158 821.471 987.362 820.261 985.125C819.051 982.852 818.446 980.395 818.446 977.755C818.446 975.078 819.051 972.622 820.261 970.385C821.508 968.112 823.194 966.297 825.321 964.94C827.484 963.547 829.923 962.85 832.636 962.85C835.386 962.85 837.824 963.547 839.951 964.94C842.114 966.297 843.801 968.112 845.011 970.385C846.258 972.622 846.881 975.078 846.881 977.755C846.881 980.395 846.276 982.852 845.066 985.125C843.856 987.362 842.169 989.158 840.006 990.515C837.879 991.872 835.423 992.55 832.636 992.55ZM822.241 977.81C822.241 979.937 822.699 981.88 823.616 983.64C824.569 985.363 825.834 986.738 827.411 987.765C828.988 988.755 830.729 989.25 832.636 989.25C834.543 989.25 836.284 988.737 837.861 987.71C839.438 986.683 840.703 985.29 841.656 983.53C842.609 981.77 843.086 979.827 843.086 977.7C843.086 975.573 842.609 973.63 841.656 971.87C840.703 970.11 839.438 968.717 837.861 967.69C836.284 966.663 834.543 966.15 832.636 966.15C830.766 966.15 829.043 966.682 827.466 967.745C825.889 968.772 824.624 970.165 823.671 971.925C822.718 973.685 822.241 975.647 822.241 977.81ZM887.181 992V963.345H904.286V966.7H890.921V992H887.181ZM1004.89 992.55C1000.27 992.55 996.768 991.138 994.385 988.315C992.038 985.455 990.865 981.513 990.865 976.49C990.865 972.933 991.158 969.927 991.745 967.47C992.331 965.013 993.193 962.978 994.33 961.365C995.466 959.752 996.86 958.45 998.51 957.46C1000.2 956.433 1002.12 955.59 1004.28 954.93L1016.33 950.97L1016.66 954.215L1005.05 958.01C1002.85 958.78 1001 959.715 999.5 960.815C998.033 961.915 996.878 963.363 996.035 965.16C995.228 966.92 994.715 969.175 994.495 971.925C995.411 969.798 996.86 968.167 998.84 967.03C1000.86 965.857 1003.17 965.27 1005.77 965.27C1008.56 965.27 1010.92 965.838 1012.86 966.975C1014.84 968.112 1016.35 969.688 1017.37 971.705C1018.4 973.722 1018.91 976.05 1018.91 978.69C1018.91 982.87 1017.7 986.225 1015.28 988.755C1012.9 991.285 1009.44 992.55 1004.89 992.55ZM1004.89 989.25C1008.15 989.25 1010.66 988.315 1012.42 986.445C1014.22 984.538 1015.12 982.008 1015.12 978.855C1015.12 975.775 1014.24 973.263 1012.48 971.32C1010.72 969.377 1008.19 968.405 1004.89 968.405C1002.98 968.405 1001.26 968.808 999.72 969.615C998.18 970.422 996.951 971.595 996.035 973.135C995.155 974.675 994.715 976.582 994.715 978.855C994.715 981.862 995.576 984.355 997.3 986.335C999.06 988.278 1001.59 989.25 1004.89 989.25ZM1056.56 992.165V988.755C1057.51 988.755 1058.37 988.498 1059.14 987.985C1059.95 987.472 1060.64 986.573 1061.23 985.29C1061.85 984.007 1062.35 982.228 1062.72 979.955C1063.08 977.682 1063.32 974.803 1063.43 971.32L1063.76 963.345H1082.35V992H1078.61V966.7H1067.06L1066.95 971.65C1066.77 976.967 1066.27 981.11 1065.47 984.08C1064.66 987.05 1063.5 989.14 1062 990.35C1060.53 991.523 1058.72 992.128 1056.56 992.165ZM1136.93 992.55C1134.18 992.55 1131.72 991.872 1129.56 990.515C1127.43 989.158 1125.76 987.362 1124.55 985.125C1123.34 982.852 1122.74 980.395 1122.74 977.755C1122.74 975.078 1123.34 972.622 1124.55 970.385C1125.8 968.112 1127.49 966.297 1129.61 964.94C1131.78 963.547 1134.22 962.85 1136.93 962.85C1139.68 962.85 1142.12 963.547 1144.24 964.94C1146.41 966.297 1148.09 968.112 1149.3 970.385C1150.55 972.622 1151.17 975.078 1151.17 977.755C1151.17 980.395 1150.57 982.852 1149.36 985.125C1148.15 987.362 1146.46 989.158 1144.3 990.515C1142.17 991.872 1139.72 992.55 1136.93 992.55ZM1126.53 977.81C1126.53 979.937 1126.99 981.88 1127.91 983.64C1128.86 985.363 1130.13 986.738 1131.7 987.765C1133.28 988.755 1135.02 989.25 1136.93 989.25C1138.84 989.25 1140.58 988.737 1142.15 987.71C1143.73 986.683 1145 985.29 1145.95 983.53C1146.9 981.77 1147.38 979.827 1147.38 977.7C1147.38 975.573 1146.9 973.63 1145.95 971.87C1145 970.11 1143.73 968.717 1142.15 967.69C1140.58 966.663 1138.84 966.15 1136.93 966.15C1135.06 966.15 1133.34 966.682 1131.76 967.745C1130.18 968.772 1128.92 970.165 1127.96 971.925C1127.01 973.685 1126.53 975.647 1126.53 977.81ZM1191.47 992V963.345H1208.58V966.7H1195.21V992H1191.47ZM1264.31 992V980.01C1262 981.11 1259.4 981.66 1256.5 981.66C1250.16 981.66 1246.98 978.378 1246.98 971.815V963.345H1250.72V971.32C1250.72 973.887 1251.24 975.757 1252.26 976.93C1253.33 978.103 1255.01 978.69 1257.32 978.69C1258.64 978.69 1259.93 978.543 1261.17 978.25C1262.46 977.957 1263.5 977.572 1264.31 977.095V963.345H1268.05V992H1264.31ZM1322.75 992.55C1320 992.55 1317.55 991.872 1315.38 990.515C1313.22 989.158 1311.52 987.343 1310.27 985.07C1309.02 982.797 1308.4 980.303 1308.4 977.59C1308.4 974.913 1309 972.457 1310.21 970.22C1311.46 967.983 1313.17 966.205 1315.33 964.885C1317.49 963.528 1319.95 962.85 1322.7 962.85C1325.52 962.85 1328 963.528 1330.12 964.885C1332.25 966.242 1333.9 968.038 1335.07 970.275C1336.28 972.475 1336.89 974.895 1336.89 977.535C1336.89 978.122 1336.87 978.617 1336.83 979.02H1312.3C1312.49 981.073 1313.07 982.907 1314.06 984.52C1315.05 986.097 1316.32 987.362 1317.86 988.315C1319.4 989.232 1321.09 989.69 1322.92 989.69C1324.79 989.69 1326.55 989.213 1328.2 988.26C1329.85 987.307 1331.02 986.06 1331.72 984.52L1334.96 985.4C1334.38 986.793 1333.46 988.04 1332.21 989.14C1331 990.203 1329.59 991.047 1327.98 991.67C1326.37 992.257 1324.62 992.55 1322.75 992.55ZM1312.19 976.325H1333.37C1333.22 974.272 1332.65 972.457 1331.66 970.88C1330.67 969.267 1329.41 968.02 1327.87 967.14C1326.33 966.223 1324.62 965.765 1322.75 965.765C1320.88 965.765 1319.18 966.223 1317.64 967.14C1316.1 968.02 1314.83 969.267 1313.84 970.88C1312.89 972.457 1312.34 974.272 1312.19 976.325ZM1389.19 992.55C1386.4 992.55 1383.93 991.872 1381.76 990.515C1379.6 989.122 1377.9 987.307 1376.65 985.07C1375.4 982.797 1374.78 980.303 1374.78 977.59C1374.78 974.877 1375.38 972.42 1376.59 970.22C1377.8 967.983 1379.49 966.205 1381.65 964.885C1383.82 963.528 1386.31 962.85 1389.13 962.85C1391.81 962.85 1394.16 963.473 1396.17 964.72C1398.23 965.93 1399.77 967.58 1400.79 969.67L1397.16 970.825C1396.36 969.358 1395.22 968.222 1393.75 967.415C1392.32 966.572 1390.73 966.15 1388.97 966.15C1387.03 966.15 1385.27 966.645 1383.69 967.635C1382.15 968.625 1380.9 970 1379.95 971.76C1379.03 973.483 1378.57 975.427 1378.57 977.59C1378.57 979.753 1379.05 981.715 1380 983.475C1380.96 985.235 1382.22 986.647 1383.8 987.71C1385.38 988.737 1387.12 989.25 1389.02 989.25C1390.27 989.25 1391.48 989.03 1392.65 988.59C1393.83 988.15 1394.84 987.563 1395.68 986.83C1396.52 986.06 1397.09 985.235 1397.38 984.355L1401.07 985.455C1400.56 986.812 1399.71 988.04 1398.54 989.14C1397.37 990.203 1395.97 991.047 1394.36 991.67C1392.75 992.257 1391.02 992.55 1389.19 992.55ZM1448.2 992V966.7H1437.97V963.345H1462.17V966.7H1451.94V992H1448.2ZM1501.3 992V963.4H1505.04V986.94L1522.48 963.345H1525.83V992H1522.09V968.845L1504.93 992H1501.3ZM1565.97 992L1574.49 980.285C1572.51 980.028 1570.94 979.185 1569.76 977.755C1568.59 976.325 1568 974.382 1568 971.925C1568 970.312 1568.39 968.863 1569.16 967.58C1569.93 966.26 1571.01 965.215 1572.4 964.445C1573.83 963.675 1575.5 963.29 1577.41 963.29H1588.35V992H1584.61V980.89H1578.23L1570.15 992H1565.97ZM1577.35 978.03H1584.61V966.26H1578.01C1576.11 966.26 1574.58 966.81 1573.45 967.91C1572.31 968.973 1571.74 970.33 1571.74 971.98C1571.74 973.667 1572.2 975.097 1573.12 976.27C1574.07 977.443 1575.48 978.03 1577.35 978.03Z" fill="black"/>
<defs>
<linearGradient id="paint0_linear_111_775" x1="445.872" y1="321.341" x2="445.872" y2="192.289" gradientUnits="userSpaceOnUse">
<stop stop-color="white" stop-opacity="0"/>
<stop offset="0.1651" stop-color="#FAFAFA" stop-opacity="0.1651"/>
<stop offset="0.3705" stop-color="#EAEBEB" stop-opacity="0.3705"/>
<stop offset="0.5971" stop-color="#D1D2D3" stop-opacity="0.5971"/>
<stop offset="0.8373" stop-color="#AEB0B2" stop-opacity="0.8373"/>
<stop offset="1" stop-color="#929497"/>
</linearGradient>
<linearGradient id="paint1_linear_111_775" x1="1111.17" y1="172.982" x2="1111.17" y2="20.5109" gradientUnits="userSpaceOnUse">
<stop stop-color="white" stop-opacity="0"/>
<stop offset="0.1651" stop-color="#FAFAFA" stop-opacity="0.1651"/>
<stop offset="0.3705" stop-color="#EAEBEB" stop-opacity="0.3705"/>
<stop offset="0.5971" stop-color="#D1D2D3" stop-opacity="0.5971"/>
<stop offset="0.8373" stop-color="#AEB0B2" stop-opacity="0.8373"/>
<stop offset="1" stop-color="#929497"/>
</linearGradient>
<linearGradient id="paint2_linear_111_775" x1="1161.38" y1="330.302" x2="1161.38" y2="203.784" gradientUnits="userSpaceOnUse">
<stop stop-color="white" stop-opacity="0"/>
<stop offset="0.1651" stop-color="#FAFAFA" stop-opacity="0.1651"/>
<stop offset="0.3705" stop-color="#EAEBEB" stop-opacity="0.3705"/>
<stop offset="0.5971" stop-color="#D1D2D3" stop-opacity="0.5971"/>
<stop offset="0.8373" stop-color="#AEB0B2" stop-opacity="0.8373"/>
<stop offset="1" stop-color="#929497"/>
</linearGradient>
<linearGradient id="paint3_linear_111_775" x1="678.75" y1="163.385" x2="1139.39" y2="163.385" gradientUnits="userSpaceOnUse">
<stop stop-color="#26A9E0"/>
<stop offset="1" stop-color="#2B388F"/>
</linearGradient>
<linearGradient id="paint4_linear_111_775" x1="1208.38" y1="143.049" x2="1316.4" y2="134.403" gradientUnits="userSpaceOnUse">
<stop stop-color="#BBBDBF"/>
<stop offset="1" stop-color="#404041"/>
</linearGradient>
<linearGradient id="paint5_linear_111_775" x1="1389.67" y1="120.858" x2="1092.15" y2="326.226" gradientUnits="userSpaceOnUse">
<stop stop-color="#BBBDBF"/>
<stop offset="1" stop-color="#404041"/>
</linearGradient>
<linearGradient id="paint6_linear_111_775" x1="1284.52" y1="3.98689" x2="1288.25" y2="384.559" gradientUnits="userSpaceOnUse">
<stop stop-color="#BBBDBF"/>
<stop offset="1" stop-color="#404041"/>
</linearGradient>
<linearGradient id="paint7_linear_111_775" x1="344.417" y1="242.374" x2="289.104" y2="295.048" gradientUnits="userSpaceOnUse">
<stop stop-color="#BBBDBF"/>
<stop offset="1" stop-color="#404041"/>
</linearGradient>
<linearGradient id="paint8_linear_111_775" x1="298.272" y1="252.839" x2="242.189" y2="370.108" gradientUnits="userSpaceOnUse">
<stop stop-color="#BBBDBF"/>
<stop offset="1" stop-color="#404041"/>
</linearGradient>
<linearGradient id="paint9_linear_111_775" x1="248.893" y1="154.184" x2="233.97" y2="471.322" gradientUnits="userSpaceOnUse">
<stop stop-color="#BBBDBF"/>
<stop offset="0.1949" stop-color="#A8AAAC"/>
<stop offset="0.5905" stop-color="#78797A"/>
<stop offset="1" stop-color="#404041"/>
</linearGradient>
<linearGradient id="paint10_linear_111_775" x1="427.529" y1="304.649" x2="427.529" y2="500.244" gradientUnits="userSpaceOnUse">
<stop stop-color="#26A9E0"/>
<stop offset="1" stop-color="#2B388F"/>
</linearGradient>
<linearGradient id="paint11_linear_111_775" x1="467.471" y1="304.649" x2="467.471" y2="500.244" gradientUnits="userSpaceOnUse">
<stop stop-color="#26A9E0"/>
<stop offset="1" stop-color="#2B388F"/>
</linearGradient>
<linearGradient id="paint12_linear_111_775" x1="427.529" y1="308.546" x2="427.529" y2="504.104" gradientUnits="userSpaceOnUse">
<stop stop-color="#26A9E0"/>
<stop offset="1" stop-color="#2B388F"/>
</linearGradient>
<linearGradient id="paint13_linear_111_775" x1="467.471" y1="308.546" x2="467.471" y2="504.104" gradientUnits="userSpaceOnUse">
<stop stop-color="#26A9E0"/>
<stop offset="1" stop-color="#2B388F"/>
</linearGradient>
<linearGradient id="paint14_linear_111_775" x1="1311.83" y1="117.716" x2="1386.45" y2="494.553" gradientUnits="userSpaceOnUse">
<stop stop-color="#BBBDBF"/>
<stop offset="1" stop-color="#404041"/>
</linearGradient>
<linearGradient id="paint15_linear_111_775" x1="808.208" y1="439.927" x2="808.208" y2="265.929" gradientUnits="userSpaceOnUse">
<stop stop-color="#26A9E0"/>
<stop offset="1" stop-color="#2B388F"/>
</linearGradient>
<linearGradient id="paint16_linear_111_775" x1="983.754" y1="13.4106" x2="763.668" y2="337.31" gradientUnits="userSpaceOnUse">
<stop stop-color="#26A9E0"/>
<stop offset="1" stop-color="#2B388F"/>
</linearGradient>
<linearGradient id="paint17_linear_111_775" x1="807.857" y1="205.007" x2="807.857" y2="446.422" gradientUnits="userSpaceOnUse">
<stop stop-color="#26A9E0"/>
<stop offset="1" stop-color="#2B388F"/>
</linearGradient>
<linearGradient id="paint18_linear_111_775" x1="1185.06" y1="329.568" x2="1185.06" y2="458.501" gradientUnits="userSpaceOnUse">
<stop stop-color="#26A9E0"/>
<stop offset="1" stop-color="#2B388F"/>
</linearGradient>
<linearGradient id="paint19_linear_111_775" x1="1146.87" y1="329.569" x2="1146.87" y2="458.501" gradientUnits="userSpaceOnUse">
<stop stop-color="#26A9E0"/>
<stop offset="1" stop-color="#2B388F"/>
</linearGradient>
<linearGradient id="paint20_linear_111_775" x1="1185.06" y1="333.454" x2="1185.06" y2="462.386" gradientUnits="userSpaceOnUse">
<stop stop-color="#26A9E0"/>
<stop offset="1" stop-color="#2B388F"/>
</linearGradient>
<linearGradient id="paint21_linear_111_775" x1="1146.86" y1="333.454" x2="1146.86" y2="462.386" gradientUnits="userSpaceOnUse">
<stop stop-color="#26A9E0"/>
<stop offset="1" stop-color="#2B388F"/>
</linearGradient>
</defs>
</svg>
