<svg width="90" height="57" viewBox="0 0 90 57" fill="none" xmlns="http://www.w3.org/2000/svg">
<path d="M7.31323 15.2046L8.0417 14.6592C10.2571 19.3334 11.1699 28.0359 11.1699 28.0359L9.7185 28.2526C9.7185 28.2526 9.34191 20.1113 7.31323 15.2046Z" fill="white"/>
<path d="M8.01462 12.611C8.14377 12.8325 8.24207 13.0903 8.28573 13.3781C8.36192 13.8799 8.26423 14.3485 8.0551 14.6889C10.2606 19.37 11.1699 28.0359 11.1699 28.0359L10.4915 28.1371C10.3268 26.5502 9.53737 19.6526 7.88596 15.3138C7.82492 15.1535 7.68786 15.0856 7.5708 15.138C7.5004 15.1696 7.42605 15.1919 7.34808 15.2036C6.70661 15.2994 6.08012 14.67 5.92334 13.7911C6.61265 13.3768 7.30664 12.9752 8.01462 12.611Z" fill="white"/>
<path d="M6.99353 13.5601C6.86433 11.3094 7.23385 8.69835 7.39246 7.71311C7.42009 7.5415 7.28587 7.38337 7.16908 7.45092C6.71117 7.71576 5.84809 8.3986 5.57642 9.88011C5.45399 10.5478 5.51825 11.718 6.99353 13.5601Z" fill="white"/>
<path d="M6.99365 13.5601C9.36629 12.7183 11.5826 13.3262 12.3887 13.6095C12.5006 13.6488 12.5694 13.4777 12.4929 13.3538C12.0749 12.6768 11.0794 11.317 9.74934 11.162C8.81359 11.053 7.41319 11.4351 6.99365 13.5601Z" fill="white"/>
<path d="M6.99325 13.5582C5.27698 14.8157 4.37662 16.8766 4.03095 17.8387C3.96778 18.0145 3.76907 17.9572 3.73487 17.7545C3.58921 16.8907 3.37946 15.1284 4.05272 14.082C5.52888 11.7879 6.99325 13.5582 6.99325 13.5582Z" fill="white"/>
<path d="M2.4242 11.1869C2.90577 10.6845 3.86429 9.90292 4.92995 10.24C5.82126 10.5219 6.32639 11.2171 6.61438 11.899C6.54577 10.9888 6.6865 9.84299 7.49645 8.82693C8.38871 7.7077 9.56951 7.69234 10.311 7.83843C10.485 7.87273 10.5476 8.18817 10.4034 8.30852C9.6139 8.96717 7.8066 11.3608 6.99354 13.5602C5.68436 12.6085 3.35216 11.6352 2.53376 11.5782C2.38423 11.5678 2.31119 11.3049 2.4242 11.1869Z" fill="white"/>
<path fill-rule="evenodd" clip-rule="evenodd" d="M63.455 7.62939e-06L46.4115 5.1926L37.801 14.0363L37.8205 14.0427L41.7225 18.0476L46.2775 17.9982L63.455 7.62939e-06Z" fill="white"/>
<path fill-rule="evenodd" clip-rule="evenodd" d="M72.8677 5.56137L72.6126 5.65996L70.8661 6.33744V7.2786L72.7597 9.24676L72.8677 9.35822V5.56137Z" fill="white"/>
<path fill-rule="evenodd" clip-rule="evenodd" d="M75.5549 6.33744L72.8677 5.56137V9.35822L75.5549 12.1496V6.33744Z" fill="white"/>
<path fill-rule="evenodd" clip-rule="evenodd" d="M63.8744 0.861881L62.5021 2.31118L75.3778 15.6057V18.4121H80.7778L63.8744 0.861881Z" fill="white"/>
<path fill-rule="evenodd" clip-rule="evenodd" d="M16.624 14.3257L16.8229 14.4051L18.1805 14.9303V15.6614L16.7083 17.1922L16.624 17.2779V14.3257Z" fill="white"/>
<path fill-rule="evenodd" clip-rule="evenodd" d="M14.5359 14.9303L16.6242 14.3279V17.278L14.5359 19.4476V14.9303Z" fill="white"/>
<path fill-rule="evenodd" clip-rule="evenodd" d="M23.5699 10.7475L24.6422 11.8645L14.6719 22.1339L15.113 27.8581L1.89783 30.0857L14.4385 27.1314L13.4678 23.8576H10.8866L23.5699 10.7475Z" fill="white"/>
<path d="M24.6399 19.0917H22.9818V20.7361H24.6399V19.0917Z" fill="white"/>
<path d="M26.8645 19.0917H25.2064V20.7361H26.8645V19.0917Z" fill="white"/>
<path d="M24.6399 21.2807H22.9818V22.9229H24.6399V21.2807Z" fill="white"/>
<path d="M26.8645 21.2807H25.2064V22.9229H26.8645V21.2807Z" fill="white"/>
<path fill-rule="evenodd" clip-rule="evenodd" d="M71.5616 16.699V17.4966L75.0296 20.9355V20.3008L71.5616 16.699Z" fill="white"/>
<path fill-rule="evenodd" clip-rule="evenodd" d="M66.4602 11.3928L65.4137 12.4626L74.8977 22.2346L74.4588 27.8582L86.6751 30.4309L75.0876 27.2021L75.9675 24.3099H78.8925L66.4602 11.3928Z" fill="white"/>
<path fill-rule="evenodd" clip-rule="evenodd" d="M23.9398 10.0057L37.1873 14.0427L45.573 22.6548L53.4787 14.5337L66.0843 10.6939L54.1813 22.895V24.0034H36.2729V22.895L23.9398 10.0057Z" fill="white"/>
<path fill-rule="evenodd" clip-rule="evenodd" d="M38.5427 14.0299L46.697 5.65354L61.6935 1.08484L46.0485 17.4773L41.9432 17.5224L38.5427 14.0299Z" fill="white"/>
<path fill-rule="evenodd" clip-rule="evenodd" d="M36.8023 23.4803V22.6849L25.708 11.0927L36.9018 14.5037L45.5728 23.4074L53.7638 14.9968L64.2765 11.7916L53.6536 22.6827V23.4803H36.8023Z" fill="white"/>
<path d="M66.7882 19.3403H65.2126V20.9033H66.7882V19.3403Z" fill="white"/>
<path d="M64.659 19.3404H63.0835V20.9033H64.659V19.3404Z" fill="white"/>
<path d="M66.7882 21.4307H65.2126V22.9936H66.7882V21.4307Z" fill="white"/>
<path d="M64.659 21.4307H63.0835V22.9936H64.659V21.4307Z" fill="white"/>
<path d="M1.90436 31.6358C1.9022 31.6358 1.89788 31.6358 1.89355 31.638C9.54417 30.1972 17.2402 29.0867 24.9968 28.3856C31.4346 27.8025 37.8854 27.6181 44.3449 27.468C55.4328 27.2086 66.6718 27.8968 77.576 29.9528C80.633 30.5296 83.6682 31.2199 86.6796 31.9895C77.1828 29.8113 67.6103 29.1039 57.8757 28.6944C53.3661 28.5057 48.8609 28.4907 44.3492 28.4885C37.9049 28.6022 31.4692 28.8359 25.0378 29.2732C17.2813 29.8435 9.5831 30.3966 1.90436 31.6358Z" fill="white"/>
<path d="M5.62925 46.2172C4.13968 46.2172 2.97343 45.7878 2.1305 44.9289C1.29912 44.0701 0.883423 42.8676 0.883423 41.3217C0.883423 39.8215 1.21251 38.4645 1.87069 37.2507C2.54042 36.0253 3.44109 35.0634 4.5727 34.3649C5.70432 33.6663 6.9514 33.3171 8.31393 33.3171C9.14532 33.3171 9.79771 33.4487 10.2712 33.7121C10.7446 33.9755 10.9813 34.3419 10.9813 34.8115C10.9813 35.2008 10.8254 35.5329 10.5136 35.8078C10.2019 36.0712 9.81503 36.2028 9.35317 36.2028C8.26776 36.2028 7.48255 35.7276 6.99757 34.7771C6.247 35.0978 5.57729 35.5845 4.98839 36.2372C4.39949 36.8899 3.93761 37.6687 3.60275 38.5733C3.26788 39.4665 3.10045 40.4285 3.10045 41.4591C3.10045 42.5699 3.31984 43.4402 3.75863 44.0701C4.19742 44.6999 4.80364 45.0148 5.57729 45.0148C6.46643 45.0148 7.19389 44.6999 7.75968 44.0701C8.33705 43.4402 8.66034 42.6386 8.72963 41.6652C9.67646 41.6652 10.1499 42.0603 10.1499 42.8505C10.1499 43.4574 9.94206 44.0185 9.52637 44.5338C9.12221 45.0492 8.57374 45.4614 7.88092 45.7706C7.1881 46.0684 6.43752 46.2172 5.62925 46.2172ZM14.0373 46.2172C13.3214 46.2172 12.9634 45.7649 12.9634 44.8602C12.9634 44.2991 13.1481 42.8275 13.5177 40.4456C13.8987 38.0637 14.2625 35.9394 14.6089 34.0729L13.8468 33.214C14.1124 32.9849 14.4299 32.8075 14.7994 32.6815C15.1804 32.5441 15.5269 32.4754 15.8386 32.4754C16.1619 32.4754 16.3929 32.5498 16.5314 32.6987C16.67 32.8361 16.7393 33.0766 16.7393 33.4201C16.7393 33.6148 16.67 34.0442 16.5314 34.7084C16.3929 35.3612 16.3063 35.7848 16.2716 35.9795C15.8906 37.8233 15.5788 39.4608 15.3363 40.8923C15.1054 42.3122 14.9899 43.5777 14.9899 44.6884C14.9899 44.906 15.0188 45.1121 15.0765 45.3068C15.1458 45.49 15.2324 45.6332 15.3363 45.7363C14.9784 46.0569 14.5454 46.2172 14.0373 46.2172ZM28.2574 37.9378C28.2574 39.1172 27.6454 40.0448 26.4215 40.7205C25.209 41.3847 23.477 41.7454 21.2253 41.8027V42.129C21.2253 43.0452 21.3985 43.7666 21.7449 44.2934C22.0913 44.8087 22.5648 45.0663 23.1652 45.0663C23.9158 45.0663 24.5277 44.8316 25.0012 44.3621C25.4746 43.8925 25.7344 43.2685 25.7806 42.4897C26.7159 42.4897 27.1836 42.8333 27.1836 43.5204C27.1836 43.9784 26.9988 44.4194 26.6293 44.843C26.2598 45.2553 25.7518 45.5874 25.1051 45.8393C24.47 46.0912 23.7656 46.2172 22.992 46.2172C21.768 46.2172 20.8096 45.8451 20.1168 45.1007C19.424 44.3563 19.0776 43.3314 19.0776 42.026C19.0776 40.7892 19.3489 39.6727 19.8916 38.6764C20.4344 37.6801 21.1849 36.9014 22.1433 36.3403C23.1017 35.7677 24.1698 35.4814 25.3476 35.4814C26.2598 35.4814 26.9699 35.699 27.478 36.1341C27.9976 36.5693 28.2574 37.1705 28.2574 37.9378ZM25.0531 36.5636C24.4642 36.5636 23.91 36.7525 23.3904 37.1304C22.8823 37.4969 22.4435 38.0065 22.074 38.6592C21.7161 39.3005 21.4678 40.0276 21.3292 40.8407C22.9227 40.8064 24.1583 40.5315 25.0358 40.0162C25.925 39.5009 26.3695 38.7909 26.3695 37.8862C26.3695 37.4854 26.2483 37.1648 26.0058 36.9243C25.7633 36.6838 25.4457 36.5636 25.0531 36.5636ZM39.1935 44.843C39.1935 45.2439 39.2974 45.5416 39.5053 45.7363C39.1473 46.0569 38.7605 46.2172 38.3448 46.2172C37.9522 46.2172 37.652 46.097 37.4441 45.8565C37.2363 45.616 37.1324 45.2667 37.1324 44.8087C37.1324 44.5568 37.1727 44.2132 37.2536 43.778L37.0804 43.6922C36.6647 44.4937 36.1393 45.1179 35.5042 45.5645C34.8807 45.9997 34.1994 46.2172 33.4604 46.2172C32.8369 46.2172 32.2826 46.0512 31.7976 45.7191C31.3242 45.387 30.9547 44.9175 30.6891 44.3105C30.435 43.6922 30.3081 42.9821 30.3081 42.1806C30.3081 40.9438 30.6025 39.8158 31.1914 38.7966C31.7803 37.766 32.5828 36.9586 33.599 36.3746C34.6151 35.7792 35.7351 35.4814 36.9591 35.4814C37.4903 35.4814 38.033 35.5272 38.5873 35.6188C38.6681 35.7562 38.7316 35.9394 38.7778 36.1685C39.0203 35.9967 39.2974 35.9108 39.6092 35.9108C39.8978 35.9108 40.123 35.9795 40.2847 36.117C40.4579 36.2544 40.5445 36.4433 40.5445 36.6838C40.5445 36.9472 40.5041 37.2621 40.4233 37.6286C40.354 37.995 40.2327 38.5332 40.0595 39.2432C39.7824 40.3999 39.5688 41.4018 39.4187 42.2493C39.2685 43.0967 39.1935 43.9613 39.1935 44.843ZM34.2918 44.6026C35.3657 44.6026 36.249 43.9269 36.9418 42.5756C37.6346 41.2129 38.1543 39.1631 38.5007 36.4261C37.2536 36.4605 36.1681 36.7353 35.2444 37.2507C34.3322 37.7545 33.6336 38.4302 33.1486 39.2776C32.6752 40.125 32.4385 41.0755 32.4385 42.129C32.4385 42.9077 32.6001 43.5146 32.9235 43.9498C33.2468 44.385 33.7029 44.6026 34.2918 44.6026ZM44.9274 46.2172C44.5232 46.2172 44.223 46.1199 44.0267 45.9252C43.842 45.7305 43.7496 45.4213 43.7496 44.9976C43.7496 44.4937 43.8997 43.4574 44.1999 41.8885C44.5117 40.3082 44.8639 38.7451 45.2565 37.1991L44.477 36.3403C44.7542 36.0998 45.0775 35.9051 45.447 35.7562C45.828 35.6074 46.1687 35.5329 46.4689 35.5329C46.8153 35.5329 47.0578 35.6016 47.1964 35.7391C47.3349 35.8765 47.4042 36.1227 47.4042 36.4777C47.4042 36.7754 47.3522 37.1132 47.2483 37.4911C47.1559 37.869 47.0289 38.2183 46.8673 38.539L47.0405 38.6248C48.2067 36.5292 49.7194 35.4814 51.5785 35.4814C52.329 35.4814 52.8833 35.6703 53.2412 36.0482C53.6108 36.4147 53.7955 36.9873 53.7955 37.766C53.7955 38.224 53.7435 38.6993 53.6396 39.1917C53.5472 39.6841 53.4086 40.3025 53.2239 41.0469C53.0045 41.9172 52.8429 42.6329 52.7389 43.194C52.635 43.7437 52.583 44.2934 52.583 44.843C52.583 45.2553 52.6581 45.5531 52.8082 45.7363C52.4618 46.0569 52.0923 46.2172 51.6997 46.2172C51.3071 46.2172 51.0127 46.1199 50.8164 45.9252C50.6316 45.7305 50.5392 45.4213 50.5392 44.9976C50.5392 44.5625 50.5854 44.0758 50.6778 43.5376C50.7817 42.9879 50.9261 42.2779 51.1108 41.4076C51.284 40.6861 51.411 40.0849 51.4919 39.604C51.5843 39.1116 51.6304 38.6878 51.6304 38.3328C51.6304 37.4053 51.2782 36.9415 50.5739 36.9415C49.754 36.9415 48.9746 37.3308 48.2356 38.1095C47.5081 38.8768 46.9192 39.873 46.4689 41.0984C46.0301 42.3237 45.8107 43.5719 45.8107 44.843C45.8107 45.2667 45.88 45.5645 46.0186 45.7363C45.6722 46.0569 45.3084 46.2172 44.9274 46.2172ZM63.7341 44.0529C63.8382 44.3621 63.89 44.614 63.89 44.8087C63.89 45.2897 63.694 45.6446 63.3013 45.8737C62.9087 46.1027 62.2966 46.2172 61.4651 46.2172C60.7495 46.2172 60.0394 46.1256 59.3349 45.9424C58.9189 46.1371 58.5324 46.2344 58.1742 46.2344C57.7471 46.2344 57.4352 46.1256 57.2392 45.908C57.0426 45.6905 56.9445 45.3354 56.9445 44.843C56.9445 44.1674 57.037 43.1482 57.2219 41.7855C57.4062 40.4113 57.7588 38.1782 58.2784 35.0863L57.7415 34.0385C58.5151 33.5575 59.2018 33.3171 59.8027 33.3171C60.3106 33.3171 60.5646 33.6205 60.5646 34.2275C60.5646 34.3878 60.3969 35.4642 60.0622 37.4568C59.7275 39.5524 59.4791 41.1098 59.3176 42.129C59.1672 43.1482 59.0921 43.8639 59.0921 44.2762C59.0921 44.3793 59.0982 44.4537 59.1099 44.4995H61.8461C62.5389 44.4194 63.1682 44.2704 63.7341 44.0529ZM68.982 34.0213C68.6122 34.0213 68.3176 33.9354 68.0987 33.7637C67.8793 33.5805 67.7696 33.34 67.7696 33.0422C67.7696 32.6987 67.9138 32.4009 68.2023 32.149C68.4908 31.8856 68.8606 31.7539 69.3112 31.7539C69.6921 31.7539 69.9862 31.8455 70.1945 32.0288C70.4139 32.2005 70.5236 32.4296 70.5236 32.7158C70.5236 33.0823 70.3788 33.3915 70.0903 33.6434C69.8018 33.8953 69.432 34.0213 68.982 34.0213ZM67.4405 46.2172C67.0478 46.2172 66.7532 46.1199 66.5572 45.9252C66.3606 45.7305 66.2625 45.4213 66.2625 44.9976C66.2625 44.5281 66.3723 43.6922 66.5917 42.4897C66.8223 41.2873 67.2093 39.478 67.7523 37.0617L66.9899 36.2028C67.2672 35.9853 67.5847 35.8135 67.9428 35.6875C68.312 35.5501 68.6468 35.4814 68.9469 35.4814C69.2934 35.4814 69.5362 35.5558 69.6749 35.7047C69.8247 35.8421 69.8999 36.0826 69.8999 36.4261C69.8999 36.5178 69.7901 37.0102 69.5707 37.9034C69.2126 39.3577 68.9124 40.6747 68.6702 41.8542C68.439 43.0337 68.3237 44.03 68.3237 44.843C68.3237 45.2782 68.4273 45.5817 68.6356 45.7534C68.2541 46.0626 67.8559 46.2172 67.4405 46.2172ZM77.3076 34.8115C76.7651 34.8115 76.309 34.6511 75.9392 34.3305L75.766 34.4508L76.4939 37.7316C77.1405 37.6171 77.7002 37.4854 78.1736 37.3365C78.2544 37.5198 78.295 37.7087 78.295 37.9034C78.295 38.2584 78.1335 38.539 77.8099 38.7451C77.4981 38.9398 77.0943 39.0485 76.5975 39.0715C76.1475 40.7434 75.7777 42.4268 75.4892 44.1216C75.2002 45.805 75.0559 47.0475 75.0559 47.8491C75.0559 48.2843 75.1829 48.5877 75.4369 48.7595C74.9406 49.0687 74.5073 49.2233 74.1381 49.2233C73.78 49.2233 73.4971 49.103 73.2893 48.8625C73.0933 48.6335 72.9947 48.3071 72.9947 47.8834C72.9947 47.3452 73.1106 46.4405 73.3411 45.1694C73.584 43.8983 73.9822 41.9286 74.5363 39.2604C73.9476 39.352 73.428 39.4723 72.9775 39.6211C72.8967 39.4379 72.8566 39.249 72.8566 39.0543C72.8566 38.6649 73.0298 38.3786 73.3762 38.1954C73.7338 38.0007 74.1899 37.8977 74.744 37.8862C74.6521 36.9014 74.6059 36.094 74.6059 35.4642C74.6059 34.3534 74.8309 33.5461 75.2815 33.0422C75.7315 32.5269 76.3263 32.2692 77.0653 32.2692C77.527 32.2692 77.908 32.3952 78.2081 32.6471C78.5089 32.8876 78.6587 33.1968 78.6587 33.5747C78.6587 33.9412 78.5317 34.2389 78.2778 34.4679C78.0238 34.697 77.7002 34.8115 77.3076 34.8115ZM89.2175 37.9378C89.2175 39.1172 88.6055 40.0448 87.3819 40.7205C86.1695 41.3847 84.4374 41.7454 82.1857 41.8027V42.129C82.1857 43.0452 82.3589 43.7666 82.7054 44.2934C83.0518 44.8087 83.5252 45.0663 84.1255 45.0663C84.8757 45.0663 85.4878 44.8316 85.9612 44.3621C86.4346 43.8925 86.6946 43.2685 86.7409 42.4897C87.676 42.4897 88.1438 42.8333 88.1438 43.5204C88.1438 43.9784 87.9589 44.4194 87.5896 44.843C87.2198 45.2553 86.7119 45.5874 86.0653 45.8393C85.4304 46.0912 84.7259 46.2172 83.9523 46.2172C82.7282 46.2172 81.7697 45.8451 81.0769 45.1007C80.3841 44.3563 80.0377 43.3314 80.0377 42.026C80.0377 40.7892 80.3089 39.6727 80.8519 38.6764C81.3943 37.6801 82.1451 36.9014 83.1036 36.3403C84.062 35.7677 85.1302 35.4814 86.3076 35.4814C87.2198 35.4814 87.9299 35.699 88.4384 36.1341C88.958 36.5693 89.2175 37.1705 89.2175 37.9378ZM86.0135 36.5636C85.4243 36.5636 84.8701 36.7525 84.3505 37.1304C83.8426 37.4969 83.4037 38.0065 83.034 38.6592C82.6764 39.3005 82.428 40.0276 82.2893 40.8407C83.8827 40.8064 85.1185 40.5315 85.9963 40.0162C86.8851 39.5009 87.3296 38.7909 87.3296 37.8862C87.3296 37.4854 87.2087 37.1648 86.9659 36.9243C86.7236 36.6838 86.4062 36.5636 86.0135 36.5636Z" fill="white"/>
<path d="M3.22822 54.625V53.3743C3.13481 53.4152 3.02216 53.452 2.89027 53.4847C2.76114 53.5174 2.61689 53.5337 2.45754 53.5337C2.13333 53.5337 1.8943 53.4642 1.74044 53.3253C1.58657 53.1836 1.50964 52.9601 1.50964 52.655V51.7231H1.78989V52.6223C1.78989 52.8484 1.84484 53.0133 1.95474 53.1168C2.06739 53.2204 2.24873 53.2721 2.49875 53.2721C2.63888 53.2721 2.77488 53.2572 2.90676 53.2272C3.03864 53.1972 3.14579 53.1604 3.22822 53.1168V51.7231H3.50847V54.625H3.22822ZM5.54255 54.625V52.4997H5.82279V54.249L7.12924 52.4956H7.38064V54.625H7.10039V52.9043L5.81455 54.625H5.54255ZM10.2851 54.6659C10.0763 54.6659 9.89084 54.6154 9.72877 54.5146C9.56665 54.4111 9.43889 54.2762 9.34549 54.11C9.25204 53.9411 9.20537 53.7558 9.20537 53.5541C9.20537 53.3525 9.2507 53.17 9.34137 53.0065C9.43204 52.8403 9.55841 52.7081 9.72053 52.61C9.8826 52.5092 10.0694 52.4588 10.281 52.4588C10.4816 52.4588 10.6574 52.5051 10.8085 52.5977C10.9624 52.6877 11.0778 52.8103 11.1547 52.9656L10.8827 53.0514C10.8222 52.9425 10.7371 52.8579 10.6272 52.798C10.5201 52.7353 10.4005 52.704 10.2687 52.704C10.123 52.704 9.99114 52.7408 9.87302 52.8144C9.75762 52.8879 9.66417 52.9901 9.59277 53.1209C9.52404 53.249 9.48974 53.3934 9.48974 53.5541C9.48974 53.7149 9.52544 53.8607 9.59689 53.9915C9.66829 54.1223 9.76308 54.2272 9.88126 54.3062C9.99938 54.3825 10.1299 54.4206 10.2728 54.4206C10.3662 54.4206 10.4568 54.4043 10.5448 54.3716C10.6327 54.3389 10.7082 54.2953 10.7715 54.2408C10.8346 54.1836 10.8772 54.1223 10.8992 54.0569L11.1753 54.1386C11.1369 54.2394 11.0736 54.3307 10.9858 54.4125C10.8978 54.4915 10.7934 54.5541 10.6725 54.6005C10.5516 54.6441 10.4225 54.6659 10.2851 54.6659ZM13.5114 54.625V52.7449H12.7448V52.4956H14.5582V52.7449H13.7916V54.625H13.5114ZM17.2146 54.6659C17.0085 54.6659 16.8245 54.6154 16.6623 54.5146C16.503 54.4138 16.378 54.2803 16.2873 54.1141C16.1966 53.9451 16.1513 53.7626 16.1513 53.5664C16.1513 53.3675 16.1966 53.1849 16.2873 53.0187C16.3808 52.8498 16.5071 52.7149 16.6665 52.6141C16.8286 52.5105 17.0113 52.4588 17.2146 52.4588C17.4207 52.4588 17.6034 52.5105 17.7627 52.6141C17.9248 52.7149 18.0512 52.8498 18.1419 53.0187C18.2353 53.1849 18.282 53.3675 18.282 53.5664C18.282 53.7626 18.2367 53.9451 18.146 54.1141C18.0553 54.2803 17.929 54.4138 17.7668 54.5146C17.6075 54.6154 17.4234 54.6659 17.2146 54.6659ZM16.4357 53.5705C16.4357 53.7285 16.47 53.873 16.5387 54.0037C16.6102 54.1318 16.7049 54.234 16.8231 54.3103C16.9412 54.3839 17.0717 54.4206 17.2146 54.4206C17.3575 54.4206 17.488 54.3825 17.6061 54.3062C17.7243 54.2299 17.8191 54.1264 17.8905 53.9956C17.9619 53.8648 17.9976 53.7203 17.9976 53.5623C17.9976 53.4043 17.9619 53.2599 17.8905 53.1291C17.8191 52.9983 17.7243 52.8947 17.6061 52.8185C17.488 52.7422 17.3575 52.704 17.2146 52.704C17.0745 52.704 16.9454 52.7435 16.8272 52.8225C16.7091 52.8988 16.6143 53.0024 16.5428 53.1332C16.4714 53.264 16.4357 53.4097 16.4357 53.5705ZM20.6465 54.625V52.7449H19.8799V52.4956H21.6933V52.7449H20.9268V54.625H20.6465ZM23.2497 54.0119C23.2497 53.8811 23.2881 53.7681 23.3651 53.6727C23.442 53.5746 23.5478 53.4983 23.6824 53.4438C23.8198 53.3893 23.9777 53.362 24.1563 53.362C24.2608 53.362 24.3693 53.3716 24.4819 53.3907C24.5946 53.407 24.6948 53.4302 24.7828 53.4601V53.2803C24.7828 53.1005 24.7292 52.9574 24.622 52.8511C24.5149 52.7449 24.3665 52.6917 24.1769 52.6917C24.0643 52.6917 23.9517 52.7136 23.839 52.7571C23.7263 52.798 23.6096 52.8593 23.4887 52.9411L23.3815 52.7449C23.5217 52.6495 23.6591 52.5787 23.7937 52.5324C23.9283 52.4833 24.0657 52.4588 24.2058 52.4588C24.4696 52.4588 24.6784 52.5337 24.8322 52.6836C24.9861 52.8334 25.063 53.0405 25.063 53.3048V54.2898C25.063 54.3634 25.0974 54.4016 25.1661 54.4043V54.625C25.1056 54.6332 25.063 54.6359 25.0383 54.6332C24.9696 54.6305 24.9174 54.6086 24.8817 54.5678C24.846 54.5269 24.8267 54.4833 24.824 54.437L24.8199 54.2817C24.7237 54.4043 24.5987 54.4997 24.4448 54.5678C24.291 54.6332 24.1343 54.6659 23.975 54.6659C23.8349 54.6659 23.7099 54.6373 23.6 54.58C23.4901 54.5201 23.4035 54.4411 23.3403 54.343C23.2799 54.2422 23.2497 54.1318 23.2497 54.0119ZM24.688 54.1754C24.7512 54.1018 24.7828 54.0337 24.7828 53.971V53.6604C24.5932 53.5868 24.3954 53.5501 24.1893 53.5501C23.9888 53.5501 23.8266 53.5896 23.703 53.6686C23.5794 53.7476 23.5175 53.8552 23.5175 53.9915C23.5175 54.1086 23.5629 54.2149 23.6535 54.3103C23.7469 54.4057 23.8761 54.4533 24.0409 54.4533C24.1756 54.4533 24.3006 54.4274 24.416 54.3757C24.5341 54.3239 24.6248 54.2571 24.688 54.1754ZM29.3978 53.64V53.3825H30.6013V53.64H29.3978ZM35.5705 54.6495C35.3727 54.6495 35.2023 54.6127 35.0595 54.5392C34.9194 54.4629 34.8135 54.3566 34.7421 54.2204L34.9729 54.1182C35.0251 54.2136 35.1007 54.2885 35.1996 54.343C35.2985 54.3947 35.418 54.4206 35.5582 54.4206C35.7257 54.4206 35.859 54.3825 35.9579 54.3062C36.0596 54.2299 36.1104 54.1277 36.1104 53.9997C36.1104 53.8852 36.0705 53.7912 35.9909 53.7176C35.9112 53.6441 35.8013 53.6073 35.6612 53.6073H35.4428V53.4152H35.6777C35.7683 53.4152 35.8439 53.3811 35.9044 53.313C35.9675 53.2421 35.9991 53.155 35.9991 53.0514C35.9991 52.9452 35.9607 52.8593 35.8837 52.7939C35.8096 52.7285 35.6996 52.6958 35.554 52.6958C35.3177 52.6958 35.1515 52.7898 35.0554 52.9779L34.8411 52.8634C34.9042 52.7381 34.9977 52.64 35.1213 52.5691C35.2449 52.4983 35.3919 52.4629 35.5623 52.4629C35.7656 52.4629 35.9318 52.5133 36.061 52.6141C36.1901 52.7122 36.2547 52.8484 36.2547 53.0228C36.2547 53.1236 36.2299 53.2176 36.1805 53.3048C36.131 53.392 36.0623 53.4561 35.9744 53.4969C36.1008 53.5378 36.1983 53.6059 36.267 53.7013C36.3384 53.7939 36.3742 53.9043 36.3742 54.0324C36.3742 54.2258 36.2986 54.3771 36.1475 54.486C35.9964 54.595 35.804 54.6495 35.5705 54.6495ZM38.0308 54.0119C38.0308 53.8811 38.0692 53.7681 38.1462 53.6727C38.2231 53.5746 38.3288 53.4983 38.4635 53.4438C38.6008 53.3893 38.7588 53.362 38.9375 53.362C39.0418 53.362 39.1504 53.3716 39.263 53.3907C39.3756 53.407 39.4759 53.4302 39.5639 53.4601V53.2803C39.5639 53.1005 39.5103 52.9574 39.4032 52.8511C39.296 52.7449 39.1476 52.6917 38.9581 52.6917C38.8454 52.6917 38.7327 52.7136 38.6201 52.7571C38.5074 52.798 38.3907 52.8593 38.2698 52.9411L38.1626 52.7449C38.3028 52.6495 38.4401 52.5787 38.5748 52.5324C38.7094 52.4833 38.8468 52.4588 38.9869 52.4588C39.2507 52.4588 39.4595 52.5337 39.6133 52.6836C39.7672 52.8334 39.8441 53.0405 39.8441 53.3048V54.2898C39.8441 54.3634 39.8784 54.4016 39.9472 54.4043V54.625C39.8867 54.6332 39.8441 54.6359 39.8194 54.6332C39.7507 54.6305 39.6985 54.6086 39.6628 54.5678C39.627 54.5269 39.6078 54.4833 39.6051 54.437L39.601 54.2817C39.5048 54.4043 39.3798 54.4997 39.2259 54.5678C39.0721 54.6332 38.9155 54.6659 38.7561 54.6659C38.616 54.6659 38.491 54.6373 38.3811 54.58C38.2711 54.5201 38.1846 54.4411 38.1214 54.343C38.061 54.2422 38.0308 54.1318 38.0308 54.0119ZM39.4691 54.1754C39.5323 54.1018 39.5639 54.0337 39.5639 53.971V53.6604C39.3743 53.5868 39.1765 53.5501 38.9704 53.5501C38.7698 53.5501 38.6077 53.5896 38.4841 53.6686C38.3605 53.7476 38.2986 53.8552 38.2986 53.9915C38.2986 54.1086 38.344 54.2149 38.4347 54.3103C38.528 54.4057 38.6572 54.4533 38.8221 54.4533C38.9567 54.4533 39.0817 54.4274 39.1971 54.3757C39.3152 54.3239 39.4059 54.2571 39.4691 54.1754ZM41.6036 54.6373V54.3838C41.675 54.3838 41.7396 54.3648 41.7973 54.3266C41.8577 54.2885 41.91 54.2217 41.9539 54.1264C42.0006 54.031 42.0377 53.8989 42.0652 53.7299C42.0926 53.5609 42.1105 53.3471 42.1188 53.0882L42.1435 52.4956H43.5365V54.625H43.2562V52.7449H42.3908L42.3825 53.1127C42.3688 53.5078 42.3317 53.8157 42.2712 54.0364C42.2108 54.2571 42.1243 54.4125 42.0116 54.5024C41.9017 54.5896 41.7657 54.6345 41.6036 54.6373ZM46.431 54.6659C46.2249 54.6659 46.0409 54.6154 45.8788 54.5146C45.7194 54.4138 45.5944 54.2803 45.5037 54.1141C45.4131 53.9451 45.3677 53.7626 45.3677 53.5664C45.3677 53.3675 45.4131 53.1849 45.5037 53.0187C45.5971 52.8498 45.7235 52.7149 45.8829 52.6141C46.045 52.5105 46.2277 52.4588 46.431 52.4588C46.6371 52.4588 46.8198 52.5105 46.9791 52.6141C47.1413 52.7149 47.2676 52.8498 47.3583 53.0187C47.4517 53.1849 47.4984 53.3675 47.4984 53.5664C47.4984 53.7626 47.4531 53.9451 47.3624 54.1141C47.2718 54.2803 47.1454 54.4138 46.9833 54.5146C46.8239 54.6154 46.6398 54.6659 46.431 54.6659ZM45.6521 53.5705C45.6521 53.7285 45.6864 53.873 45.7551 54.0037C45.8266 54.1318 45.9214 54.234 46.0395 54.3103C46.1576 54.3839 46.2882 54.4206 46.431 54.4206C46.5739 54.4206 46.7044 54.3825 46.8225 54.3062C46.9407 54.2299 47.0354 54.1264 47.1069 53.9956C47.1784 53.8648 47.2141 53.7203 47.2141 53.5623C47.2141 53.4043 47.1784 53.2599 47.1069 53.1291C47.0354 52.9983 46.9407 52.8947 46.8225 52.8185C46.7044 52.7422 46.5739 52.704 46.431 52.704C46.2909 52.704 46.1617 52.7435 46.0436 52.8225C45.9255 52.8988 45.8307 53.0024 45.7592 53.1332C45.6878 53.264 45.6521 53.4097 45.6521 53.5705ZM49.323 54.625V52.4956H50.6048V52.7449H49.6033V54.625H49.323ZM55.7527 54.6659C55.4067 54.6659 55.1443 54.561 54.9657 54.3512C54.7899 54.1386 54.7019 53.8457 54.7019 53.4724C54.7019 53.2081 54.7239 52.9846 54.7679 52.8021C54.8118 52.6196 54.8764 52.4683 54.9616 52.3484C55.0467 52.2285 55.1512 52.1318 55.2748 52.0582C55.4012 51.982 55.5454 51.9193 55.7076 51.8702L56.6104 51.5759L56.6349 51.8171L55.7655 52.0991C55.6004 52.1563 55.4616 52.2258 55.349 52.3076C55.2391 52.3893 55.1525 52.4969 55.0893 52.6304C55.0289 52.7612 54.9904 52.9288 54.9739 53.1332C55.0426 52.9751 55.1511 52.8539 55.2995 52.7694C55.4506 52.6822 55.6237 52.6386 55.819 52.6386C56.0278 52.6386 56.2049 52.6809 56.3503 52.7653C56.499 52.8498 56.6115 52.967 56.6883 53.1168C56.7652 53.2667 56.8036 53.4397 56.8036 53.6359C56.8036 53.9465 56.7134 54.1958 56.5318 54.3838C56.3531 54.5719 56.0935 54.6659 55.7527 54.6659ZM55.7527 54.4206C55.9972 54.4206 56.1854 54.3512 56.3174 54.2122C56.4522 54.0705 56.5196 53.8825 56.5196 53.6482C56.5196 53.4193 56.4533 53.2326 56.3219 53.0882C56.1899 52.9438 56 52.8716 55.7527 52.8716C55.61 52.8716 55.4809 52.9016 55.3655 52.9615C55.2501 53.0214 55.158 53.1086 55.0893 53.2231C55.0234 53.3375 54.9904 53.4792 54.9904 53.6482C54.9904 53.8716 55.055 54.0569 55.1841 54.204C55.316 54.3484 55.5056 54.4206 55.7527 54.4206ZM58.4293 54.6373V54.3838C58.5006 54.3838 58.5652 54.3648 58.6231 54.3266C58.6833 54.2885 58.7356 54.2217 58.7796 54.1264C58.8264 54.031 58.8632 53.8989 58.891 53.7299C58.9183 53.5609 58.9361 53.3471 58.9445 53.0882L58.969 52.4956H60.3619V54.625H60.0817V52.7449H59.2162L59.2079 53.1127C59.1945 53.5078 59.1572 53.8157 59.0971 54.0364C59.0364 54.2571 58.95 54.4125 58.837 54.5024C58.7273 54.5896 58.5914 54.6345 58.4293 54.6373ZM63.2568 54.6659C63.0507 54.6659 62.8664 54.6154 62.7043 54.5146C62.545 54.4138 62.4203 54.2803 62.3295 54.1141C62.2387 53.9451 62.1936 53.7626 62.1936 53.5664C62.1936 53.3675 62.2387 53.1849 62.3295 53.0187C62.4225 52.8498 62.5489 52.7149 62.7088 52.6141C62.8708 52.5105 63.0535 52.4588 63.2568 52.4588C63.4628 52.4588 63.6455 52.5105 63.8048 52.6141C63.9669 52.7149 64.0933 52.8498 64.1841 53.0187C64.2771 53.1849 64.3239 53.3675 64.3239 53.5664C64.3239 53.7626 64.2788 53.9451 64.188 54.1141C64.0972 54.2803 63.9708 54.4138 63.8087 54.5146C63.6494 54.6154 63.4656 54.6659 63.2568 54.6659ZM62.4776 53.5705C62.4776 53.7285 62.5122 53.873 62.5807 54.0037C62.652 54.1318 62.7472 54.234 62.8653 54.3103C62.9833 54.3839 63.1137 54.4206 63.2568 54.4206C63.3994 54.4206 63.5302 54.3825 63.6483 54.3062C63.7664 54.2299 63.861 54.1264 63.9323 53.9956C64.0042 53.8648 64.0398 53.7203 64.0398 53.5623C64.0398 53.4043 64.0042 53.2599 63.9323 53.1291C63.861 52.9983 63.7664 52.8947 63.6483 52.8185C63.5302 52.7422 63.3994 52.704 63.2568 52.704C63.1164 52.704 62.9872 52.7435 62.8692 52.8225C62.7511 52.8988 62.6564 53.0024 62.5851 53.1332C62.5133 53.264 62.4776 53.4097 62.4776 53.5705ZM66.1489 54.625V52.4956H67.4304V52.7449H66.4291V54.625H66.1489ZM70.4111 54.625V53.734C70.2379 53.8157 70.043 53.8566 69.8258 53.8566C69.3507 53.8566 69.1129 53.6128 69.1129 53.125V52.4956H69.393V53.0882C69.393 53.2789 69.4315 53.4179 69.5089 53.5051C69.5885 53.5923 69.715 53.6359 69.8876 53.6359C69.9867 53.6359 70.0831 53.625 70.1761 53.6032C70.2724 53.5814 70.351 53.5528 70.4111 53.5174V52.4956H70.6913V54.625H70.4111ZM73.5956 54.6659C73.3896 54.6659 73.2052 54.6154 73.0432 54.5146C72.8811 54.4138 72.7536 54.279 72.66 54.11C72.5664 53.9411 72.5197 53.7558 72.5197 53.5541C72.5197 53.3553 72.5653 53.1727 72.6555 53.0065C72.7491 52.8403 72.8772 52.7081 73.0393 52.61C73.2013 52.5092 73.3851 52.4588 73.5912 52.4588C73.8028 52.4588 73.9883 52.5092 74.1476 52.61C74.3068 52.7108 74.4305 52.8444 74.5185 53.0106C74.6093 53.174 74.6544 53.3539 74.6544 53.5501C74.6544 53.5936 74.6533 53.6304 74.6505 53.6604H72.8126C72.826 53.813 72.87 53.9492 72.944 54.0691C73.0187 54.1863 73.1133 54.2803 73.2286 54.3512C73.3439 54.4193 73.4703 54.4533 73.6079 54.4533C73.7477 54.4533 73.8797 54.4179 74.0033 54.3471C74.127 54.2762 74.215 54.1836 74.2673 54.0691L74.5101 54.1345C74.4661 54.2381 74.3976 54.3307 74.3041 54.4125C74.2138 54.4915 74.108 54.5541 73.9872 54.6005C73.8663 54.6441 73.7354 54.6659 73.5956 54.6659ZM72.8042 53.4601H74.3909C74.3798 53.3075 74.3375 53.1727 74.2628 53.0555C74.1888 52.9356 74.0941 52.843 73.9788 52.7776C73.8635 52.7095 73.7354 52.6754 73.5956 52.6754C73.4553 52.6754 73.3278 52.7095 73.2119 52.7776C73.0966 52.843 73.002 52.9356 72.9279 53.0555C72.8566 53.1727 72.8154 53.3075 72.8042 53.4601ZM77.3783 54.6659C77.1695 54.6659 76.984 54.6154 76.8219 54.5146C76.6599 54.4111 76.5323 54.2762 76.4388 54.11C76.3452 53.9411 76.2984 53.7558 76.2984 53.5541C76.2984 53.3525 76.3441 53.17 76.4349 53.0065C76.5251 52.8403 76.6515 52.7081 76.8136 52.61C76.9757 52.5092 77.1628 52.4588 77.3744 52.4588C77.5749 52.4588 77.7509 52.5051 77.9018 52.5977C78.0555 52.6877 78.1708 52.8103 78.2482 52.9656L77.9759 53.0514C77.9158 52.9425 77.8305 52.8579 77.7203 52.798C77.6133 52.7353 77.4936 52.704 77.3622 52.704C77.2162 52.704 77.0843 52.7408 76.9662 52.8144C76.8509 52.8879 76.7573 52.9901 76.6861 53.1209C76.6175 53.249 76.583 53.3934 76.583 53.5541C76.583 53.7149 76.6187 53.8607 76.6899 53.9915C76.7618 54.1223 76.8565 54.2272 76.9745 54.3062C77.0926 54.3825 77.2229 54.4206 77.3661 54.4206C77.4596 54.4206 77.5499 54.4043 77.6378 54.3716C77.7258 54.3389 77.8016 54.2953 77.8645 54.2408C77.928 54.1836 77.9703 54.1223 77.9926 54.0569L78.2689 54.1386C78.2299 54.2394 78.1669 54.3307 78.0789 54.4125C77.9909 54.4915 77.8868 54.5541 77.7659 54.6005C77.6451 54.6441 77.5159 54.6659 77.3783 54.6659ZM80.6046 54.625V52.7449H79.8383V52.4956H81.6516V52.7449H80.8848V54.625H80.6046ZM83.3887 54.625V52.4997H83.6688V54.249L84.9754 52.4956H85.2271V54.625H84.9464V52.9043L83.6611 54.625H83.3887ZM87.0394 54.625L87.6782 53.7544C87.5295 53.7354 87.4114 53.6727 87.3234 53.5664C87.236 53.4601 87.192 53.3157 87.192 53.1332C87.192 53.0133 87.2204 52.9057 87.2783 52.8103C87.3362 52.7122 87.417 52.6345 87.5217 52.5773C87.6286 52.5201 87.7534 52.4915 87.8965 52.4915H88.7169V54.625H88.4362V53.7994H87.9583L87.3524 54.625H87.0394ZM87.8926 53.5868H88.4362V52.7122H87.9416C87.799 52.7122 87.6849 52.7531 87.5997 52.8348C87.5145 52.9138 87.4721 53.0146 87.4721 53.1373C87.4721 53.2626 87.5061 53.3688 87.5752 53.4561C87.6464 53.5433 87.7523 53.5868 87.8926 53.5868Z" fill="white"/>
</svg>
