<svg width="69" height="69" viewBox="0 0 69 69" fill="none" xmlns="http://www.w3.org/2000/svg">
<g clip-path="url(#clip0_9_136)">
<path d="M55.9963 60.0968L53.4199 52.3665C52.5196 49.6678 50.2225 47.6757 47.4225 47.1659L39.985 45.8127V45.2362C41.2793 44.485 42.4055 43.48 43.3025 42.2903H45.5495C47.3902 42.2903 48.8882 40.7923 48.8882 38.9516V25.5968C48.8882 17.6195 42.3977 11.129 34.4204 11.129C26.4431 11.129 19.9527 17.6195 19.9527 25.5968V33.3871C19.9527 35.5328 21.4785 37.3279 23.5017 37.7463C24.1261 40.9448 26.1248 43.6514 28.8559 45.2362V45.8127L21.4173 47.1659C18.6183 47.6757 16.3202 49.6678 15.4209 52.3665L14.9758 53.7031L11.1852 49.9126C10.7512 49.4786 10.7512 48.7719 11.1852 48.3378L15.5812 43.943L7.33014 35.6919L2.36214 40.6599C0.890882 42.1312 0.0806885 44.0877 0.0806885 46.1688C0.0806885 48.2499 0.890882 50.2053 2.36214 51.6765L17.403 66.7174C18.8743 68.1887 20.8308 69 22.9119 69C24.993 69 26.9484 68.1887 28.3852 66.7508L33.8061 61.7839L32.1156 60.0968H55.9963ZM46.6624 38.9516C46.6624 39.5659 46.1627 40.0645 45.5495 40.0645H44.6135C44.9363 39.3289 45.1811 38.5532 45.3391 37.7463C45.8154 37.6473 46.2539 37.4581 46.6624 37.2199V38.9516ZM45.5495 35.3035V31.4707C46.2116 31.8568 46.6624 32.5669 46.6624 33.3871C46.6624 34.2073 46.2116 34.9173 45.5495 35.3035ZM23.2914 35.3035C22.6292 34.9173 22.1785 34.2073 22.1785 33.3871C22.1785 32.5669 22.6292 31.8568 23.2914 31.4707V35.3035ZM23.2914 27.8226V29.0935C22.8952 29.197 22.5235 29.3528 22.1785 29.5543V25.5968C22.1785 18.847 27.6707 13.3548 34.4204 13.3548C41.1702 13.3548 46.6624 18.847 46.6624 25.5968V29.5543C46.3174 29.3528 45.9457 29.1959 45.5495 29.0935V27.8226H44.4366C41.1457 27.8226 38.0518 26.5405 35.7236 24.2134L34.4204 22.9102L33.1172 24.2134C30.789 26.5405 27.6952 27.8226 24.4043 27.8226H23.2914ZM25.5172 35.6129V30.0061C28.8593 29.7546 31.9754 28.3757 34.4204 26.0508C36.8655 28.3757 39.9816 29.7557 43.3237 30.0061V35.6129C43.3237 37.2355 42.8807 38.7535 42.1195 40.0645H34.4204V42.2903H40.2899C38.7207 43.6714 36.6696 44.5161 34.4204 44.5161C29.5114 44.5161 25.5172 40.5219 25.5172 35.6129ZM37.7591 46.2289V46.2812L34.4204 49.6199L31.0817 46.2812V46.2289C32.1368 46.5605 33.2574 46.7419 34.4204 46.7419C35.5834 46.7419 36.7041 46.5605 37.7591 46.2289ZM17.531 53.0699C18.1732 51.1423 19.8147 49.7189 21.8146 49.3539L29.5938 47.9405L34.4204 52.7672L39.246 47.9416L47.0241 49.355C49.024 49.7201 50.6655 51.1423 51.3076 53.071L52.9091 57.871H29.8898L25.555 53.5362L20.7384 57.8932C20.3188 58.315 19.5854 58.315 19.1648 57.8932L16.7342 55.4626L17.531 53.0699ZM7.32903 38.8392L12.4328 43.943L11.2242 45.1516L6.12041 40.0478L7.32903 38.8392ZM26.8438 65.146C25.7932 66.1944 24.3954 66.7742 22.9097 66.7742C21.4239 66.7742 20.0261 66.1944 18.9744 65.1438L3.93356 50.104C2.88298 49.0534 2.30427 47.6556 2.30427 46.1699C2.30427 44.6831 2.88298 43.2853 3.93356 42.2347L4.54566 41.6226L9.64943 46.7263L9.60937 46.7664C8.30838 48.0685 8.30838 50.1864 9.60937 51.4885L17.59 59.4691C18.221 60.099 19.059 60.4473 19.9516 60.4473C20.8441 60.4473 21.6821 60.1001 22.272 59.508L22.3554 59.4335L27.4826 64.5606L26.8438 65.146ZM29.1252 63.0537L24.0092 57.9377L25.4794 56.6089L30.5865 61.716L29.1252 63.0537Z" fill="black"/>
<path d="M65.5817 0H50.0011C48.1603 0 46.6624 1.49797 46.6624 3.33871V12.2419C46.6624 14.0827 48.1603 15.5806 50.0011 15.5806H52.9736L51.8229 22.2926L62.5624 15.5806H65.5817C67.4224 15.5806 68.9204 14.0827 68.9204 12.2419V3.33871C68.9204 1.49797 67.4224 0 65.5817 0ZM66.6946 12.2419C66.6946 12.8551 66.1949 13.3548 65.5817 13.3548H61.9236L54.8555 17.772L55.6134 13.3548H50.0011C49.3879 13.3548 48.8882 12.8551 48.8882 12.2419V3.33871C48.8882 2.7255 49.3879 2.22581 50.0011 2.22581H65.5817C66.1949 2.22581 66.6946 2.7255 66.6946 3.33871V12.2419Z" fill="black"/>
<path d="M64.4688 4.4516H51.114V6.67741H64.4688V4.4516Z" fill="black"/>
<path d="M60.0172 8.9032H51.114V11.129H60.0172V8.9032Z" fill="black"/>
<path d="M64.4689 8.9032H62.243V11.129H64.4689V8.9032Z" fill="black"/>
<path d="M34.4204 3.33868C19.8793 3.33868 7.35353 13.3971 4.09717 27.4275L1.98822 23.9118L0.0795898 25.057L3.99145 31.5753L10.5097 27.6634L9.36454 25.7548L6.34857 27.5644C9.50254 14.7292 21.0445 5.56449 34.4204 5.56449C37.344 5.56449 40.2287 5.99852 42.9943 6.85546L43.6531 4.72981C40.6739 3.8061 37.5677 3.33868 34.4204 3.33868Z" fill="black"/>
<path d="M68.3796 24.6419L61.8613 20.73L57.9506 27.2494L59.8592 28.3946L61.8068 25.1483C62.8318 28.1475 63.3559 31.2848 63.3559 34.5C63.3559 41.1184 61.0634 47.5889 56.9022 52.7182L58.6306 54.1205C63.1133 48.596 65.5818 41.627 65.5818 34.5C65.5818 31.0956 65.0331 27.7714 63.9636 24.5885L67.2344 26.5505L68.3796 24.6419Z" fill="black"/>
</g>
<defs>
<clipPath id="clip0_9_136">
<rect width="69" height="69" fill="white"/>
</clipPath>
</defs>
</svg>
