<svg width="69" height="69" viewBox="0 0 69 69" fill="none" xmlns="http://www.w3.org/2000/svg">
<g clip-path="url(#clip0_7_8)">
<path d="M38.41 51.5199C38.8529 51.8521 39.4695 51.8217 39.8774 51.4475L53.6774 38.7975C54.1455 38.3682 54.1769 37.6406 53.7476 37.1726C53.3183 36.7045 52.5907 36.6731 52.1227 37.1024L39.0264 49.105L35.19 46.23C34.6819 45.8489 33.9611 45.9519 33.58 46.46C33.199 46.9681 33.3019 47.6889 33.81 48.07L38.41 51.5199Z" fill="black"/>
<path d="M1.15 17.25C2.77581 17.3679 4.33582 17.9401 5.65225 18.9014C6.32232 19.3969 6.92164 19.9815 7.4336 20.6391C3.013 28.4165 0.5221 35.7834 0.0598 42.5397C-0.388593 49.3239 1.92446 56.0014 6.47335 61.0547C10.7604 65.8937 16.845 68.762 23.3059 68.9897C23.5762 68.9989 23.8453 69.0023 24.1109 69.0023C30.4969 68.9961 36.619 66.4537 41.1309 61.9344C45.2609 62.5616 49.4801 61.723 53.0564 59.5643L61.1455 67.6522C62.9566 69.3517 65.7897 69.3067 67.5459 67.5505C69.3021 65.7943 69.3471 62.9612 67.6476 61.1501L59.5597 53.061C62.9335 47.3745 62.9933 40.3142 59.7163 34.5714C56.4393 28.8285 50.3304 25.2882 43.7184 25.3C43.5632 25.3 43.4125 25.3196 43.2584 25.323C38.716 16.2652 32.815 7.95543 25.76 0.681951C25.3276 0.245089 24.7382 -0.000493732 24.1236 7.45271e-07H24.1086C23.5012 0.0049673 22.9211 0.253552 22.4986 0.690001C19.6474 3.61954 16.979 6.72157 14.5084 9.97855C13.1767 7.23183 12.5386 4.20051 12.65 1.15C12.65 0.514873 12.1351 7.45271e-07 11.5 7.45271e-07C10.8649 7.45271e-07 10.35 0.514873 10.35 1.15C10.35 14.6844 1.541 14.95 1.15 14.95C0.514873 14.95 0 15.4649 0 16.1C0 16.7351 0.514873 17.25 1.15 17.25ZM66.025 62.7751C66.8601 63.6824 66.831 65.087 65.959 65.959C65.087 66.831 63.6824 66.8601 62.7751 66.025L54.9965 58.2464C56.2107 57.3024 57.3024 56.2107 58.2464 54.9965L66.025 62.7751ZM59.8357 43.7184C59.8357 50.2378 55.9084 56.1152 49.8852 58.61C43.8621 61.1047 36.9292 59.7255 32.3194 55.1154C27.7097 50.5054 26.3309 43.5724 28.8261 37.5494C31.3213 31.5264 37.199 27.5995 43.7184 27.6C52.616 27.6101 59.8261 34.8208 59.8357 43.7184ZM24.1282 2.30575C30.8023 9.19197 36.4242 17.025 40.8124 25.5519C32.3335 26.8971 25.9117 33.9269 25.3369 42.4925C24.762 51.0581 30.1869 58.883 38.41 61.3491C34.2592 64.9699 28.8879 66.8788 23.383 66.6897C17.5473 66.4821 12.0523 63.8899 8.1811 59.5183C4.04819 54.9274 1.94664 48.8609 2.35405 42.6972C2.77035 36.6114 4.9542 29.9587 8.80785 22.9057C9.90123 25.4781 10.4272 28.256 10.35 31.05C10.35 31.6851 10.8649 32.2 11.5 32.2C12.1351 32.2 12.65 31.6851 12.65 31.05C12.65 17.4996 21.4797 17.25 21.85 17.25C22.4851 17.25 23 16.7351 23 16.1C23 15.4649 22.4851 14.95 21.85 14.95C20.2242 14.8321 18.6642 14.2599 17.3478 13.2986C16.8169 12.9028 16.331 12.4501 15.8988 11.9485C18.4317 8.56062 21.1805 5.33968 24.1282 2.30575ZM11.5 8.8366C11.9509 10.1609 12.5975 11.4102 13.4182 12.5431C13.4356 12.5729 13.4548 12.6017 13.4757 12.6293C14.5597 14.0993 15.9791 15.2892 17.6157 16.1C14.68 17.596 12.4741 20.2158 11.5 23.3634C11.0869 22.1648 10.5144 21.0272 9.798 19.9813C9.75985 19.9091 9.71354 19.8416 9.66 19.78C8.56194 18.2178 7.09261 16.9532 5.3843 16.1C8.32004 14.604 10.5259 11.9842 11.5 8.8366Z" fill="black"/>
<path d="M20.9059 60.9684C9.29434 58.857 8.09144 46.4312 8.05004 45.9034C7.99701 45.2683 7.43914 44.7964 6.80401 44.8494C6.16889 44.9024 5.697 45.4603 5.75004 46.0954C5.76269 46.2415 7.13004 60.8016 20.4907 63.2304C20.5598 63.2432 20.6298 63.2498 20.7 63.25C21.2953 63.2499 21.7921 62.7956 21.8453 62.2027C21.8984 61.6099 21.4905 61.0744 20.9047 60.9684H20.9059Z" fill="black"/>
</g>
<defs>
<clipPath id="clip0_7_8">
<rect width="69" height="69" fill="white"/>
</clipPath>
</defs>
</svg>
