<svg width="69" height="69" viewBox="0 0 69 69" fill="none" xmlns="http://www.w3.org/2000/svg">
<path d="M59.8 48.3H57.9991C56.7362 48.3011 55.4907 48.5951 54.3605 49.159C52.7162 49.9764 50.7839 49.9764 49.1395 49.159C48.4836 48.8372 47.7874 48.605 47.0695 48.469L49.3109 31.05H51.75C52.3851 31.05 52.9 30.5351 52.9 29.9V25.3C52.9 24.6649 52.3851 24.15 51.75 24.15H47.15V20.7C47.15 20.395 47.0287 20.1026 46.8131 19.8869L41.4 14.4739V10.902L43.1434 9.5082L46.1208 15.464L48.1793 14.436L44.98 8.0385L46.4025 6.9H50.6C51.2351 6.9 51.75 6.38509 51.75 5.75V1.15C51.75 0.514912 51.2351 0 50.6 0H39.1C33.3868 0.0069 28.7569 4.6368 28.75 10.35C28.75 10.9851 29.265 11.5 29.9 11.5H32.2V14.4739L29.087 17.587C28.8714 17.8026 28.75 18.095 28.75 18.4V24.15H26.45V14.95C26.4483 14.8075 26.4199 14.6668 26.3661 14.5348C26.3451 14.4901 26.3212 14.4467 26.2948 14.4049C26.2672 14.3447 26.2349 14.2866 26.1982 14.2312L21.85 8.7975V1.15C21.85 0.514912 21.3351 0 20.7 0H13.8C13.165 0 12.65 0.514912 12.65 1.15V8.7975L8.3019 14.2312C8.26524 14.2866 8.2329 14.3447 8.2053 14.4049C8.17885 14.4467 8.15499 14.4901 8.134 14.5348C8.08024 14.6668 8.05177 14.8075 8.05005 14.95V24.15H3.45005C2.81496 24.15 2.30005 24.6649 2.30005 25.3V29.9C2.30005 30.5351 2.81496 31.05 3.45005 31.05H5.8892L10.3592 65.6972C10.4333 66.2708 10.9217 66.7001 11.5 66.7H38.571C39.8753 68.1619 41.7409 68.9986 43.7 69H45.5009C46.7639 68.9988 48.0094 68.7049 49.1395 68.1409C50.7839 67.3236 52.7162 67.3236 54.3605 68.1409C55.4907 68.7049 56.7362 68.9988 57.9991 69H59.8C63.6093 68.9963 66.6963 65.9092 66.7 62.1V55.2C66.6963 51.3908 63.6093 48.3037 59.8 48.3ZM47.15 2.3H49.45V4.6H47.15V2.3ZM50.6 26.45V28.75H34.5V26.45H50.6ZM31.1317 9.2C31.7086 5.24184 35.1001 2.30503 39.1 2.3H44.85V5.198L39.8464 9.2H31.1317ZM39.1 11.5V13.8H34.5V11.5H39.1ZM31.05 18.8761L33.8261 16.1H39.7739L44.85 21.1761V24.15H31.05V18.8761ZM29.9 26.45H32.2V34.5C32.1976 34.938 32.4443 35.3392 32.836 35.535L39.736 38.985C40.0725 39.1509 40.3275 39.4457 40.4432 39.8027C40.5624 40.1857 40.521 40.6007 40.3282 40.9526C39.9973 41.6166 39.1909 41.8866 38.5269 41.5555C38.5259 41.5551 38.5249 41.5545 38.5239 41.5541L33.8549 39.2196C33.2842 38.9407 32.5956 39.1773 32.3168 39.748C32.2404 39.9044 32.2005 40.0761 32.2 40.25V51.75C32.2 53.0203 31.1704 54.05 29.9 54.05V43.7H27.6V54.05H25.3V43.7H23V54.05H20.7V43.7H18.4V54.05C17.1297 54.05 16.1 53.0203 16.1 51.75V26.45H29.9ZM14.95 2.3H19.55V8.05H14.95V2.3ZM14.352 10.35H20.148L22.908 13.8H11.592L14.352 10.35ZM10.35 16.1H24.15V24.15H10.35V16.1ZM4.60005 28.75V26.45H13.8V28.75H4.60005ZM36.8 55.2V62.1C36.8021 62.884 36.9382 63.6618 37.2025 64.4H12.5109L8.2076 31.05H13.8V51.75C13.8 54.2905 15.8596 56.35 18.4 56.35H29.9C32.4405 56.35 34.5 54.2905 34.5 51.75V42.1107L37.5038 43.6126C39.319 44.5084 41.5166 43.7632 42.4125 41.9481C42.4162 41.9406 42.4198 41.933 42.4235 41.9255C42.869 41.0425 42.9448 40.0183 42.634 39.0793C42.3275 38.1399 41.6562 37.3634 40.771 36.9242L34.5 33.7893V31.05H46.9925L44.7661 48.3H43.7C39.8908 48.3037 36.8038 51.3908 36.8 55.2ZM64.4 62.1C64.4 64.6405 62.3405 66.7 59.8 66.7H57.9991C57.0934 66.6987 56.2003 66.4878 55.3898 66.0836C53.097 64.9444 50.4031 64.9444 48.1103 66.0836C47.2998 66.4878 46.4067 66.6987 45.5009 66.7H43.7C41.1595 66.7 39.1 64.6405 39.1 62.1V60.329C40.3612 61.4685 42.0003 62.0996 43.7 62.1H45.5009C46.7639 62.0989 48.0094 61.8049 49.1395 61.2409C50.7839 60.4236 52.7162 60.4236 54.3605 61.2409C55.4907 61.8049 56.7362 62.0989 57.9991 62.1H59.8C61.4997 62.0996 63.1389 61.4685 64.4 60.329V62.1ZM59.8 59.8H57.9991C57.0934 59.7987 56.2003 59.5878 55.3898 59.1836C53.097 58.0444 50.4031 58.0444 48.1103 59.1836C47.2998 59.5878 46.4067 59.7987 45.5009 59.8H43.7C41.1595 59.8 39.1 57.7405 39.1 55.2C39.1 52.6595 41.1595 50.6 43.7 50.6H45.5009C46.4067 50.6013 47.2998 50.8122 48.1103 51.2164C50.4032 52.3549 53.0968 52.3549 55.3898 51.2164C56.2003 50.8122 57.0934 50.6013 57.9991 50.6H59.8C62.3405 50.6 64.4 52.6595 64.4 55.2C64.4 57.7405 62.3405 59.8 59.8 59.8Z" fill="black"/>
<path d="M60.95 52.9H58.65V55.2H60.95V52.9Z" fill="black"/>
<path d="M49.45 52.9H47.15V55.2H49.45V52.9Z" fill="black"/>
<path d="M44.85 54.05H42.55V56.35H44.85V54.05Z" fill="black"/>
<path d="M56.3501 54.05H54.05V56.35H56.3501V54.05Z" fill="black"/>
</svg>
