<svg width="14" height="14" viewBox="0 0 14 14" fill="none" xmlns="http://www.w3.org/2000/svg">
<path d="M12.6014 9.70339V11.4534C12.6021 11.6158 12.5688 11.7767 12.5037 11.9255C12.4386 12.0744 12.3432 12.208 12.2234 12.3178C12.1037 12.4276 11.9624 12.5113 11.8085 12.5633C11.6546 12.6153 11.4915 12.6347 11.3297 12.6201C9.53472 12.425 7.81048 11.8116 6.29557 10.8292C4.88613 9.93361 3.69118 8.73866 2.79557 7.32922C1.80972 5.80743 1.19621 4.0748 1.00473 2.27172C0.990158 2.11041 1.00933 1.94783 1.06103 1.79434C1.11272 1.64084 1.19582 1.49979 1.30501 1.38017C1.41421 1.26055 1.54712 1.16497 1.69528 1.09953C1.84344 1.03409 2.0036 1.00021 2.16557 1.00006H3.91557C4.19866 0.99727 4.47311 1.09752 4.68776 1.28212C4.90241 1.46672 5.04261 1.72307 5.08223 2.00339C5.1561 2.56343 5.29308 3.11331 5.49057 3.64256C5.56905 3.85135 5.58604 4.07826 5.53951 4.2964C5.49299 4.51455 5.38491 4.71479 5.22807 4.87339L4.48724 5.61422C5.31764 7.07462 6.52683 8.28382 7.98724 9.11422L8.72807 8.37339C8.88667 8.21655 9.08691 8.10847 9.30505 8.06194C9.5232 8.01542 9.75011 8.03241 9.9589 8.11089C10.4881 8.30838 11.038 8.44536 11.5981 8.51922C11.8814 8.5592 12.1402 8.70193 12.3252 8.92026C12.5102 9.1386 12.6085 9.41731 12.6014 9.70339Z" stroke="#00B027" stroke-linecap="round" stroke-linejoin="round"/>
</svg>
