<svg width="27" height="28" viewBox="0 0 27 28" fill="none" xmlns="http://www.w3.org/2000/svg">
<path fill-rule="evenodd" clip-rule="evenodd" d="M13.5 0C6.04416 0 0 6.26801 0 14C0 21.732 6.04416 28 13.5 28C20.9558 28 27 21.732 27 14C27 6.26801 20.9558 0 13.5 0ZM10.5319 6.57847C11.2999 6.54222 11.5453 6.53335 13.5007 6.53335H13.4984C15.4545 6.53335 15.699 6.54222 16.467 6.57847C17.2335 6.61487 17.757 6.74071 18.216 6.92536C18.69 7.11592 19.0905 7.37103 19.491 7.78637C19.8915 8.20139 20.1375 8.61798 20.322 9.10907C20.499 9.58383 20.6205 10.1264 20.6565 10.9213C20.691 11.7178 20.7 11.9723 20.7 14.0001C20.7 16.0279 20.691 16.2818 20.6565 17.0783C20.6205 17.8728 20.499 18.4156 20.322 18.8905C20.1375 19.3814 19.8915 19.798 19.491 20.2131C19.091 20.6284 18.6899 20.8841 18.2164 21.0748C17.7583 21.2595 17.2345 21.3853 16.468 21.4217C15.7 21.458 15.4554 21.4668 13.4998 21.4668C11.5445 21.4668 11.2993 21.458 10.5313 21.4217C9.76491 21.3853 9.24155 21.2595 8.78345 21.0748C8.31019 20.8841 7.90849 20.6284 7.50843 20.2131C7.10808 19.798 6.86208 19.3814 6.67803 18.8903C6.50012 18.4156 6.37877 17.873 6.34352 17.0781C6.30872 16.2817 6.30002 16.0279 6.30002 14.0001C6.30002 11.9723 6.30902 11.7176 6.34337 10.9212C6.37787 10.1266 6.49937 9.58383 6.67788 9.10891C6.86238 8.61798 7.10838 8.20139 7.50888 7.78637C7.90909 7.37118 8.31079 7.11607 8.78435 6.92536C9.24215 6.74071 9.76536 6.61487 10.5319 6.57847Z" fill="white"/>
<path fill-rule="evenodd" clip-rule="evenodd" d="M12.8548 7.87882C12.9802 7.87862 13.1151 7.87868 13.2607 7.87875L13.5007 7.87882C15.4231 7.87882 15.651 7.88598 16.4101 7.92175C17.1121 7.95504 17.4931 8.07669 17.7469 8.17889C18.083 8.31422 18.3225 8.476 18.5744 8.73734C18.8264 8.99868 18.9824 9.24757 19.1132 9.59602C19.2117 9.85891 19.3292 10.254 19.3611 10.982C19.3956 11.7691 19.4031 12.0056 19.4031 13.9983C19.4031 15.991 19.3956 16.2274 19.3611 17.0145C19.329 17.7425 19.2117 18.1377 19.1132 18.4005C18.9827 18.749 18.8264 18.9971 18.5744 19.2583C18.3224 19.5196 18.0831 19.6814 17.7469 19.8167C17.4934 19.9194 17.1121 20.0407 16.4101 20.074C15.6511 20.1098 15.4231 20.1176 13.5007 20.1176C11.5781 20.1176 11.3503 20.1098 10.5913 20.074C9.88927 20.0404 9.50826 19.9188 9.25431 19.8166C8.91831 19.6813 8.67831 19.5195 8.4263 19.2581C8.1743 18.9968 8.0183 18.7485 7.8875 18.3999C7.78895 18.137 7.6715 17.7419 7.63954 17.0139C7.60504 16.2268 7.59814 15.9903 7.59814 13.9964C7.59814 12.0025 7.60504 11.7673 7.63954 10.9802C7.67165 10.2522 7.78895 9.85704 7.8875 9.59384C8.018 9.24539 8.1743 8.9965 8.4263 8.73516C8.67831 8.47383 8.91831 8.31205 9.25431 8.1764C9.50811 8.07373 9.88927 7.9524 10.5913 7.91895C11.2555 7.88784 11.5129 7.87851 12.8548 7.87695V7.87882ZM17.344 9.1186C16.867 9.1186 16.48 9.51947 16.48 10.0143C16.48 10.509 16.867 10.9103 17.344 10.9103C17.8211 10.9103 18.2081 10.509 18.2081 10.0143C18.2081 9.51962 17.8211 9.11829 17.344 9.11829V9.1186ZM9.80322 14C9.80322 11.8825 11.4587 10.1656 13.5006 10.1655C15.5426 10.1655 17.1977 11.8824 17.1977 14C17.1977 16.1176 15.5427 17.8337 13.5008 17.8337C11.4588 17.8337 9.80322 16.1176 9.80322 14Z" fill="white"/>
<path d="M13.5006 11.5112C14.826 11.5112 15.9006 12.6255 15.9006 14.0001C15.9006 15.3746 14.826 16.4891 13.5006 16.4891C12.175 16.4891 11.1006 15.3746 11.1006 14.0001C11.1006 12.6255 12.175 11.5112 13.5006 11.5112Z" fill="white"/>
</svg>
