<svg width="28" height="28" viewBox="0 0 28 28" fill="none" xmlns="http://www.w3.org/2000/svg">
<path fill-rule="evenodd" clip-rule="evenodd" d="M0 14C0 21.732 6.26801 28 14 28C21.732 28 28 21.732 28 14C28 6.26801 21.732 0 14 0C6.26801 0 0 6.26801 0 14ZM11.4334 20.4167L11.6716 16.848L11.6714 16.8478L18.1632 10.9894C18.4481 10.7366 18.101 10.6133 17.7228 10.8426L9.71094 15.8972L6.25026 14.8171C5.5029 14.5882 5.49753 14.0747 6.41805 13.7055L19.9035 8.50551C20.5195 8.22588 21.1139 8.65344 20.8788 9.59613L18.5822 20.4185C18.4219 21.1875 17.9572 21.3715 17.3134 21.0162L13.8149 18.4315L12.1334 20.0667C12.1281 20.0718 12.1228 20.077 12.1175 20.0821C11.9295 20.2652 11.7739 20.4167 11.4334 20.4167Z" fill="white"/>
</svg>
