<svg width="28" height="28" viewBox="0 0 28 28" fill="none" xmlns="http://www.w3.org/2000/svg">
<path fill-rule="evenodd" clip-rule="evenodd" d="M0 14C0 21.732 6.26801 28 14 28C21.732 28 28 21.732 28 14C28 6.26801 21.732 0 14 0C6.26801 0 0 6.26801 0 14ZM22.7863 13.4642C22.7844 18.0531 19.0514 21.7871 14.4615 21.7889H14.4581C13.0648 21.7885 11.6958 21.4389 10.4798 20.7757L6.06671 21.9333L7.24773 17.6195C6.51922 16.3569 6.13588 14.9248 6.1365 13.4576C6.13833 8.86763 9.87285 5.13331 14.4614 5.13331C16.6884 5.13427 18.7786 6.00123 20.3503 7.5748C21.9221 9.14829 22.7872 11.2398 22.7863 13.4642Z" fill="white"/>
<path fill-rule="evenodd" clip-rule="evenodd" d="M8.06542 19.9555L10.6842 19.2685L10.9369 19.4184C11.9992 20.0489 13.217 20.3824 14.4586 20.3829H14.4614C18.2751 20.3829 21.3791 17.2789 21.3806 13.4636C21.3813 11.6148 20.6623 9.87635 19.3559 8.56846C18.0496 7.26057 16.3123 6.53995 14.4642 6.53931C10.6475 6.53931 7.54351 9.64303 7.54199 13.458C7.54146 14.7654 7.90727 16.0387 8.5999 17.1403L8.76442 17.4021L8.06542 19.9555ZM18.3705 15.2564C18.5156 15.3265 18.6136 15.3739 18.6554 15.4437C18.7074 15.5305 18.7074 15.9469 18.5342 16.4329C18.3607 16.9188 17.5297 17.3622 17.1301 17.4219C16.7717 17.4755 16.3182 17.4979 15.8199 17.3395C15.5178 17.2436 15.1304 17.1157 14.6341 16.9013C12.6841 16.0593 11.3662 14.1693 11.1172 13.8121C11.0997 13.7871 11.0875 13.7696 11.0807 13.7605L11.079 13.7582C10.9689 13.6114 10.2314 12.6272 10.2314 11.6087C10.2314 10.6505 10.702 10.1483 10.9187 9.91716C10.9335 9.90132 10.9471 9.88675 10.9594 9.8734C11.15 9.66515 11.3754 9.61309 11.5141 9.61309C11.6527 9.61309 11.7915 9.61437 11.9127 9.62046C11.9277 9.62121 11.9432 9.62112 11.9593 9.62102C12.0805 9.62031 12.2317 9.61943 12.3807 9.97753C12.4381 10.1153 12.522 10.3196 12.6105 10.5351C12.7895 10.9709 12.9873 11.4523 13.0221 11.522C13.0741 11.6261 13.1087 11.7476 13.0394 11.8865C13.029 11.9073 13.0194 11.9269 13.0102 11.9457C12.9581 12.052 12.9198 12.1302 12.8314 12.2334C12.7967 12.274 12.7607 12.3178 12.7248 12.3615C12.6532 12.4487 12.5817 12.5358 12.5194 12.5979C12.4153 12.7016 12.3068 12.8141 12.4282 13.0224C12.5495 13.2306 12.967 13.9118 13.5854 14.4633C14.2501 15.0563 14.8278 15.3069 15.1207 15.4339C15.1778 15.4587 15.2242 15.4788 15.2581 15.4958C15.4661 15.5999 15.5874 15.5825 15.7088 15.4437C15.8301 15.3049 16.2287 14.8363 16.3674 14.6281C16.506 14.4199 16.6448 14.4546 16.8354 14.524C17.0261 14.5935 18.0488 15.0966 18.2568 15.2007C18.2974 15.2211 18.3354 15.2394 18.3705 15.2564Z" fill="white"/>
</svg>
