<svg width="27" height="28" viewBox="0 0 27 28" fill="none" xmlns="http://www.w3.org/2000/svg">
<path fill-rule="evenodd" clip-rule="evenodd" d="M13.5 0C6.04416 0 0 6.26801 0 14C0 21.732 6.04416 28 13.5 28C20.9558 28 27 21.732 27 14C27 6.26801 20.9558 0 13.5 0ZM19.1259 9.18713C19.7455 9.36345 20.2335 9.88298 20.3991 10.5427C20.7 11.7385 20.7 14.2334 20.7 14.2334C20.7 14.2334 20.7 16.7282 20.3991 17.924C20.2335 18.5837 19.7455 19.1033 19.1259 19.2797C18.003 19.6 13.5 19.6 13.5 19.6C13.5 19.6 8.99699 19.6 7.87404 19.2797C7.25443 19.1033 6.76647 18.5837 6.60087 17.924C6.30002 16.7282 6.30002 14.2334 6.30002 14.2334C6.30002 14.2334 6.30002 11.7385 6.60087 10.5427C6.76647 9.88298 7.25443 9.36345 7.87404 9.18713C8.99699 8.86669 13.5 8.86669 13.5 8.86669C13.5 8.86669 18.003 8.86669 19.1259 9.18713Z" fill="white"/>
<path d="M12.1499 16.8V12.1333L15.7499 14.4667L12.1499 16.8Z" fill="white"/>
</svg>
